<?xml version="1.0" standalone="no"?>
<!DOCTYPE svg PUBLIC "-//W3C//DTD SVG 1.1//EN" "http://www.w3.org/Graphics/SVG/1.1/DTD/svg11.dtd">
<svg width="609px" height="98px" version="1.1" xmlns="http://www.w3.org/2000/svg" xmlns:xlink="http://www.w3.org/1999/xlink" xml:space="preserve" style="fill-rule:evenodd;clip-rule:evenodd;stroke-miterlimit:10;">
    <g>
        <g id="English">
            <g>
                <g>
                    <path d="M609,68C609,84.568 595.569,98 579,98L30,98C13.432,98 0,84.568 0,68L0,30C0,13.432 13.432,0 30,0L579,0C595.569,0 609,13.432 609,30L609,68Z" style="fill:rgb(255,129,0);"/>
                </g>
                <g>
                    <path d="M152.335,50.3066L137.562,50.3066L137.562,66.5076L154.092,66.5076L154.092,68.7036L134.926,68.7036L134.926,31.6906L153.213,31.6906L153.213,33.8866L137.562,33.8866L137.562,48.1106L152.335,48.1106L152.335,50.3066Z" style="fill:white;fill-rule:nonzero;"/>
                </g>
                <g>
                    <path d="M160.518,48.6591C160.518,46.2431 160.463,44.4301 160.298,42.3441L162.769,42.3441L162.935,47.0671L163.044,47.0671C164.472,44.1011 167.822,41.7401 172.105,41.7401C174.631,41.7401 181.331,43.0031 181.331,52.8881L181.331,68.7041L178.695,68.7041L178.695,53.1071C178.695,48.2751 176.828,43.9361 171.392,43.9361C167.712,43.9361 164.527,46.5731 163.483,50.0321C163.319,50.6371 163.154,51.5151 163.154,52.3391L163.154,68.7041L160.518,68.7041L160.518,48.6591Z" style="fill:white;fill-rule:nonzero;"/>
                </g>
                <g>
                    <path d="M208.35,52.5039C208.35,51.5159 208.295,50.6909 208.02,49.9229C206.922,46.7919 204.176,43.9369 199.838,43.9369C194.237,43.9369 190.392,48.4949 190.392,55.4699C190.392,61.3999 193.522,66.5079 199.728,66.5079C203.243,66.5079 206.538,64.3109 207.911,60.5759C208.185,59.6979 208.35,58.7089 208.35,57.7749L208.35,52.5039ZM210.986,64.8599C210.986,71.6139 209.558,74.9649 207.362,77.0519C204.945,79.3579 201.375,80.1819 198.41,80.1819C195.39,80.1819 192.04,79.4129 190.008,77.8749L190.941,75.7879C192.808,76.9959 195.39,77.9849 198.794,77.9849C204.341,77.9849 208.35,75.1289 208.35,67.3309L208.35,63.5969L208.24,63.5969C206.867,66.2879 203.792,68.7039 199.069,68.7039C192.424,68.7039 187.756,62.9379 187.756,55.7439C187.756,46.5729 193.797,41.7399 199.618,41.7399C204.835,41.7399 207.416,44.5959 208.515,46.7919L208.624,46.7919L208.789,42.3439L211.205,42.3439C211.041,44.3209 210.986,46.4079 210.986,49.1539L210.986,64.8599Z" style="fill:white;fill-rule:nonzero;"/>
                </g>
                <g>
                    <rect x="219.827" y="29.6588" width="2.636" height="39.045" style="fill:white;fill-rule:nonzero;"/>
                </g>
                <g>
                    <path d="M231.469,42.3438L234.106,42.3438L234.106,68.7038L231.469,68.7038L231.469,42.3438ZM232.678,37.0718C231.469,37.0718 230.646,36.0288 230.646,34.8198C230.646,33.6118 231.579,32.5138 232.787,32.5138C233.996,32.5138 234.875,33.5578 234.875,34.8198C234.875,36.0288 234.05,37.0718 232.732,37.0718L232.678,37.0718Z" style="fill:white;fill-rule:nonzero;"/>
                </g>
                <g>
                    <path d="M241.849,65.2441C243.277,66.1231 245.418,67.0571 247.78,67.0571C251.953,67.0571 253.931,64.8051 253.931,62.0591C253.931,59.1481 252.173,57.6111 248.384,56.0731C244.045,54.4261 241.684,52.0641 241.684,48.8791C241.684,45.0351 244.704,41.7401 249.812,41.7401C252.228,41.7401 254.315,42.4541 255.633,43.3881L254.644,45.5291C253.711,44.8701 252.008,43.9361 249.372,43.9361C246.022,43.9361 244.265,46.0781 244.265,48.4951C244.265,51.2401 246.132,52.3931 249.702,53.8771C253.985,55.5791 256.512,57.7211 256.512,61.7291C256.512,66.2321 252.997,69.2531 247.615,69.2531C245.089,69.2531 242.673,68.5391 240.915,67.4411L241.849,65.2441Z" style="fill:white;fill-rule:nonzero;"/>
                </g>
                <g>
                    <path d="M263.431,29.6586L266.067,29.6586L266.067,47.0676L266.177,47.0676C266.946,45.5836 268.209,44.2106 269.746,43.2776C271.284,42.3436 273.096,41.7406 275.073,41.7406C277.544,41.7406 284.244,43.0026 284.244,52.8326L284.244,68.7036L281.608,68.7036L281.608,53.1076C281.608,48.3846 279.741,44.0466 274.359,44.0466C270.625,44.0466 267.55,46.7376 266.396,49.9776C266.122,50.8016 266.067,51.5156 266.067,52.6136L266.067,68.7036L263.431,68.7036L263.431,29.6586Z" style="fill:white;fill-rule:nonzero;"/>
                </g>
                <g>
                    <path d="M308.518,36.5234L308.518,42.3434L316.041,42.3434L316.041,44.4864L308.518,44.4864L308.518,61.6204C308.518,64.9694 309.561,67.0564 312.362,67.0564C313.735,67.0564 314.724,66.8914 315.382,66.6714L315.712,68.6494C314.833,68.9784 313.625,69.2524 312.033,69.2524C310.111,69.2524 308.518,68.6494 307.529,67.4414C306.321,66.0684 305.882,63.8164 305.882,61.1264L305.882,44.4864L301.434,44.4864L301.434,42.3434L305.882,42.3434L305.882,37.5114L308.518,36.5234Z" style="fill:white;fill-rule:nonzero;"/>
                </g>
                <g>
                    <path d="M342.181,62.2793C342.181,64.5853 342.236,66.6723 342.401,68.7043L339.93,68.7043L339.765,63.9813L339.655,63.9813C338.337,66.4523 335.317,69.3083 330.649,69.3083C327.299,69.3083 321.642,67.6053 321.642,57.6663L321.642,42.3433L324.279,42.3433L324.279,57.1723C324.279,62.8833 326.036,67.0023 331.253,67.0023C335.097,67.0023 337.898,64.3103 339.051,61.6753C339.326,60.8503 339.545,59.8073 339.545,58.7643L339.545,42.3433L342.181,42.3433L342.181,62.2793Z" style="fill:white;fill-rule:nonzero;"/>
                </g>
                <g>
                    <path d="M350.968,50.2519C350.968,47.6159 350.913,44.9259 350.749,42.3439L353.165,42.3439L353.275,47.6709L353.44,47.6709C354.593,44.3209 357.339,41.7399 360.908,41.7399C361.293,41.7399 361.677,41.7949 362.007,41.8499L362.007,44.3209C361.622,44.2669 361.238,44.2669 360.743,44.2669C357.119,44.2669 354.538,47.3969 353.824,51.6249C353.659,52.3939 353.604,53.2729 353.604,54.1509L353.604,68.7039L350.968,68.7039L350.968,50.2519Z" style="fill:white;fill-rule:nonzero;"/>
                </g>
                <g>
                    <path d="M367.224,48.6591C367.224,46.2431 367.169,44.4301 367.004,42.3441L369.475,42.3441L369.641,47.0671L369.75,47.0671C371.178,44.1011 374.528,41.7401 378.811,41.7401C381.337,41.7401 388.037,43.0031 388.037,52.8881L388.037,68.7041L385.401,68.7041L385.401,53.1071C385.401,48.2751 383.534,43.9361 378.098,43.9361C374.418,43.9361 371.233,46.5731 370.189,50.0321C370.025,50.6371 369.86,51.5151 369.86,52.3391L369.86,68.7041L367.224,68.7041L367.224,48.6591Z" style="fill:white;fill-rule:nonzero;"/>
                </g>
                <g>
                    <path d="M37.2056,63.4751C38.5946,65.9471 36.4306,79.1431 35.5466,80.2451C34.6626,81.3471 28.9966,82.4531 29.7476,80.1141C30.4996,77.7791 32.5726,62.2431 32.1976,59.9041C31.8256,57.5681 35.8166,61.0031 37.2056,63.4751" style="fill:white;fill-rule:nonzero;"/>
                </g>
                <g>
                    <path d="M45.6274,88.0302C46.9944,85.2812 45.0024,83.9072 45.0024,83.9072C45.0024,83.9072 35.8714,75.6672 32.3164,78.6972C28.7584,81.7242 30.4464,81.7222 30.4464,81.7222C30.4464,81.7222 44.2634,90.7822 45.6274,88.0302" style="fill:white;fill-rule:nonzero;"/>
                </g>
                <g>
                    <path d="M35.6064,78.602C35.8064,81.331 25.5154,91.837 23.8234,92.412C22.1304,92.988 14.7614,91.538 17.0234,89.834C19.2854,88.131 30.8364,75.566 31.7614,73.384C32.6864,71.203 35.4104,75.87 35.6064,78.602" style="fill:white;fill-rule:nonzero;"/>
                </g>
                <g>
                    <path d="M26.3843,94.9775C28.4673,96.9365 27.8093,100.716 24.5033,100.538C21.1153,100.358 15.9413,95.6485 14.7773,93.1125C13.1883,89.6505 18.0193,87.9985 21.1943,90.1025C21.1943,90.1025 26.3473,94.9425 26.3843,94.9775" style="fill:white;fill-rule:nonzero;"/>
                </g>
                <g>
                    <path d="M46.334,84.7085C47.593,86.1555 42.272,94.5685 40.944,95.3195C39.615,96.0715 32.271,97.1715 33.682,95.6545C35.087,94.1365 40.755,84.2685 40.747,82.8335C40.738,81.3995 45.078,83.2595 46.334,84.7085" style="fill:white;fill-rule:nonzero;"/>
                </g>
                <g>
                    <path d="M44.3047,96.0688C46.9927,96.6078 47.8737,98.8498 44.7647,99.6048C41.5827,100.378 34.9747,99.1238 32.9077,98.0328C30.0837,96.5418 33.8727,94.3898 37.6167,94.7278C37.6167,94.7278 44.2587,96.0578 44.3047,96.0688" style="fill:white;fill-rule:nonzero;"/>
                </g>
                <g>
                    <path d="M48.2837,35.0127C47.2557,40.9657 45.4577,53.8667 44.9047,55.7277C44.3537,57.5887 40.1677,59.2917 37.5667,59.9927C34.9667,60.6947 25.6367,60.5047 21.8807,58.2877C18.1197,56.0697 15.9377,55.9747 14.8547,50.3157C13.7737,44.6597 15.8107,32.1957 17.9107,28.2187C20.0087,24.2397 30.7527,23.3767 35.9967,24.9297C41.2437,26.4857 49.3127,29.0627 48.2837,35.0127" style="fill:white;fill-rule:nonzero;"/>
                </g>
                <g>
                    <path d="M47.3247,36.3872C47.7457,30.6212 25.1837,25.4062 23.6057,33.2192C22.0247,41.0312 20.7937,44.4702 21.6227,47.3552C23.7087,54.5972 44.2407,59.2112 45.4067,49.0672C46.2797,41.4792 46.9057,42.1502 47.3247,36.3872" style="fill:none;stroke-width:0.5px;stroke:rgb(255,129,0);"/>
                </g>
                <g>
                    <path d="M9.9712,60.2778C9.2652,62.6608 10.6242,65.1648 13.0052,65.8698C15.3882,66.5778 17.8932,65.2168 18.5982,62.8358C19.3032,60.4548 17.9462,57.9498 15.5632,57.2428C13.1812,56.5388 10.6782,57.8968 9.9712,60.2778" style="fill:white;fill-rule:nonzero;"/>
                </g>
                <g>
                    <path d="M52.1924,56.5991C48.3134,59.1301 37.1094,60.9611 37.1094,60.9611C37.1094,60.9611 35.0924,62.7561 38.5644,64.7041C42.0354,66.6541 53.2254,62.4271 55.2134,60.0701C57.1974,57.7141 56.0714,54.0691 52.1924,56.5991" style="fill:white;fill-rule:nonzero;"/>
                </g>
                <g>
                    <path d="M24.6084,24.8681C24.4834,17.8371 31.3224,18.0241 34.9644,19.1041C38.6084,20.1831 40.8534,21.5861 40.7354,26.3341" style="fill:white;fill-rule:nonzero;"/>
                </g>
                <g>
                    <path d="M26.5986,39.2592C26.0456,41.1272 27.1096,43.0902 28.9796,43.6452C30.8486,44.1992 32.8106,43.1332 33.3646,41.2632C33.9196,39.3962 32.8536,37.4322 30.9856,36.8782C29.1156,36.3242 27.1496,37.3892 26.5986,39.2592" style="fill:rgb(255,129,0);fill-rule:nonzero;"/>
                </g>
                <g>
                    <path d="M38.9355,41.7207C38.4495,43.3557 39.3835,45.0747 41.0185,45.5587C42.6525,46.0427 44.3735,45.1107 44.8545,43.4747C45.3415,41.8417 44.4085,40.1217 42.7745,39.6377C41.1385,39.1527 39.4225,40.0867 38.9355,41.7207" style="fill:rgb(255,129,0);fill-rule:nonzero;"/>
                </g>
                <g>
                    <path d="M27.3613,38.0737C27.3613,38.0737 25.7303,37.0317 25.0793,37.0717C24.4253,37.1107 25.0343,37.8947 25.0343,37.8947L27.3713,39.5257" style="fill:rgb(255,129,0);fill-rule:nonzero;"/>
                </g>
                <g>
                    <path d="M44.439,42.0459C44.439,42.0459 45.481,40.4189 45.442,39.7649C45.402,39.1109 44.617,39.7209 44.617,39.7209L42.988,42.0569" style="fill:rgb(255,129,0);fill-rule:nonzero;"/>
                </g>
                <g>
                    <path d="M42.126,48.4267C42.003,48.3907 41.868,48.3867 41.725,48.4147C41.391,48.4807 41.007,48.6297 40.564,48.7987C39.312,49.2807 37.599,49.9417 34.921,49.6377C34.267,49.5617 33.638,49.4337 32.997,49.2417C31.668,48.8507 30.561,48.2697 29.586,47.7547C28.788,47.3357 28.099,46.9717 27.424,46.7727C26.784,46.5837 26.288,46.7557 26.026,47.2527C25.704,47.8717 25.826,48.9057 26.522,49.4627C27.34,50.1197 29.506,51.0517 31.792,51.7287C32.777,52.0207 33.682,52.2337 34.411,52.3427C36.968,52.7267 40.998,51.5127 42.12,50.7367C42.689,50.3467 42.806,49.6897 42.735,49.2507C42.669,48.8267 42.441,48.5197 42.126,48.4267M31.69,52.0667C29.367,51.3767 27.15,50.4197 26.3,49.7387C25.442,49.0497 25.328,47.8277 25.714,47.0907C26.052,46.4447 26.728,46.1987 27.526,46.4357C28.235,46.6447 28.969,47.0317 29.749,47.4437C30.713,47.9497 31.803,48.5207 33.094,48.9057C33.717,49.0877 34.327,49.2147 34.961,49.2847C37.552,49.5797 39.22,48.9387 40.436,48.4707C40.895,48.2927 41.292,48.1407 41.656,48.0677C42.364,47.9277 42.961,48.4147 43.084,49.1957C43.199,49.9097 42.898,50.6287 42.32,51.0277C41.01,51.9347 36.837,53.0637 34.358,52.6927C33.615,52.5797 32.692,52.3627 31.69,52.0667" style="fill:rgb(255,129,0);fill-rule:nonzero;"/>
                </g>
                <g>
                    <path d="M52.8784,54.5952C52.1714,56.9762 53.5304,59.4802 55.9144,60.1862C58.2964,60.8932 60.7984,59.5332 61.5064,57.1512C62.2114,54.7692 60.8554,52.2662 58.4704,51.5582C56.0884,50.8542 53.5834,52.2112 52.8784,54.5952" style="fill:white;fill-rule:nonzero;"/>
                </g>
                <g>
                    <path d="M37.1089,60.9614C38.8159,63.6774 38.8299,65.8904 38.8299,65.8904C39.5019,70.0364 39.9599,78.0024 37.6329,80.2554C35.9289,81.9134 31.3319,81.1704 29.2879,81.0964C25.4119,80.9524 21.2549,79.6334 17.1779,77.8734C13.6879,76.3664 16.4299,70.9224 17.6209,66.4044C18.1959,64.2204 18.7989,61.3314 20.0029,59.3864C20.9639,57.8334 23.6819,58.8234 23.6819,58.8234C23.6819,58.8234 35.4039,58.2474 37.1089,60.9614" style="fill:white;fill-rule:nonzero;"/>
                </g>
            </g>
        </g>
    </g>
</svg>
