<?xml version="1.0" standalone="no"?>
<!DOCTYPE svg PUBLIC "-//W3C//DTD SVG 1.1//EN" "http://www.w3.org/Graphics/SVG/1.1/DTD/svg11.dtd">
<svg width="609px" height="98px" version="1.1" xmlns="http://www.w3.org/2000/svg" xmlns:xlink="http://www.w3.org/1999/xlink" xml:space="preserve" style="fill-rule:evenodd;clip-rule:evenodd;stroke-linejoin:round;stroke-miterlimit:1.41421;">
    <g>
        <g id="Layer1">
            <g>
                <path d="M609,68C609,84.568 595.569,98 579,98L30,98C13.432,98 0,84.568 0,68L0,30C0,13.432 13.432,0 30,0L579,0C595.569,0 609,13.432 609,30L609,68Z" style="fill:rgb(255,129,0);"/>
            </g>
            <g>
                <path d="M244.833,63.5733C242.966,64.3413 239.067,65.5503 234.015,65.5503C229.127,65.5503 224.679,64.3413 220.944,60.7183C217.869,57.7513 215.837,52.7553 215.837,46.7683C215.837,36.4993 222.592,27.7663 235.167,27.7663C239.122,27.7663 242.362,28.7003 243.79,29.4153L242.911,31.5573C240.989,30.6243 238.572,29.9643 235.003,29.9643C224.843,29.9643 218.583,36.6083 218.583,46.6593C218.583,57.0933 224.679,63.3523 234.454,63.3523C238.353,63.3523 240.824,62.8033 242.197,62.0363L242.197,48.9663L233.63,48.9663L233.63,46.8233L244.833,46.8233L244.833,63.5733Z" style="fill:white;fill-rule:nonzero;"/>
            </g>
            <g>
                <rect x="252.522" y="26.1203" width="2.636" height="39.045" style="fill:white;fill-rule:nonzero;"/>
            </g>
            <g>
                <path d="M274.213,63.5733C279.705,63.5733 284.043,58.6303 284.043,51.8763C284.043,47.0443 281.352,40.3973 274.378,40.3973C267.623,40.3973 264.603,46.3843 264.603,52.0403C264.603,58.6303 268.776,63.5733 274.158,63.5733L274.213,63.5733ZM274.048,65.7703C267.238,65.7703 261.966,60.4423 261.966,52.2063C261.966,43.1983 267.898,38.2023 274.433,38.2023C281.736,38.2023 286.679,43.6923 286.679,51.7663C286.679,61.5423 279.924,65.7703 274.103,65.7703L274.048,65.7703Z" style="fill:white;fill-rule:nonzero;"/>
            </g>
            <g>
                <path d="M292.281,61.7061C293.709,62.5851 295.85,63.5191 298.212,63.5191C302.385,63.5191 304.363,61.2671 304.363,58.5201C304.363,55.6101 302.605,54.0731 298.816,52.5341C294.477,50.8881 292.116,48.5261 292.116,45.3411C292.116,41.4971 295.136,38.2021 300.244,38.2021C302.66,38.2021 304.747,38.9151 306.065,39.8491L305.076,41.9911C304.143,41.3311 302.44,40.3971 299.804,40.3971C296.454,40.3971 294.697,42.5401 294.697,44.9561C294.697,47.7021 296.564,48.8541 300.134,50.3391C304.417,52.0401 306.944,54.1831 306.944,58.1901C306.944,62.6941 303.429,65.7141 298.047,65.7141C295.521,65.7141 293.105,65.0011 291.347,63.9031L292.281,61.7061Z" style="fill:white;fill-rule:nonzero;"/>
            </g>
            <g>
                <path d="M312.765,61.7061C314.193,62.5851 316.334,63.5191 318.696,63.5191C322.869,63.5191 324.847,61.2671 324.847,58.5201C324.847,55.6101 323.089,54.0731 319.3,52.5341C314.961,50.8881 312.6,48.5261 312.6,45.3411C312.6,41.4971 315.62,38.2021 320.728,38.2021C323.144,38.2021 325.231,38.9151 326.549,39.8491L325.56,41.9911C324.627,41.3311 322.924,40.3971 320.288,40.3971C316.938,40.3971 315.181,42.5401 315.181,44.9561C315.181,47.7021 317.048,48.8541 320.618,50.3391C324.901,52.0401 327.428,54.1831 327.428,58.1901C327.428,62.6941 323.913,65.7141 318.531,65.7141C316.005,65.7141 313.589,65.0011 311.831,63.9031L312.765,61.7061Z" style="fill:white;fill-rule:nonzero;"/>
            </g>
            <g>
                <path d="M348.13,51.0518C342.363,50.8878 334.785,51.7668 334.785,58.0808C334.785,61.8698 337.311,63.5728 340.057,63.5728C344.45,63.5728 346.977,60.8818 347.855,58.3018C348.075,57.7508 348.13,57.1478 348.13,56.7078L348.13,51.0518ZM350.766,58.9058C350.766,60.9908 350.821,63.1338 351.15,65.1648L348.734,65.1648L348.349,61.3758L348.24,61.3758C346.922,63.4088 344.011,65.7708 339.782,65.7708C334.456,65.7708 332.039,62.0358 332.039,58.5208C332.039,52.4248 337.366,48.7448 348.13,48.8548L348.13,48.1418C348.13,45.5598 347.635,40.3428 341.375,40.3978C339.068,40.3978 336.652,41.0028 334.73,42.3758L333.906,40.4538C336.323,38.8608 339.288,38.2018 341.65,38.2018C349.283,38.2018 350.766,43.9128 350.766,48.5808L350.766,58.9058Z" style="fill:white;fill-rule:nonzero;"/>
            </g>
            <g>
                <path d="M359.224,46.7139C359.224,44.0769 359.169,41.3879 359.004,38.8059L361.42,38.8059L361.53,44.1319L361.695,44.1319C362.848,40.7819 365.594,38.2019 369.163,38.2019C369.548,38.2019 369.932,38.2569 370.262,38.3119L370.262,40.7819C369.877,40.7279 369.493,40.7279 368.999,40.7279C365.374,40.7279 362.793,43.8589 362.079,48.0869C361.914,48.8549 361.86,49.7339 361.86,50.6119L361.86,65.1649L359.224,65.1649L359.224,46.7139Z" style="fill:white;fill-rule:nonzero;"/>
            </g>
            <g>
                <path d="M374.435,38.8057L381.354,56.0497C382.068,57.9167 382.782,60.0577 383.277,61.7057L383.386,61.7057C383.935,60.1127 384.595,58.0267 385.418,55.8837L391.844,38.8057L394.644,38.8057L386.736,58.4657C383.551,66.6477 381.3,71.5357 377.84,74.5557C375.753,76.3137 373.831,77.0827 373.227,77.3017L372.403,75.1047C373.721,74.6107 375.423,73.6767 377.016,72.1947C378.334,70.8757 380.091,68.6807 381.41,65.5497C381.629,65.0007 381.739,64.6707 381.739,64.3977C381.739,64.1767 381.629,63.7917 381.41,63.2437L371.634,38.8057L374.435,38.8057Z" style="fill:white;fill-rule:nonzero;"/>
            </g>
            <g>
                <path d="M62.5893,65.5586C62.5483,67.8756 60.7003,69.7216 58.4593,69.6806C56.2213,69.6416 54.4413,67.7296 54.4823,65.4126C54.5233,63.0936 56.3723,61.2466 58.6113,61.2886C60.8493,61.3286 62.6313,63.2406 62.5893,65.5586" style="fill:white;fill-rule:nonzero;"/>
            </g>
            <g>
                <path d="M36.0737,56.8916C37.0137,54.7056 41.6177,55.2376 41.5867,56.9906C41.5537,58.7456 41.8267,61.9546 43.4637,63.9816C47.7517,69.2796 54.4577,64.2216 56.8357,63.0456C58.9827,61.9886 58.3737,67.7926 56.9697,68.8116C53.1497,71.5766 46.0647,73.1696 41.1507,69.5696C36.2337,65.9636 34.6827,60.1236 36.0737,56.8916" style="fill:white;fill-rule:nonzero;"/>
            </g>
            <g>
                <path d="M23.2832,64.6162C23.2832,66.6592 24.9952,68.3142 27.1072,68.3142C29.2182,68.3142 30.9302,66.6592 30.9302,64.6162C30.9302,62.5742 29.2182,60.9192 27.1072,60.9192C24.9952,60.9192 23.2832,62.5742 23.2832,64.6162" style="fill:white;fill-rule:nonzero;"/>
            </g>
            <g>
                <path d="M35.1816,59.3086C35.1816,56.7626 29.3906,57.4166 29.3906,59.3086C29.3906,61.2026 29.0436,64.6546 27.2856,66.8056C22.6816,72.4326 15.7346,66.8516 13.2596,65.5416C11.0236,64.3586 11.5526,70.6276 13.0106,71.7496C16.9686,74.8046 25.7646,73.5956 28.5686,71.3816C32.6276,68.1806 35.1816,61.8566 35.1816,59.3086" style="fill:white;fill-rule:nonzero;"/>
            </g>
            <g>
                <path d="M9.3061,68.1035C9.3061,70.4215 11.1571,72.3005 13.4421,72.3005C15.7271,72.3005 17.5791,70.4215 17.5791,68.1035C17.5791,65.7865 15.7271,63.9075 13.4421,63.9075C11.1571,63.9075 9.3061,65.7865 9.3061,68.1035" style="fill:white;fill-rule:nonzero;"/>
            </g>
            <g>
                <path d="M35.5327,58.3027C35.5327,55.6617 29.6477,56.3407 29.6477,58.3027C29.6477,60.2647 28.9047,66.4877 27.1167,68.7157C22.4377,74.5517 18.0737,71.8017 15.5567,70.4447C13.2857,69.2147 11.1707,75.6947 15.1557,77.6877C18.3757,79.2977 20.7047,78.7897 23.8867,78.2497C26.8537,77.7467 28.6947,75.5887 31.5447,73.2957C35.6697,69.9747 35.5327,60.9437 35.5327,58.3027" style="fill:white;fill-rule:nonzero;"/>
            </g>
            <g>
                <path d="M9.8057,72.2158C9.8057,74.6178 11.6877,76.5658 14.0097,76.5658C16.3317,76.5658 18.2137,74.6178 18.2137,72.2158C18.2137,69.8088 16.3317,67.8618 14.0097,67.8618C11.6877,67.8618 9.8057,69.8088 9.8057,72.2158" style="fill:white;fill-rule:nonzero;"/>
            </g>
            <g>
                <path d="M43.7573,64.0127C43.7573,66.0567 45.4693,67.7097 47.5833,67.7097C49.6953,67.7097 51.4063,66.0567 51.4063,64.0127C51.4063,61.9717 49.6953,60.3147 47.5833,60.3147C45.4693,60.3147 43.7573,61.9717 43.7573,64.0127" style="fill:white;fill-rule:nonzero;"/>
            </g>
            <g>
                <path d="M18.9072,39.7354C18.9072,44.4804 21.6732,49.2904 24.6422,52.4634C25.7982,53.6984 27.2682,55.3494 27.0292,57.1874C26.8812,58.3294 26.1032,59.4344 26.3552,60.6324C26.5252,61.4334 27.1912,62.0894 27.7872,62.6024C29.9492,64.4714 33.0392,65.0654 35.8082,65.2334C42.4482,65.6344 48.0832,63.0994 49.2902,62.2154C50.5342,61.3054 48.7622,59.4954 48.8372,57.6534C48.9122,55.8344 47.0982,54.3394 48.4842,53.1184C52.1632,49.8804 55.5822,45.0994 55.5822,39.7354C55.5822,29.9824 46.7902,22.0534 37.2882,22.0534C27.7872,22.0534 18.9072,29.9824 18.9072,39.7354" style="fill:white;fill-rule:nonzero;"/>
            </g>
            <g>
                <path d="M27.1636,44.1621C27.6826,40.0291 30.2906,36.0791 34.9026,36.4101C38.8446,36.6911 41.4056,40.3331 41.0096,44.1181C40.8276,45.8521 38.1136,45.7181 38.2956,43.9741C38.5456,41.6041 37.2656,39.4041 34.7576,39.1211C31.7276,38.7791 30.2006,41.7321 29.8766,44.3071C29.6596,46.0351 26.9456,45.9041 27.1636,44.1621" style="fill:rgb(255,129,0);fill-rule:nonzero;"/>
            </g>
            <g>
                <path d="M46.3423,43.3076C46.7183,39.2616 48.2373,35.3436 50.7503,35.5616C52.9013,35.7436 54.2163,39.2446 53.9133,42.9456C53.7733,44.6446 52.2943,44.5766 52.4323,42.8686C52.6223,40.5506 52.3313,38.3426 50.9673,38.1206C49.3173,37.8546 48.4163,40.7766 48.1783,43.2946C48.0213,44.9876 46.1813,45.0106 46.3423,43.3076" style="fill:rgb(255,129,0);fill-rule:nonzero;"/>
            </g>
            <g>
                <path d="M40.977,56.5928C40.977,53.9518 46.17,54.6318 46.17,56.5928C46.17,58.5548 46.825,64.7788 48.403,67.0068C52.531,72.8428 59.219,67.7788 61.439,66.4168C63.443,65.1928 62.573,70.0618 62.043,71.6508C61.237,74.0658 55.78,74.8898 52.975,74.3518C50.354,73.8508 47.009,73.8798 44.496,71.5848C40.857,68.2648 40.977,59.2348 40.977,56.5928" style="fill:white;fill-rule:nonzero;"/>
            </g>
            <g>
                <path d="M64.2593,68.8447C64.2593,71.2467 62.3783,73.1967 60.0543,73.1967C57.7343,73.1967 55.8503,71.2467 55.8503,68.8447C55.8503,66.4397 57.7343,64.4917 60.0543,64.4917C62.3783,64.4917 64.2593,66.4397 64.2593,68.8447" style="fill:white;fill-rule:nonzero;"/>
            </g>
            <g>
                <path d="M38.602,59.1592C38.602,56.5162 32.716,57.1972 32.716,59.1592C32.716,61.1212 32.401,66.7612 30.904,69.1962C29.699,71.1582 29.798,71.2822 27.283,70.7052C24.766,70.1262 22.267,77.2882 23.887,78.2502C26.952,80.0772 30.347,78.8692 32.262,77.8742C35.125,76.3842 36.472,72.7992 36.866,71.6852C37.695,69.3472 38.602,61.8002 38.602,59.1592" style="fill:white;fill-rule:nonzero;"/>
            </g>
            <g>
                <path d="M21.3574,74.252C21.3574,76.654 23.2404,78.605 25.5624,78.605C27.8824,78.605 29.7644,76.654 29.7644,74.252C29.7644,71.848 27.8824,69.9 25.5624,69.9C23.2404,69.9 21.3574,71.848 21.3574,74.252" style="fill:white;fill-rule:nonzero;"/>
            </g>
            <g>
                <path d="M37.1797,59.2608C37.1797,56.6178 43.0647,57.2988 43.0647,59.2608C43.0647,61.2228 43.3777,66.8628 44.8767,69.2958C46.0837,71.2578 45.9817,71.3838 48.4977,70.8068C51.0137,70.2268 53.3957,77.2088 51.8937,78.3518C50.4217,79.4738 46.8497,79.7008 43.8547,78.4918C40.8607,77.2858 39.3097,72.9008 38.9157,71.7868C38.0847,69.4468 37.1797,61.9018 37.1797,59.2608" style="fill:white;fill-rule:nonzero;"/>
            </g>
            <g>
                <path d="M54.4233,74.2852C54.4233,76.8182 52.4393,78.8692 49.9923,78.8692C47.5473,78.8692 45.5643,76.8182 45.5643,74.2852C45.5643,71.7522 47.5473,69.6992 49.9923,69.6992C52.4393,69.6992 54.4233,71.7522 54.4233,74.2852" style="fill:white;fill-rule:nonzero;"/>
            </g>
            <g>
                <path d="M40.7817,61.1192C44.0917,63.8322 49.1497,63.1402 52.0747,59.5712C55.0017,56.0042 54.6917,50.9102 51.3817,48.1952C48.0687,45.4802 43.0137,46.1722 40.0857,49.7412C37.1597,53.3082 37.4707,58.4022 40.7817,61.1192" style="fill:rgb(255,129,0);fill-rule:nonzero;"/>
            </g>
            <g>
                <path d="M42.626,52.1172C40.491,54.9932 40.748,58.8042 43.202,60.6222C45.656,62.4482 49.378,61.5912 51.512,58.7152C53.648,55.8382 53.389,52.0282 50.935,50.2072C48.481,48.3862 44.762,49.2402 42.626,52.1172" style="fill:white;fill-rule:nonzero;"/>
            </g>
        </g>
    </g>
</svg>
