<?xml version="1.0" standalone="no"?>
<!DOCTYPE svg PUBLIC "-//W3C//DTD SVG 1.1//EN" "http://www.w3.org/Graphics/SVG/1.1/DTD/svg11.dtd">
<svg width="609px" height="98px" version="1.1" xmlns="http://www.w3.org/2000/svg" xmlns:xlink="http://www.w3.org/1999/xlink" xml:space="preserve" style="fill-rule:evenodd;clip-rule:evenodd;stroke-miterlimit:10;">
    <g>
        <g id="Layer1">
            <g>
                <path d="M609,68C609,84.568 595.569,98 579,98L30,98C13.432,98 0,84.568 0,68L0,30C0,13.432 13.432,0 30,0L579,0C595.569,0 609,13.432 609,30L609,68Z" style="fill:rgb(255,129,0);"/>
            </g>
            <g>
                <path d="M282.807,48.5625C282.477,43.0175 282.038,36.2075 282.038,32.1425L281.928,32.1425C280.555,36.1525 279.073,40.4355 276.931,45.9825L269.133,66.0825L267.321,66.0825L260.016,46.4215C257.93,40.6545 256.337,36.2075 255.239,32.1425L255.129,32.1425C255.019,36.4825 254.744,42.9065 254.305,49.0565L253.152,66.0825L250.571,66.0825L253.262,29.0685L256.282,29.0685L264.245,50.4295C266.002,55.0975 267.265,58.8325 268.309,62.4025L268.474,62.4025C269.407,58.9985 270.725,55.4275 272.592,50.4295L280.885,29.0685L284.015,29.0685L286.486,66.0825L283.905,66.0825L282.807,48.5625Z" style="fill:white;fill-rule:nonzero;"/>
            </g>
            <g>
                <path d="M304.335,64.4883C309.827,64.4883 314.165,59.5473 314.165,52.7913C314.165,47.9593 311.474,41.3143 304.5,41.3143C297.745,41.3143 294.725,47.3003 294.725,52.9573C294.725,59.5473 298.898,64.4883 304.28,64.4883L304.335,64.4883ZM304.17,66.6853C297.36,66.6853 292.088,61.3593 292.088,53.1213C292.088,44.1153 298.02,39.1173 304.555,39.1173C311.858,39.1173 316.801,44.6093 316.801,52.6813C316.801,62.4573 310.046,66.6853 304.225,66.6853L304.17,66.6853Z" style="fill:white;fill-rule:nonzero;"/>
            </g>
            <g>
                <path d="M323.446,47.6289C323.446,44.9939 323.391,42.3029 323.226,39.7229L325.642,39.7229L325.752,45.0489L325.917,45.0489C327.07,41.6989 329.816,39.1169 333.385,39.1169C333.77,39.1169 334.154,39.1719 334.484,39.2269L334.484,41.6989C334.099,41.6449 333.715,41.6449 333.221,41.6449C329.596,41.6449 327.015,44.7739 326.301,49.0019C326.136,49.7719 326.082,50.6499 326.082,51.5289L326.082,66.0819L323.446,66.0819L323.446,47.6289Z" style="fill:white;fill-rule:nonzero;"/>
            </g>
            <g>
                <path d="M356.891,50.5411C356.946,46.8611 355.408,41.3141 349.038,41.3141C343.217,41.3141 340.745,46.4771 340.251,50.5411L356.891,50.5411ZM340.086,52.6271C340.086,61.0291 344.7,64.3791 350.136,64.3791C353.98,64.3791 355.957,63.6091 357.44,62.8961L358.099,64.9281C357.111,65.4771 354.42,66.6311 349.807,66.6311C342.228,66.6311 337.505,61.1391 337.505,53.3961C337.505,44.6091 342.558,39.1171 349.367,39.1171C357.989,39.1171 359.637,47.2461 359.637,51.0351C359.637,51.7481 359.637,52.1331 359.527,52.6271L340.086,52.6271Z" style="fill:white;fill-rule:nonzero;"/>
            </g>
            <g>
                <path d="M7.3862,36.1397C7.4852,42.6187 11.2462,47.8137 15.7852,47.7437C20.3242,47.6727 23.9252,42.3687 23.8262,35.8897C23.7282,29.4127 19.9692,24.2177 15.4282,24.2857C10.8882,24.3567 7.2872,29.6627 7.3862,36.1397" style="fill:white;fill-rule:nonzero;"/>
            </g>
            <g>
                <path d="M38.6562,34.917C38.7472,40.843 42.1422,45.595 46.2402,45.532C50.3392,45.47 53.5882,40.616 53.4972,34.692C53.4072,28.765 50.0122,24.013 45.9132,24.075C41.8152,24.136 38.5662,28.991 38.6562,34.917" style="fill:white;fill-rule:nonzero;"/>
            </g>
            <g>
                <path d="M19.729,40.2237C19.854,48.4507 27.752,54.9987 37.367,54.8527C46.983,54.7057 54.676,47.9187 54.55,39.6947C54.425,31.4677 46.53,24.9187 36.912,25.0657C27.298,25.2117 19.604,31.9987 19.729,40.2237" style="fill:white;fill-rule:nonzero;"/>
            </g>
            <g>
                <path d="M40.1958,27.2588C32.5018,27.3758 26.3498,33.2078 26.4588,40.2818C26.5668,47.3588 32.8908,52.9968 40.5858,52.8818C48.2798,52.7628 54.4318,46.9328 54.3238,39.8588C54.2168,32.8548 48.0188,27.2568 40.4308,27.2568C40.3518,27.2568 40.2728,27.2568 40.1958,27.2588" style="fill:white;fill-rule:nonzero;"/>
            </g>
            <g>
                <clipPath id="tag1">
                    <path d="M40.1955,27.2589C32.5015,27.3759 26.3505,33.2079 26.4585,40.2819C26.5665,47.3579 32.8915,52.9979 40.5855,52.8819C48.2805,52.7629 54.4315,46.9319 54.3235,39.8589C54.2155,32.8549 48.0195,27.2569 40.4305,27.2569C40.3525,27.2569 40.2735,27.2569 40.1955,27.2589Z"/>
                </clipPath>
                <g clip-path="url(#tag1)">
                    <path d="M54.8257,52.9913L54.4257,26.8273L25.9567,27.2623L26.3567,53.4273L54.8257,52.9913Z" style="fill:white;fill-rule:nonzero;"/>
                </g>
            </g>
            <g>
                <path d="M26.4585,40.2823C26.5665,47.3563 32.8925,52.9973 40.5855,52.8823C48.2805,52.7623 54.4315,46.9323 54.3235,39.8583C54.2165,32.7823 47.8915,27.1413 40.1955,27.2593C32.5005,27.3763 26.3505,33.2083 26.4585,40.2823Z" style="fill:none;stroke-width:0.5px;stroke:rgb(255,129,0);"/>
            </g>
            <g>
                <path d="M43.437,54.333C41.637,62.263 47.457,72.853 48.116,74.017C49.378,76.251 45.194,78.44 36.857,78.032C28.523,77.626 21.759,75.38 21.281,71.97C20.803,68.56 30.982,63.812 31.265,54.411C33.678,51.599 43.54,54.011 43.437,54.333" style="fill:white;fill-rule:nonzero;"/>
            </g>
            <g>
                <path d="M43.1401,55.8311C44.3101,55.6011 56.4441,59.9011 60.9161,66.0261C61.1721,68.8001 60.1131,69.4561 58.0841,69.4871C54.9071,64.0891 42.5671,60.2181 42.5671,60.2181C42.5671,60.2181 41.9691,56.0631 43.1401,55.8311" style="fill:white;fill-rule:nonzero;"/>
            </g>
            <g>
                <path d="M31.3901,55.583C31.3901,55.583 14.6591,57.976 13.0671,58.534C11.4731,59.091 13.4581,63.12 13.4581,63.12C13.4581,63.12 29.1051,59.784 30.6051,60.187C32.1061,60.593 31.3901,55.583 31.3901,55.583" style="fill:white;fill-rule:nonzero;"/>
            </g>
            <g>
                <path d="M57.4018,69.6846C57.4348,71.7626 59.2468,73.4186 61.4548,73.3876C63.6618,73.3546 65.4248,71.6416 65.3918,69.5636C65.3608,67.4836 63.5468,65.8276 61.3398,65.8606C59.1328,65.8936 57.3708,67.6046 57.4018,69.6846" style="fill:white;fill-rule:nonzero;"/>
            </g>
            <g>
                <path d="M7.3433,61.3975C7.3733,63.3405 8.9753,64.8955 10.9213,64.8665C12.8673,64.8355 14.4193,63.2335 14.3903,61.2885C14.3603,59.3425 12.7603,57.7905 10.8123,57.8195C8.8673,57.8485 7.3143,59.4505 7.3433,61.3975" style="fill:white;fill-rule:nonzero;"/>
            </g>
            <g>
                <path d="M38.4609,78.1163C38.4609,78.1163 41.7259,89.1713 41.7679,91.9483C41.8109,94.7233 36.9509,98.1083 37.3019,93.1903C37.6549,88.2723 33.2199,77.5533 33.2199,77.5533L38.4609,78.1163Z" style="fill:white;fill-rule:nonzero;"/>
            </g>
            <g>
                <path d="M36.8418,76.9659C36.8418,76.9659 35.3028,81.1539 31.5678,81.3179C27.8328,81.4799 26.2858,78.0869 26.2858,78.0869L26.4548,75.2019L36.8418,76.9659Z" style="fill:white;fill-rule:nonzero;"/>
            </g>
            <g>
                <path d="M41.7681,91.9483C41.7681,91.9483 43.8881,90.9543 46.2521,91.8803C48.6161,92.8033 48.6731,96.5403 48.5811,97.5053C48.4871,98.4663 45.2891,98.7273 43.1531,98.7613C41.0181,98.7943 36.2011,98.0123 35.2331,97.4933C34.2631,96.9733 34.7441,93.4423 36.0161,92.8893C37.2891,92.3373 41.7681,91.9483 41.7681,91.9483" style="fill:white;fill-rule:nonzero;"/>
            </g>
            <g>
                <path d="M30.7168,81.542C30.7168,81.542 31.4918,83.349 30.4488,84.964C29.4048,86.583 26.3128,86.843 24.1698,86.343C22.0258,85.841 22.0028,77.298 22.0858,75.696C22.1678,74.093 25.6938,74.251 25.6938,74.251L30.7168,81.542Z" style="fill:white;fill-rule:nonzero;"/>
            </g>
            <g>
                <path d="M31.6763,39.3467C31.7183,42.1197 34.3343,44.3267 37.5193,44.2787C40.7013,44.2297 43.2483,41.9427 43.2063,39.1707C43.1643,36.4017 40.5483,34.1927 37.3653,34.2417C34.1823,34.2897 31.6323,36.5767 31.6763,39.3467" style="fill:rgb(255,129,0);fill-rule:nonzero;"/>
            </g>
            <g>
                <path d="M49.6142,39.0186C49.9782,41.7026 51.2652,43.7456 52.4932,43.5796C53.7212,43.4146 54.4212,41.1046 54.0592,38.4166C53.6962,35.7296 52.4062,33.6866 51.1802,33.8546C49.9522,34.0186 49.2512,36.3306 49.6142,39.0186" style="fill:rgb(255,129,0);fill-rule:nonzero;"/>
            </g>
            <g>
                <path d="M49.1118,47.3135C49.4668,47.6925 49.0638,48.6615 48.8548,48.9915C48.5108,49.5305 47.9958,49.9975 47.4728,50.3425C45.0738,51.9425 42.1718,50.7885 40.6838,48.3765C40.0698,47.3835 40.6018,46.1595 41.8068,47.3835C42.5928,48.1845 43.3108,49.1225 44.4538,49.3155C45.2738,49.4565 46.1168,49.2315 46.8158,48.7765C47.4238,48.3765 47.8458,47.4915 48.4848,47.2065C48.7258,47.0965 48.9618,47.1535 49.1118,47.3135" style="fill:rgb(255,129,0);fill-rule:nonzero;"/>
            </g>
            <g>
                <path d="M33.2231,35.7647C33.2231,35.7647 32.0801,34.3757 31.4921,34.2237C30.9011,34.0737 31.2181,34.9427 31.2181,34.9427L32.8151,37.0517" style="fill:rgb(255,129,0);fill-rule:nonzero;"/>
            </g>
            <g>
                <path d="M52.9375,35.4483C52.9375,35.4483 54.2305,34.2003 54.3335,33.6003C54.4385,32.9993 53.5985,33.3843 53.5985,33.3843L51.6225,35.1473" style="fill:rgb(255,129,0);fill-rule:nonzero;"/>
            </g>
        </g>
    </g>
</svg>
