<?xml version="1.0" standalone="no"?>
<!DOCTYPE svg PUBLIC "-//W3C//DTD SVG 1.1//EN" "http://www.w3.org/Graphics/SVG/1.1/DTD/svg11.dtd">
<svg width="93px" height="71px" version="1.1" xmlns="http://www.w3.org/2000/svg" xmlns:xlink="http://www.w3.org/1999/xlink" xml:space="preserve" style="fill-rule:evenodd;clip-rule:evenodd;stroke-linejoin:round;stroke-miterlimit:1.41421;">
    <g>
        <g id="switch">
            <g>
                <path d="M91.667,45.131C91.667,61.002 78.8,70.037 62.929,70.037L30.239,70.037C14.367,70.037 1.5,61.002 1.5,45.131L1.5,25.412C1.5,9.54 14.367,1.463 30.239,1.463L62.929,1.463C78.8,1.463 91.667,9.54 91.667,25.412L91.667,45.131Z" style="fill:rgb(255,129,0);fill-rule:nonzero;"/>
            </g>
            <g>
                <path d="M25.4302,28.2189L37.6422,28.2189L37.6422,30.7869L28.2602,30.7869L28.2602,34.4299L36.6472,34.4299L36.6472,36.9729L28.2602,36.9729L28.2602,41.4019L38.0092,41.4019L38.0092,43.9439L25.4302,43.9439L25.4302,28.2189Z" style="fill:white;fill-rule:nonzero;"/>
            </g>
            <g>
                <path d="M54.3091,28.2189L54.3091,43.9439L51.7151,43.9439L42.4641,32.6489L42.4641,43.9439L39.7121,43.9439L39.7121,28.2189L42.3071,28.2189L51.6101,39.5409L51.6101,28.2189L54.3091,28.2189Z" style="fill:white;fill-rule:nonzero;"/>
            </g>
            <g>
                <path d="M70.5835,43.7863L68.7235,44.1273L68.4355,43.1053C67.8225,43.4723 67.1775,43.7523 66.4955,43.9433C65.8135,44.1353 65.0365,44.2313 64.1625,44.2313C62.7825,44.2313 61.5465,43.9863 60.4545,43.4983C59.3625,43.0093 58.4495,42.3283 57.7165,41.4533C57.1395,40.7723 56.6815,39.9693 56.3405,39.0433C55.9995,38.1173 55.8295,37.1213 55.8295,36.0553C55.8295,34.9203 56.0385,33.8533 56.4585,32.8573C56.8775,31.8613 57.4715,30.9973 58.2395,30.2643C58.9905,29.5293 59.8735,28.9573 60.8875,28.5473C61.8995,28.1373 63.0105,27.9323 64.2155,27.9323C65.5255,27.9323 66.6795,28.1323 67.6745,28.5333C68.6705,28.9353 69.6315,29.5993 70.5575,30.5253L68.6965,32.3873C68.0155,31.7053 67.3345,31.2203 66.6525,30.9323C65.9715,30.6433 65.1585,30.4993 64.2155,30.4993C63.4295,30.4993 62.6955,30.6433 62.0145,30.9323C61.3325,31.2203 60.7295,31.6263 60.2055,32.1503C59.7335,32.6223 59.3625,33.1943 59.0925,33.8673C58.8205,34.5393 58.6865,35.2693 58.6865,36.0553C58.6865,36.9113 58.8295,37.6843 59.1175,38.3753C59.4065,39.0643 59.8035,39.6543 60.3115,40.1433C60.8165,40.6333 61.3945,41.0083 62.0405,41.2693C62.6865,41.5323 63.3945,41.6643 64.1625,41.6643C64.8965,41.6643 65.5645,41.5673 66.1675,41.3753C66.7705,41.1833 67.3155,40.9303 67.8065,40.6153L67.8065,37.3653L63.7705,37.1563L63.7705,34.7973L70.5835,34.7973L70.5835,43.7863Z" style="fill:white;fill-rule:nonzero;"/>
            </g>
        </g>
    </g>
</svg>
