<?xml version="1.0" standalone="no"?>
<!DOCTYPE svg PUBLIC "-//W3C//DTD SVG 1.1//EN" "http://www.w3.org/Graphics/SVG/1.1/DTD/svg11.dtd">
<svg width="166px" height="71px" version="1.1" xmlns="http://www.w3.org/2000/svg" xmlns:xlink="http://www.w3.org/1999/xlink" xml:space="preserve" style="fill-rule:evenodd;clip-rule:evenodd;stroke-linejoin:round;stroke-miterlimit:1.41421;">
    <g>
        <g id="switch background">
            <g>
                <path d="M166.5,45.585C166.5,62.153 153.068,71.585 136.5,71.585L30,71.585C13.432,71.585 0,62.153 0,45.585L0,25C0,8.432 13.432,0 30,0L136.5,0C153.068,0 166.5,8.432 166.5,25L166.5,45.585Z" style="fill:white;fill-rule:nonzero;"/>
            </g>
            <g>
                <path d="M29.0737,38.19C29.2827,38.714 29.5707,39.16 29.9377,39.526C30.7067,40.331 31.7027,40.732 32.9257,40.732C33.5027,40.732 34.0347,40.632 34.5237,40.431C35.0127,40.23 35.4417,39.946 35.8077,39.579C36.6297,38.811 37.0407,37.762 37.0407,36.434C37.0407,35.771 36.9347,35.168 36.7257,34.626C36.5157,34.085 36.2107,33.63 35.8077,33.263C35.4417,32.914 35.0097,32.639 34.5117,32.438C34.0127,32.237 33.4847,32.136 32.9257,32.136C32.3317,32.136 31.7767,32.241 31.2617,32.451C30.7457,32.66 30.2967,32.966 29.9117,33.368C29.5617,33.718 29.2827,34.154 29.0737,34.678C28.8637,35.202 28.7597,35.788 28.7597,36.434C28.7597,37.081 28.8637,37.666 29.0737,38.19M35.7427,30.197C36.6077,30.564 37.3447,31.062 37.9577,31.69C38.5687,32.302 39.0407,33.014 39.3727,33.827C39.7047,34.639 39.8707,35.508 39.8707,36.434C39.8707,37.377 39.6957,38.273 39.3457,39.12C38.9967,39.968 38.4897,40.706 37.8267,41.335C37.2147,41.929 36.4937,42.392 35.6647,42.724C34.8347,43.056 33.9217,43.222 32.9257,43.222C31.9127,43.222 30.9767,43.047 30.1217,42.698C29.2647,42.348 28.5317,41.868 27.9207,41.256C27.3077,40.645 26.8277,39.924 26.4787,39.094C26.1297,38.265 25.9547,37.377 25.9547,36.434C25.9547,35.474 26.1417,34.565 26.5177,33.709C26.8937,32.853 27.4137,32.11 28.0777,31.481C28.6887,30.904 29.4007,30.455 30.2137,30.131C31.0257,29.808 31.9297,29.647 32.9257,29.647C33.9387,29.647 34.8787,29.83 35.7427,30.197" style="fill:rgb(255,129,0);fill-rule:nonzero;"/>
            </g>
            <g>
                <path d="M53.7075,29.8824L53.7075,42.9864L51.1655,42.9864L44.0635,34.3904L44.0635,42.9864L41.3115,42.9864L41.3115,29.8824L43.8535,29.8824L50.9815,38.4524L50.9815,29.8824L53.7075,29.8824Z" style="fill:rgb(255,129,0);fill-rule:nonzero;"/>
            </g>
            <g>
                <path d="M110.005,38.1475C110.214,38.6715 110.502,39.1175 110.869,39.4845C111.638,40.2885 112.634,40.6895 113.857,40.6895C114.434,40.6895 114.966,40.5895 115.455,40.3885C115.944,40.1875 116.373,39.9035 116.739,39.5375C117.561,38.7675 117.972,37.7195 117.972,36.3915C117.972,35.7285 117.866,35.1255 117.657,34.5845C117.447,34.0425 117.142,33.5875 116.739,33.2205C116.373,32.8715 115.941,32.5955 115.443,32.3945C114.944,32.1945 114.416,32.0935 113.857,32.0935C113.263,32.0935 112.708,32.1995 112.193,32.4085C111.677,32.6175 111.228,32.9235 110.843,33.3255C110.493,33.6755 110.214,34.1115 110.005,34.6355C109.795,35.1605 109.691,35.7465 109.691,36.3915C109.691,37.0385 109.795,37.6235 110.005,38.1475M116.674,30.1545C117.539,30.5215 118.276,31.0195 118.889,31.6485C119.5,32.2595 119.972,32.9715 120.304,33.7845C120.636,34.5965 120.802,35.4655 120.802,36.3915C120.802,37.3345 120.627,38.2305 120.277,39.0785C119.928,39.9255 119.421,40.6645 118.758,41.2935C118.146,41.8865 117.425,42.3495 116.596,42.6815C115.766,43.0135 114.853,43.1795 113.857,43.1795C112.844,43.1795 111.908,43.0035 111.053,42.6555C110.196,42.3055 109.463,41.8265 108.852,41.2135C108.239,40.6025 107.759,39.8815 107.41,39.0515C107.061,38.2225 106.886,37.3345 106.886,36.3915C106.886,35.4315 107.073,34.5225 107.449,33.6665C107.825,32.8105 108.345,32.0675 109.009,31.4385C109.62,30.8615 110.332,30.4125 111.145,30.0885C111.957,29.7655 112.861,29.6035 113.857,29.6035C114.87,29.6035 115.81,29.7875 116.674,30.1545" style="fill:rgb(255,129,0);fill-rule:nonzero;"/>
            </g>
            <g>
                <path d="M132.385,29.8399L132.385,32.3559L125.047,32.3559L125.047,35.3179L131.572,35.3179L131.572,37.8069L125.047,37.8069L125.047,42.9439L122.243,42.9439L122.243,29.8399L132.385,29.8399Z" style="fill:rgb(255,129,0);fill-rule:nonzero;"/>
            </g>
            <g>
                <path d="M143.968,29.8399L143.968,32.3559L136.63,32.3559L136.63,35.3179L143.155,35.3179L143.155,37.8069L136.63,37.8069L136.63,42.9439L133.826,42.9439L133.826,29.8399L143.968,29.8399Z" style="fill:rgb(255,129,0);fill-rule:nonzero;"/>
            </g>
        </g>
    </g>
</svg>
