<?xml version="1.0" standalone="no"?>
<!DOCTYPE svg PUBLIC "-//W3C//DTD SVG 1.1//EN" "http://www.w3.org/Graphics/SVG/1.1/DTD/svg11.dtd">
<svg width="487px" height="51px" version="1.1" xmlns="http://www.w3.org/2000/svg" xmlns:xlink="http://www.w3.org/1999/xlink" xml:space="preserve" style="fill-rule:evenodd;clip-rule:evenodd;stroke-linejoin:round;stroke-miterlimit:1.41421;">
    <g>
        <g id="contents and glossary">
            <g>
                <g>
                    <path d="M27.513,37.7279C25.646,38.6619 22.076,39.5949 17.518,39.5949C8.567,39.5949 0,33.8839 0,20.7589C0,9.7749 7.084,1.4829 18.782,1.4829C23.504,1.4829 26.25,2.5259 27.348,3.0759L26.525,5.2719C24.658,4.3389 21.967,3.6799 18.836,3.6799C8.842,3.6799 2.746,10.1599 2.746,20.8129C2.746,30.8629 8.457,37.3429 18.397,37.3429C21.527,37.3429 24.602,36.6849 26.744,35.6409L27.513,37.7279Z" style="fill:rgb(255,129,0);fill-rule:nonzero;"/>
                </g>
                <g>
                    <path d="M43.7689,37.453C49.2609,37.453 53.5989,32.511 53.5989,25.756C53.5989,20.923 50.9079,14.279 43.9339,14.279C37.1789,14.279 34.1589,20.265 34.1589,25.921C34.1589,32.511 38.3319,37.453 43.7139,37.453L43.7689,37.453ZM43.6039,39.65C36.7939,39.65 31.5219,34.323 31.5219,26.085C31.5219,17.079 37.4539,12.082 43.9889,12.082C51.2919,12.082 56.2349,17.574 56.2349,25.646C56.2349,35.421 49.4799,39.65 43.6589,39.65L43.6039,39.65Z" style="fill:rgb(255,129,0);fill-rule:nonzero;"/>
                </g>
                <g>
                    <path d="M62.9349,19.0013C62.9349,16.5843 62.8799,14.7723 62.7149,12.6863L65.1859,12.6863L65.3519,17.4083L65.4609,17.4083C66.8889,14.4433 70.2389,12.0823 74.5219,12.0823C77.0479,12.0823 83.7479,13.3453 83.7479,23.2303L83.7479,39.0453L81.1119,39.0453L81.1119,23.4493C81.1119,18.6173 79.2449,14.2783 73.8089,14.2783C70.1289,14.2783 66.9439,16.9143 65.8999,20.3743C65.7359,20.9783 65.5709,21.8563 65.5709,22.6803L65.5709,39.0453L62.9349,39.0453L62.9349,19.0013Z" style="fill:rgb(255,129,0);fill-rule:nonzero;"/>
                </g>
                <g>
                    <path d="M95.9949,6.8646L95.9949,12.6856L103.518,12.6856L103.518,14.8276L95.9949,14.8276L95.9949,31.9616C95.9949,35.3116 97.0379,37.3986 99.8389,37.3986C101.212,37.3986 102.201,37.2336 102.86,37.0136L103.189,38.9906C102.31,39.3206 101.102,39.5946 99.5099,39.5946C97.5869,39.5946 95.9949,38.9906 95.0059,37.7826C93.7979,36.4096 93.3589,34.1576 93.3589,31.4676L93.3589,14.8276L88.9109,14.8276L88.9109,12.6856L93.3589,12.6856L93.3589,7.8536L95.9949,6.8646Z" style="fill:rgb(255,129,0);fill-rule:nonzero;"/>
                </g>
                <g>
                    <path d="M126.529,23.5043C126.584,19.8253 125.046,14.2783 118.676,14.2783C112.855,14.2783 110.383,19.4413 109.889,23.5043L126.529,23.5043ZM109.724,25.5913C109.724,33.9933 114.338,37.3433 119.774,37.3433C123.618,37.3433 125.595,36.5743 127.078,35.8603L127.737,37.8923C126.749,38.4423 124.058,39.5953 119.445,39.5953C111.866,39.5953 107.143,34.1033 107.143,26.3603C107.143,17.5733 112.196,12.0823 119.005,12.0823C127.627,12.0823 129.275,20.2093 129.275,23.9993C129.275,24.7123 129.275,25.0973 129.165,25.5913L109.724,25.5913Z" style="fill:rgb(255,129,0);fill-rule:nonzero;"/>
                </g>
                <g>
                    <path d="M135.974,19.0013C135.974,16.5843 135.919,14.7723 135.754,12.6863L138.225,12.6863L138.391,17.4083L138.5,17.4083C139.928,14.4433 143.278,12.0823 147.561,12.0823C150.087,12.0823 156.787,13.3453 156.787,23.2303L156.787,39.0453L154.151,39.0453L154.151,23.4493C154.151,18.6173 152.284,14.2783 146.848,14.2783C143.168,14.2783 139.983,16.9143 138.939,20.3743C138.775,20.9783 138.61,21.8563 138.61,22.6803L138.61,39.0453L135.974,39.0453L135.974,19.0013Z" style="fill:rgb(255,129,0);fill-rule:nonzero;"/>
                </g>
                <g>
                    <path d="M169.034,6.8646L169.034,12.6856L176.557,12.6856L176.557,14.8276L169.034,14.8276L169.034,31.9616C169.034,35.3116 170.077,37.3986 172.878,37.3986C174.251,37.3986 175.24,37.2336 175.899,37.0136L176.228,38.9906C175.349,39.3206 174.141,39.5946 172.549,39.5946C170.626,39.5946 169.034,38.9906 168.045,37.7826C166.837,36.4096 166.398,34.1576 166.398,31.4676L166.398,14.8276L161.95,14.8276L161.95,12.6856L166.398,12.6856L166.398,7.8536L169.034,6.8646Z" style="fill:rgb(255,129,0);fill-rule:nonzero;"/>
                </g>
                <g>
                    <path d="M181.281,35.5858C182.709,36.4648 184.85,37.3988 187.212,37.3988C191.385,37.3988 193.363,35.1468 193.363,32.4008C193.363,29.4898 191.605,27.9528 187.816,26.4148C183.477,24.7678 181.116,22.4058 181.116,19.2208C181.116,15.3768 184.136,12.0818 189.244,12.0818C191.66,12.0818 193.747,12.7958 195.065,13.7298L194.076,15.8708C193.143,15.2118 191.44,14.2788 188.804,14.2788C185.454,14.2788 183.697,16.4198 183.697,18.8368C183.697,21.5828 185.564,22.7358 189.134,24.2178C193.417,25.9208 195.944,28.0628 195.944,32.0708C195.944,36.5748 192.429,39.5948 187.047,39.5948C184.521,39.5948 182.105,38.8808 180.347,37.7828L181.281,35.5858Z" style="fill:rgb(255,129,0);fill-rule:nonzero;"/>
                </g>
                <g>
                    <path d="M228.673,24.9325C222.906,24.7675 215.328,25.6465 215.328,31.9615C215.328,35.7505 217.854,37.4535 220.6,37.4535C224.993,37.4535 227.52,34.7625 228.398,32.1815C228.618,31.6325 228.673,31.0285 228.673,30.5885L228.673,24.9325ZM231.309,32.7855C231.309,34.8715 231.364,37.0145 231.693,39.0455L229.277,39.0455L228.893,35.2565L228.783,35.2565C227.465,37.2885 224.554,39.6495 220.325,39.6495C214.999,39.6495 212.582,35.9155 212.582,32.4005C212.582,26.3055 217.909,22.6255 228.673,22.7355L228.673,22.0215C228.673,19.4405 228.178,14.2235 221.918,14.2785C219.611,14.2785 217.195,14.8825 215.273,16.2555L214.449,14.3335C216.866,12.7405 219.831,12.0815 222.193,12.0815C229.826,12.0815 231.309,17.7935 231.309,22.4605L231.309,32.7855Z" style="fill:rgb(255,129,0);fill-rule:nonzero;"/>
                </g>
                <g>
                    <path d="M239.821,19.0013C239.821,16.5843 239.766,14.7723 239.601,12.6863L242.072,12.6863L242.238,17.4083L242.347,17.4083C243.775,14.4433 247.125,12.0823 251.408,12.0823C253.934,12.0823 260.634,13.3453 260.634,23.2303L260.634,39.0453L257.998,39.0453L257.998,23.4493C257.998,18.6173 256.131,14.2783 250.695,14.2783C247.015,14.2783 243.83,16.9143 242.786,20.3743C242.622,20.9783 242.457,21.8563 242.457,22.6803L242.457,39.0453L239.821,39.0453L239.821,19.0013Z" style="fill:rgb(255,129,0);fill-rule:nonzero;"/>
                </g>
                <g>
                    <path d="M287.654,23.12C287.654,22.406 287.599,21.473 287.38,20.703C286.501,17.189 283.37,14.279 279.087,14.279C273.321,14.279 269.696,19.276 269.696,26.085C269.696,32.016 272.662,37.453 278.922,37.453C282.712,37.453 286.281,34.927 287.38,30.589C287.599,29.93 287.654,29.216 287.654,28.392L287.654,23.12ZM290.29,1.27898e-13L290.29,32.95C290.29,34.872 290.345,37.179 290.509,39.046L288.148,39.046L287.928,34.048L287.819,34.048C286.446,36.959 283.316,39.65 278.428,39.65C271.893,39.65 267.06,34.213 267.06,26.36C267.006,17.574 272.442,12.082 278.922,12.082C283.48,12.082 286.391,14.443 287.544,16.75L287.654,16.75L287.654,1.27898e-13L290.29,1.27898e-13Z" style="fill:rgb(255,129,0);fill-rule:nonzero;"/>
                </g>
                <g>
                    <path d="M337.738,37.453C335.871,38.222 331.972,39.43 326.92,39.43C322.032,39.43 317.584,38.222 313.849,34.598C310.774,31.632 308.742,26.635 308.742,20.649C308.742,10.379 315.497,1.648 328.072,1.648C332.027,1.648 335.267,2.581 336.695,3.295L335.816,5.437C333.894,4.503 331.477,3.845 327.908,3.845C317.748,3.845 311.488,10.489 311.488,20.539C311.488,30.973 317.584,37.234 327.359,37.234C331.258,37.234 333.729,36.684 335.102,35.915L335.102,22.846L326.535,22.846L326.535,20.703L337.738,20.703L337.738,37.453Z" style="fill:rgb(255,129,0);fill-rule:nonzero;"/>
                </g>
                <g>
                    <rect x="345.427" y="1.42109e-14" width="2.636" height="39.045" style="fill:rgb(255,129,0);fill-rule:nonzero;"/>
                </g>
                <g>
                    <path d="M367.118,37.453C372.61,37.453 376.948,32.511 376.948,25.756C376.948,20.923 374.257,14.279 367.283,14.279C360.528,14.279 357.508,20.265 357.508,25.921C357.508,32.511 361.681,37.453 367.063,37.453L367.118,37.453ZM366.953,39.65C360.143,39.65 354.871,34.323 354.871,26.085C354.871,17.079 360.803,12.082 367.338,12.082C374.641,12.082 379.584,17.574 379.584,25.646C379.584,35.421 372.829,39.65 367.008,39.65L366.953,39.65Z" style="fill:rgb(255,129,0);fill-rule:nonzero;"/>
                </g>
                <g>
                    <path d="M385.186,35.5858C386.614,36.4648 388.755,37.3988 391.117,37.3988C395.29,37.3988 397.268,35.1468 397.268,32.4008C397.268,29.4898 395.51,27.9528 391.721,26.4148C387.382,24.7678 385.021,22.4058 385.021,19.2208C385.021,15.3768 388.041,12.0818 393.149,12.0818C395.565,12.0818 397.652,12.7958 398.97,13.7298L397.981,15.8708C397.048,15.2118 395.345,14.2788 392.709,14.2788C389.359,14.2788 387.602,16.4198 387.602,18.8368C387.602,21.5828 389.469,22.7358 393.039,24.2178C397.322,25.9208 399.849,28.0628 399.849,32.0708C399.849,36.5748 396.334,39.5948 390.952,39.5948C388.426,39.5948 386.01,38.8808 384.252,37.7828L385.186,35.5858Z" style="fill:rgb(255,129,0);fill-rule:nonzero;"/>
                </g>
                <g>
                    <path d="M405.669,35.5858C407.097,36.4648 409.238,37.3988 411.6,37.3988C415.773,37.3988 417.751,35.1468 417.751,32.4008C417.751,29.4898 415.993,27.9528 412.204,26.4148C407.865,24.7678 405.504,22.4058 405.504,19.2208C405.504,15.3768 408.524,12.0818 413.632,12.0818C416.048,12.0818 418.135,12.7958 419.453,13.7298L418.464,15.8708C417.531,15.2118 415.828,14.2788 413.192,14.2788C409.842,14.2788 408.085,16.4198 408.085,18.8368C408.085,21.5828 409.952,22.7358 413.522,24.2178C417.805,25.9208 420.332,28.0628 420.332,32.0708C420.332,36.5748 416.817,39.5948 411.435,39.5948C408.909,39.5948 406.493,38.8808 404.735,37.7828L405.669,35.5858Z" style="fill:rgb(255,129,0);fill-rule:nonzero;"/>
                </g>
                <g>
                    <path d="M441.035,24.9325C435.268,24.7675 427.69,25.6465 427.69,31.9615C427.69,35.7505 430.216,37.4535 432.962,37.4535C437.355,37.4535 439.882,34.7625 440.76,32.1815C440.98,31.6325 441.035,31.0285 441.035,30.5885L441.035,24.9325ZM443.671,32.7855C443.671,34.8715 443.726,37.0145 444.055,39.0455L441.639,39.0455L441.254,35.2565L441.145,35.2565C439.827,37.2885 436.916,39.6495 432.687,39.6495C427.361,39.6495 424.944,35.9155 424.944,32.4005C424.944,26.3055 430.271,22.6255 441.035,22.7355L441.035,22.0215C441.035,19.4405 440.54,14.2235 434.28,14.2785C431.973,14.2785 429.557,14.8825 427.635,16.2555L426.811,14.3335C429.228,12.7405 432.193,12.0815 434.555,12.0815C442.188,12.0815 443.671,17.7935 443.671,22.4605L443.671,32.7855Z" style="fill:rgb(255,129,0);fill-rule:nonzero;"/>
                </g>
                <g>
                    <path d="M452.128,20.5936C452.128,17.9576 452.073,15.2666 451.908,12.6856L454.324,12.6856L454.434,18.0126L454.599,18.0126C455.752,14.6626 458.498,12.0816 462.067,12.0816C462.452,12.0816 462.836,12.1366 463.166,12.1916L463.166,14.6626C462.781,14.6076 462.397,14.6076 461.903,14.6076C458.278,14.6076 455.697,17.7386 454.983,21.9666C454.818,22.7356 454.764,23.6146 454.764,24.4926L454.764,39.0456L452.128,39.0456L452.128,20.5936Z" style="fill:rgb(255,129,0);fill-rule:nonzero;"/>
                </g>
                <g>
                    <path d="M467.34,12.6859L474.259,29.9299C474.973,31.7969 475.687,33.9379 476.182,35.5859L476.291,35.5859C476.84,33.9939 477.5,31.9069 478.323,29.7649L484.749,12.6859L487.549,12.6859L479.641,32.3459C476.456,40.5289 474.205,45.4159 470.745,48.4359C468.658,50.1939 466.736,50.9629 466.132,51.1829L465.308,48.9859C466.626,48.4919 468.328,47.5579 469.921,46.0749C471.239,44.7569 472.996,42.5609 474.315,39.4299C474.534,38.8809 474.644,38.5519 474.644,38.2769C474.644,38.0579 474.534,37.6729 474.315,37.1239L464.539,12.6859L467.34,12.6859Z" style="fill:rgb(255,129,0);fill-rule:nonzero;"/>
                </g>
            </g>
        </g>
    </g>
</svg>
