<?xml version="1.0" standalone="no"?>
<!DOCTYPE svg PUBLIC "-//W3C//DTD SVG 1.1//EN" "http://www.w3.org/Graphics/SVG/1.1/DTD/svg11.dtd">
<svg width="609px" height="98px" version="1.1" xmlns="http://www.w3.org/2000/svg" xmlns:xlink="http://www.w3.org/1999/xlink" xml:space="preserve" style="fill-rule:evenodd;clip-rule:evenodd;stroke-miterlimit:10;">
    <g>
        <g id="tutorial">
            <g>
                <path d="M609,68C609,84.568 595.569,98 579,98L30,98C13.432,98 0,84.568 0,68L0,30C0,13.432 13.432,0 30,0L579,0C595.569,0 609,13.432 609,30L609,68Z" style="fill:rgb(255,129,0);"/>
            </g>
            <g>
                <path d="M236.495,30.7598L224.413,30.7598L224.413,28.5638L251.213,28.5638L251.213,30.7598L239.131,30.7598L239.131,65.5768L236.495,65.5768L236.495,30.7598Z" style="fill:white;fill-rule:nonzero;"/>
            </g>
            <g>
                <path d="M275.321,59.1514C275.321,61.4584 275.376,63.5454 275.541,65.5774L273.07,65.5774L272.905,60.8544L272.795,60.8544C271.477,63.3254 268.457,66.1804 263.789,66.1804C260.439,66.1804 254.782,64.4784 254.782,54.5384L254.782,39.2164L257.419,39.2164L257.419,54.0444C257.419,59.7554 259.176,63.8744 264.393,63.8744C268.237,63.8744 271.038,61.1824 272.191,58.5474C272.466,57.7234 272.685,56.6804 272.685,55.6364L272.685,39.2164L275.321,39.2164L275.321,59.1514Z" style="fill:white;fill-rule:nonzero;"/>
            </g>
            <g>
                <path d="M287.787,33.3956L287.787,39.2166L295.31,39.2166L295.31,41.3586L287.787,41.3586L287.787,58.4936C287.787,61.8426 288.83,63.9286 291.631,63.9286C293.004,63.9286 293.993,63.7646 294.651,63.5446L294.981,65.5226C294.102,65.8506 292.894,66.1256 291.302,66.1256C289.38,66.1256 287.787,65.5226 286.798,64.3136C285.59,62.9406 285.151,60.6886 285.151,57.9986L285.151,41.3586L280.703,41.3586L280.703,39.2166L285.151,39.2166L285.151,34.3836L287.787,33.3956Z" style="fill:white;fill-rule:nonzero;"/>
            </g>
            <g>
                <path d="M311.182,63.9834C316.674,63.9834 321.012,59.0424 321.012,52.2874C321.012,47.4544 318.321,40.8094 311.347,40.8094C304.592,40.8094 301.572,46.7954 301.572,52.4524C301.572,59.0424 305.745,63.9834 311.127,63.9834L311.182,63.9834ZM311.017,66.1804C304.207,66.1804 298.935,60.8544 298.935,52.6164C298.935,43.6104 304.867,38.6124 311.402,38.6124C318.705,38.6124 323.648,44.1044 323.648,52.1764C323.648,61.9524 316.893,66.1804 311.072,66.1804L311.017,66.1804Z" style="fill:white;fill-rule:nonzero;"/>
            </g>
            <g>
                <path d="M330.293,47.1241C330.293,44.4891 330.238,41.7981 330.073,39.2171L332.489,39.2171L332.599,44.5441L332.764,44.5441C333.917,41.1941 336.663,38.6121 340.232,38.6121C340.617,38.6121 341.001,38.6671 341.331,38.7231L341.331,41.1941C340.946,41.1391 340.562,41.1391 340.068,41.1391C336.443,41.1391 333.862,44.2691 333.148,48.4971C332.983,49.2671 332.929,50.1451 332.929,51.0241L332.929,65.5771L330.293,65.5771L330.293,47.1241Z" style="fill:white;fill-rule:nonzero;"/>
            </g>
            <g>
                <path d="M346.549,39.2169L349.185,39.2169L349.185,65.5769L346.549,65.5769L346.549,39.2169ZM347.757,33.9439C346.549,33.9439 345.725,32.9019 345.725,31.6939C345.725,30.4849 346.658,29.3869 347.866,29.3869C349.075,29.3869 349.953,30.4309 349.953,31.6939C349.953,32.9019 349.13,33.9439 347.812,33.9439L347.757,33.9439Z" style="fill:white;fill-rule:nonzero;"/>
            </g>
            <g>
                <path d="M371.81,51.4639C366.043,51.2979 358.465,52.1769 358.465,58.4929C358.465,62.2819 360.991,63.9839 363.737,63.9839C368.13,63.9839 370.657,61.2929 371.535,58.7119C371.755,58.1629 371.81,57.5599 371.81,57.1199L371.81,51.4639ZM374.446,59.3169C374.446,61.4029 374.501,63.5449 374.83,65.5769L372.414,65.5769L372.029,61.7879L371.92,61.7879C370.602,63.8189 367.691,66.1809 363.462,66.1809C358.136,66.1809 355.719,62.4459 355.719,58.9319C355.719,52.8359 361.046,49.1569 371.81,49.2669L371.81,48.5529C371.81,45.9719 371.315,40.7549 365.055,40.8099C362.748,40.8099 360.332,41.4129 358.41,42.7859L357.586,40.8639C360.003,39.2719 362.968,38.6119 365.33,38.6119C372.963,38.6119 374.446,44.3239 374.446,48.9909L374.446,59.3169Z" style="fill:white;fill-rule:nonzero;"/>
            </g>
            <g>
                <rect x="382.958" y="26.5309" width="2.636" height="39.046" style="fill:white;fill-rule:nonzero;"/>
            </g>
            <g>
                <path d="M233.532,75.3116L233.532,80.3606L240.298,80.3606L240.298,75.3116L241.171,75.3116L241.171,86.7686L240.298,86.7686L240.298,81.0406L233.532,81.0406L233.532,86.7686L232.659,86.7686L232.659,75.3116L233.532,75.3116Z" style="fill:white;fill-rule:nonzero;"/>
            </g>
            <g>
                <path d="M247.448,86.2764C249.267,86.2764 250.704,84.7464 250.704,82.6554C250.704,81.1594 249.812,79.1024 247.503,79.1024C245.265,79.1024 244.265,80.9564 244.265,82.7064C244.265,84.7464 245.647,86.2764 247.43,86.2764L247.448,86.2764ZM247.393,86.9564C245.138,86.9564 243.392,85.3074 243.392,82.7564C243.392,79.9694 245.356,78.4224 247.521,78.4224C249.94,78.4224 251.577,80.1224 251.577,82.6224C251.577,85.6474 249.34,86.9564 247.412,86.9564L247.393,86.9564Z" style="fill:white;fill-rule:nonzero;"/>
            </g>
            <g>
                <path d="M253.633,78.6104L255.106,83.2514C255.397,84.2024 255.652,85.0184 255.852,85.7994L255.888,85.7994C256.107,85.0514 256.416,84.1844 256.761,83.2514L258.508,78.6104L259.326,78.6104L260.999,83.1994C261.363,84.2024 261.636,85.0354 261.854,85.7994L261.89,85.7994C262.072,85.0354 262.345,84.2194 262.691,83.2334L264.237,78.6104L265.128,78.6104L262.218,86.7684L261.472,86.7684L259.817,82.2144C259.453,81.2274 259.144,80.3604 258.908,79.4424L258.871,79.4424C258.617,80.3944 258.289,81.2964 257.925,82.2474L256.197,86.7684L255.434,86.7684L252.742,78.6104L253.633,78.6104Z" style="fill:white;fill-rule:nonzero;"/>
            </g>
            <g>
                <path d="M272.113,76.8077L272.113,78.6107L274.605,78.6107L274.605,79.2727L272.113,79.2727L272.113,84.5767C272.113,85.6137 272.458,86.2587 273.386,86.2587C273.841,86.2587 274.168,86.2077 274.386,86.1397L274.495,86.7517C274.204,86.8547 273.804,86.9387 273.277,86.9387C272.64,86.9387 272.113,86.7517 271.785,86.3777C271.385,85.9537 271.24,85.2567 271.24,84.4227L271.24,79.2727L269.767,79.2727L269.767,78.6107L271.24,78.6107L271.24,77.1147L272.113,76.8077Z" style="fill:white;fill-rule:nonzero;"/>
            </g>
            <g>
                <path d="M279.861,86.2764C281.68,86.2764 283.117,84.7464 283.117,82.6554C283.117,81.1594 282.225,79.1024 279.916,79.1024C277.678,79.1024 276.678,80.9564 276.678,82.7064C276.678,84.7464 278.06,86.2764 279.844,86.2764L279.861,86.2764ZM279.806,86.9564C277.551,86.9564 275.805,85.3074 275.805,82.7564C275.805,79.9694 277.769,78.4224 279.934,78.4224C282.353,78.4224 283.99,80.1224 283.99,82.6224C283.99,85.6474 281.753,86.9564 279.825,86.9564L279.806,86.9564Z" style="fill:white;fill-rule:nonzero;"/>
            </g>
            <g>
                <path d="M296.924,84.7803C296.924,85.4943 296.942,86.1393 296.997,86.7683L296.178,86.7683L296.124,85.3073L296.087,85.3073C295.651,86.0723 294.65,86.9563 293.104,86.9563C291.995,86.9563 290.121,86.4283 290.121,83.3523L290.121,78.6103L290.994,78.6103L290.994,83.1993C290.994,84.9683 291.576,86.2423 293.304,86.2423C294.578,86.2423 295.505,85.4093 295.887,84.5923C295.978,84.3393 296.051,84.0143 296.051,83.6923L296.051,78.6103L296.924,78.6103L296.924,84.7803Z" style="fill:white;fill-rule:nonzero;"/>
            </g>
            <g>
                <path d="M299.488,85.6983C299.962,85.9693 300.671,86.2593 301.452,86.2593C302.835,86.2593 303.489,85.5613 303.489,84.7123C303.489,83.8113 302.907,83.3353 301.654,82.8593C300.216,82.3493 299.433,81.6183 299.433,80.6333C299.433,79.4423 300.435,78.4233 302.126,78.4233C302.926,78.4233 303.618,78.6433 304.053,78.9323L303.726,79.5953C303.417,79.3913 302.853,79.1023 301.981,79.1023C300.87,79.1023 300.288,79.7653 300.288,80.5133C300.288,81.3643 300.907,81.7203 302.089,82.1793C303.508,82.7063 304.344,83.3703 304.344,84.6103C304.344,86.0043 303.18,86.9383 301.399,86.9383C300.561,86.9383 299.762,86.7183 299.179,86.3783L299.488,85.6983Z" style="fill:white;fill-rule:nonzero;"/>
            </g>
            <g>
                <path d="M312.33,81.9581C312.348,80.8191 311.839,79.1031 309.729,79.1031C307.801,79.1031 306.982,80.7001 306.819,81.9581L312.33,81.9581ZM306.764,82.6041C306.764,85.2051 308.292,86.2421 310.093,86.2421C311.366,86.2421 312.02,86.0041 312.512,85.7831L312.73,86.4121C312.402,86.5821 311.511,86.9381 309.983,86.9381C307.474,86.9381 305.909,85.2391 305.909,82.8431C305.909,80.1221 307.582,78.4231 309.838,78.4231C312.693,78.4231 313.239,80.9381 313.239,82.1111C313.239,82.3331 313.239,82.4521 313.203,82.6041L306.764,82.6041Z" style="fill:white;fill-rule:nonzero;"/>
            </g>
            <g>
                <path d="M320.643,76.8077L320.643,78.6107L323.135,78.6107L323.135,79.2727L320.643,79.2727L320.643,84.5767C320.643,85.6137 320.989,86.2587 321.916,86.2587C322.371,86.2587 322.698,86.2077 322.916,86.1397L323.026,86.7517C322.735,86.8547 322.334,86.9387 321.807,86.9387C321.17,86.9387 320.643,86.7517 320.315,86.3777C319.915,85.9537 319.77,85.2567 319.77,84.4227L319.77,79.2727L318.296,79.2727L318.296,78.6107L319.77,78.6107L319.77,77.1147L320.643,76.8077Z" style="fill:white;fill-rule:nonzero;"/>
            </g>
            <g>
                <path d="M325.063,74.6827L325.936,74.6827L325.936,80.0717L325.973,80.0717C326.227,79.6127 326.646,79.1887 327.155,78.8997C327.664,78.6107 328.264,78.4227 328.919,78.4227C329.738,78.4227 331.957,78.8137 331.957,81.8567L331.957,86.7687L331.084,86.7687L331.084,81.9417C331.084,80.4797 330.465,79.1367 328.683,79.1367C327.446,79.1367 326.427,79.9697 326.045,80.9727C325.955,81.2277 325.936,81.4487 325.936,81.7877L325.936,86.7687L325.063,86.7687L325.063,74.6827Z" style="fill:white;fill-rule:nonzero;"/>
            </g>
            <g>
                <path d="M340.505,81.9581C340.524,80.8191 340.014,79.1031 337.904,79.1031C335.976,79.1031 335.158,80.7001 334.994,81.9581L340.505,81.9581ZM334.94,82.6041C334.94,85.2051 336.467,86.2421 338.268,86.2421C339.541,86.2421 340.196,86.0041 340.687,85.7831L340.905,86.4121C340.578,86.5821 339.687,86.9381 338.159,86.9381C335.649,86.9381 334.085,85.2391 334.085,82.8431C334.085,80.1221 335.758,78.4231 338.013,78.4231C340.869,78.4231 341.415,80.9381 341.415,82.1111C341.415,82.3331 341.415,82.4521 341.378,82.6041L334.94,82.6041Z" style="fill:white;fill-rule:nonzero;"/>
            </g>
            <g>
                <path d="M348.472,83.6241C348.472,83.8121 348.49,84.0151 348.545,84.2201C348.927,85.4601 350.055,86.2761 351.419,86.2761C353.419,86.2761 354.565,84.7461 354.565,82.6221C354.565,80.7511 353.474,79.1031 351.491,79.1031C350.218,79.1031 348.999,79.9191 348.581,81.2781C348.527,81.4821 348.472,81.7041 348.472,81.9931L348.472,83.6241ZM347.599,74.6831L348.472,74.6831L348.472,80.1401L348.509,80.1401C349.091,79.0861 350.163,78.4231 351.71,78.4231C353.91,78.4231 355.438,80.1571 355.438,82.6041C355.438,85.5111 353.456,86.9561 351.546,86.9561C350.127,86.9561 349.109,86.4121 348.417,85.3081L348.381,85.3081L348.308,86.7691L347.526,86.7691C347.581,86.1901 347.599,85.4781 347.599,84.8651L347.599,74.6831Z" style="fill:white;fill-rule:nonzero;"/>
            </g>
            <g>
                <path d="M360.987,86.2764C362.805,86.2764 364.243,84.7464 364.243,82.6554C364.243,81.1594 363.351,79.1024 361.041,79.1024C358.804,79.1024 357.804,80.9564 357.804,82.7064C357.804,84.7464 359.185,86.2764 360.969,86.2764L360.987,86.2764ZM360.932,86.9564C358.677,86.9564 356.93,85.3074 356.93,82.7564C356.93,79.9694 358.895,78.4224 361.06,78.4224C363.478,78.4224 365.116,80.1224 365.116,82.6224C365.116,85.6474 362.879,86.9564 360.951,86.9564L360.932,86.9564Z" style="fill:white;fill-rule:nonzero;"/>
            </g>
            <g>
                <path d="M370.664,86.2764C372.483,86.2764 373.92,84.7464 373.92,82.6554C373.92,81.1594 373.029,79.1024 370.719,79.1024C368.481,79.1024 367.481,80.9564 367.481,82.7064C367.481,84.7464 368.863,86.2764 370.646,86.2764L370.664,86.2764ZM370.609,86.9564C368.354,86.9564 366.608,85.3074 366.608,82.7564C366.608,79.9694 368.572,78.4224 370.737,78.4224C373.156,78.4224 374.793,80.1224 374.793,82.6224C374.793,85.6474 372.556,86.9564 370.627,86.9564L370.609,86.9564Z" style="fill:white;fill-rule:nonzero;"/>
            </g>
            <g>
                <path d="M377.867,82.5362L377.903,82.5362C378.122,82.2822 378.467,81.9072 378.74,81.6362L381.832,78.6102L382.887,78.6102L379.358,81.9932L383.378,86.7682L382.323,86.7682L378.758,82.4852L377.867,83.3702L377.867,86.7682L376.994,86.7682L376.994,74.6822L377.867,74.6822L377.867,82.5362Z" style="fill:white;fill-rule:nonzero;"/>
            </g>
            <g>
                <path d="M44.9177,52.7764C45.2227,51.8044 53.4047,44.4704 59.8237,43.6244C62.0037,44.5654 62.0647,45.6274 61.2587,47.1594C55.9147,47.3354 47.9717,55.0004 47.9717,55.0004C47.9717,55.0004 44.6137,53.7494 44.9177,52.7764" style="fill:white;fill-rule:nonzero;"/>
            </g>
            <g>
                <path d="M61.1271,47.751C62.6981,48.577 64.6821,47.896 65.5591,46.228C66.4361,44.562 65.8731,42.54 64.3031,41.715C62.7321,40.889 60.7481,41.571 59.8711,43.237C58.9961,44.904 59.5571,46.925 61.1271,47.751" style="fill:white;fill-rule:nonzero;"/>
            </g>
            <g>
                <path d="M49.8635,32.8487C49.8635,32.6647 54.6035,58.8237 54.6035,58.8237L44.9425,66.4787L19.7885,69.2117L14.5015,42.6907L23.2515,33.0307L49.8635,32.8487Z" style="fill:white;fill-rule:nonzero;"/>
            </g>
            <g>
                <path d="M27.1706,49.9209C28.1626,56.0319 36.2226,61.6479 43.0886,60.4639C49.4126,59.3699 52.3246,55.7789 52.3246,49.5869C52.3246,43.3969 44.7356,37.6689 38.3186,37.5869C31.2116,37.4969 25.9546,42.4479 27.1706,49.9209" style="fill:none;stroke-width:0.75px;stroke:rgb(255,129,0);"/>
            </g>
            <g>
                <path d="M39.364,55.7735C39.887,57.9755 41.204,59.5455 42.311,59.2845C43.417,59.0225 43.891,57.0265 43.369,54.8255C42.847,52.6255 41.528,51.0535 40.422,51.3155C39.316,51.5775 38.841,53.5735 39.364,55.7735" style="fill:rgb(255,129,0);fill-rule:nonzero;"/>
            </g>
            <g>
                <path d="M51.0202,47.6846C50.0272,45.2916 48.1282,42.2936 45.1152,42.6046C42.4002,42.8846 41.2662,45.6766 41.4062,48.0996C41.4902,49.5566 43.7642,49.5636 43.6782,48.0996C43.6072,46.8586 43.8202,45.2316 45.2312,44.8706C46.9672,44.4256 48.3332,47.0966 48.8292,48.2886C49.3822,49.6236 51.5822,49.0376 51.0202,47.6846" style="fill:rgb(255,129,0);fill-rule:nonzero;"/>
            </g>
            <g>
                <path d="M37.8962,48.0186C36.9032,45.6256 35.0052,42.6296 31.9942,42.9386C29.2762,43.2186 28.1402,46.0116 28.2832,48.4336C28.3662,49.8896 30.6402,49.8976 30.5542,48.4336C30.4822,47.1926 30.6962,45.5666 32.1082,45.2046C33.8432,44.7606 35.2092,47.4306 35.7062,48.6236C36.2572,49.9566 38.4592,49.3726 37.8962,48.0186" style="fill:rgb(255,129,0);fill-rule:nonzero;"/>
            </g>
            <g>
                <path d="M18.8112,56.1788C17.8092,55.9968 7.5112,59.8248 3.7742,65.1108C3.5902,67.4798 4.5032,68.0268 6.2342,68.0268C8.8782,63.3798 19.3582,59.9148 19.3582,59.9148C19.3582,59.9148 19.8142,56.3618 18.8112,56.1788" style="fill:white;fill-rule:nonzero;"/>
            </g>
            <g>
                <path d="M6.82,68.1866C6.82,69.9616 5.292,71.3996 3.41,71.3996C1.525,71.3996 0,69.9616 0,68.1866C0,66.4116 1.525,64.9736 3.41,64.9736C5.292,64.9736 6.82,66.4116 6.82,68.1866" style="fill:white;fill-rule:nonzero;"/>
            </g>
            <g>
                <path d="M44.1081,66.5118C44.1081,66.5118 43.5801,76.3368 42.8211,78.5808C42.0631,80.8268 37.1861,82.1628 38.8751,78.3068C40.5611,74.4508 40.0531,64.5648 40.0531,64.5648L44.1081,66.5118Z" style="fill:white;fill-rule:nonzero;"/>
            </g>
            <g>
                <path d="M43.6379,82.7481C43.6379,82.7481 44.9179,84.2841 44.6669,86.4361C44.4159,88.5871 41.3429,89.4421 40.5269,89.5751C39.7129,89.7091 38.8049,87.1241 38.3139,85.3681C37.8249,83.6121 37.4259,79.4651 37.6449,78.5541C37.8619,77.6421 40.8819,77.2721 41.6159,78.2041C42.3469,79.1341 43.6379,82.7481 43.6379,82.7481" style="fill:white;fill-rule:nonzero;"/>
            </g>
            <g>
                <path d="M34.1603,66.6807C34.1603,66.6807 33.5843,77.3667 32.7593,79.8087C31.9343,82.2487 26.6323,83.7017 28.4673,79.5077C30.3023,75.3167 29.7493,64.5647 29.7493,64.5647L34.1603,66.6807Z" style="fill:white;fill-rule:nonzero;"/>
            </g>
            <g>
                <path d="M33.6501,84.3389C33.6501,84.3389 35.0421,86.0079 34.7681,88.3469C34.4941,90.6879 31.1531,91.6179 30.2661,91.7639C29.3801,91.9069 28.3911,89.0959 27.8591,87.1869C27.3271,85.2779 26.8931,80.7699 27.1311,79.7759C27.3701,78.7839 30.6521,78.3839 31.4491,79.3959C32.2461,80.4079 33.6501,84.3389 33.6501,84.3389" style="fill:white;fill-rule:nonzero;"/>
            </g>
        </g>
    </g>
</svg>
