<?xml version="1.0" standalone="no"?>
<!DOCTYPE svg PUBLIC "-//W3C//DTD SVG 1.1//EN" "http://www.w3.org/Graphics/SVG/1.1/DTD/svg11.dtd">
<svg width="242px" height="242px" version="1.1" xmlns="http://www.w3.org/2000/svg" xmlns:xlink="http://www.w3.org/1999/xlink" xml:space="preserve" style="fill-rule:evenodd;clip-rule:evenodd;stroke-linejoin:round;stroke-miterlimit:1.41421;">
    <g>
        <g id="cube games">
            <g>
                <path d="M0,191.79L0,50.452C0,22.604 22.665,0 50.515,0L191.9,0C219.756,0 242.366,22.604 242.366,50.452L242.366,191.79C242.366,219.697 219.756,242.311 191.9,242.311L50.515,242.311C22.665,242.311 0,219.697 0,191.79" style="fill:rgb(255,84,83);fill-rule:nonzero;"/>
            </g>
            <g>
                <path d="M61.457,203.033C61.696,203.609 62.011,204.093 62.4,204.482C62.834,204.931 63.347,205.283 63.938,205.537C64.53,205.792 65.155,205.92 65.814,205.92C66.607,205.92 67.326,205.777 67.97,205.492C68.613,205.209 69.234,204.804 69.834,204.279L71.271,205.875C70.478,206.652 69.654,207.219 68.801,207.57C67.947,207.922 66.951,208.097 65.814,208.097C64.781,208.097 63.838,207.922 62.984,207.57C62.131,207.219 61.382,206.727 60.738,206.098C60.079,205.455 59.574,204.711 59.223,203.864C58.871,203.018 58.695,202.094 58.695,201.091C58.695,200.102 58.871,199.189 59.223,198.351C59.574,197.512 60.064,196.771 60.693,196.127C61.322,195.498 62.07,195.008 62.939,194.656C63.808,194.304 64.766,194.129 65.814,194.129C66.951,194.129 67.947,194.308 68.801,194.668C69.654,195.027 70.478,195.574 71.271,196.306L69.834,197.924C69.234,197.385 68.613,196.977 67.97,196.7C67.326,196.424 66.607,196.285 65.814,196.285C65.155,196.285 64.541,196.4 63.973,196.633C63.403,196.865 62.902,197.198 62.468,197.633C62.049,198.052 61.715,198.56 61.469,199.159C61.221,199.758 61.098,200.402 61.098,201.091C61.098,201.809 61.217,202.457 61.457,203.033" style="fill:white;fill-rule:nonzero;"/>
            </g>
            <g>
                <path d="M83.8027,204.572C83.4887,205.305 83.0467,205.949 82.4777,206.503C81.9527,206.997 81.3507,207.383 80.6697,207.66C79.9887,207.936 79.2287,208.075 78.3907,208.075C77.4917,208.075 76.6907,207.926 75.9877,207.626C75.2827,207.326 74.6767,206.922 74.1677,206.413C73.6287,205.875 73.2097,205.246 72.9097,204.527C72.6117,203.808 72.4607,203.029 72.4607,202.191L72.4607,194.376L74.8867,194.376L74.8867,202.326C74.8867,202.849 74.9807,203.325 75.1677,203.752C75.3547,204.178 75.5977,204.542 75.8977,204.842C76.5557,205.545 77.3867,205.896 78.3907,205.896C78.8847,205.896 79.3447,205.799 79.7717,205.605C80.1987,205.41 80.5687,205.156 80.8827,204.842C81.1827,204.542 81.4177,204.178 81.5897,203.752C81.7627,203.325 81.8487,202.849 81.8487,202.326L81.8487,194.376L84.2747,194.376L84.2747,202.191C84.2747,203.045 84.1167,203.838 83.8027,204.572" style="fill:white;fill-rule:nonzero;"/>
            </g>
            <g>
                <path d="M94.8965,202.371C94.7025,202.161 94.4665,201.992 94.1895,201.865C93.9125,201.738 93.6245,201.675 93.3245,201.675L88.3385,201.675L88.3385,205.762L93.2125,205.762C93.5115,205.762 93.7995,205.702 94.0775,205.582C94.3535,205.463 94.5975,205.306 94.8065,205.111C94.9715,204.946 95.0985,204.74 95.1885,204.493C95.2785,204.246 95.3235,203.98 95.3235,203.695C95.3235,203.142 95.1815,202.7 94.8965,202.371M94.0875,196.914C93.7585,196.614 93.3245,196.465 92.7865,196.465L88.3385,196.465L88.3385,199.586L93.1445,199.586C93.3545,199.586 93.5445,199.541 93.7175,199.451C93.8895,199.361 94.0355,199.249 94.1565,199.114C94.4105,198.814 94.5375,198.455 94.5375,198.037C94.5375,197.558 94.3875,197.183 94.0875,196.914M85.9585,207.85L85.9585,194.376L92.9205,194.376C93.5035,194.376 94.0625,194.473 94.5935,194.668C95.1255,194.862 95.5855,195.154 95.9745,195.543C96.2745,195.844 96.5025,196.191 96.6605,196.588C96.8165,196.984 96.8955,197.43 96.8955,197.924C96.8955,198.179 96.8695,198.43 96.8165,198.676C96.7645,198.924 96.6785,199.159 96.5585,199.384C96.3345,199.743 96.0275,200.051 95.6375,200.305L95.6375,200.417C96.1765,200.656 96.6255,201.016 96.9855,201.495C97.4345,202.124 97.6595,202.865 97.6595,203.719C97.6595,204.303 97.5505,204.842 97.3345,205.336C97.1165,205.83 96.8135,206.256 96.4235,206.615C96.0045,207.005 95.5215,207.309 94.9755,207.525C94.4285,207.742 93.8335,207.85 93.1895,207.85L85.9585,207.85Z" style="fill:white;fill-rule:nonzero;"/>
            </g>
            <g>
                <path d="M99.1192,194.376L109.584,194.376L109.584,196.576L101.544,196.576L101.544,199.698L108.73,199.698L108.73,201.877L101.544,201.877L101.544,205.672L109.898,205.672L109.898,207.851L99.1192,207.851L99.1192,194.376Z" style="fill:white;fill-rule:nonzero;"/>
            </g>
            <g>
                <path d="M129.796,207.716L128.201,208.008L127.954,207.132C127.43,207.446 126.876,207.686 126.293,207.851C125.709,208.016 125.042,208.098 124.294,208.098C123.111,208.098 122.051,207.888 121.115,207.469C120.18,207.05 119.398,206.466 118.77,205.717C118.275,205.133 117.882,204.445 117.59,203.651C117.298,202.858 117.152,202.004 117.152,201.091C117.152,200.117 117.332,199.204 117.692,198.352C118.051,197.498 118.559,196.756 119.218,196.127C119.861,195.498 120.618,195.008 121.486,194.656C122.355,194.305 123.306,194.129 124.339,194.129C125.461,194.129 126.449,194.301 127.303,194.646C128.156,194.99 128.98,195.559 129.774,196.352L128.179,197.947C127.595,197.363 127.011,196.947 126.428,196.7C125.844,196.453 125.147,196.33 124.339,196.33C123.665,196.33 123.036,196.453 122.452,196.7C121.868,196.947 121.352,197.295 120.902,197.744C120.498,198.149 120.18,198.639 119.948,199.215C119.716,199.792 119.6,200.417 119.6,201.091C119.6,201.824 119.724,202.487 119.971,203.078C120.218,203.67 120.558,204.176 120.992,204.594C121.426,205.014 121.92,205.336 122.475,205.561C123.028,205.785 123.635,205.897 124.294,205.897C124.922,205.897 125.495,205.815 126.012,205.651C126.528,205.486 126.996,205.268 127.415,204.998L127.415,202.214L123.957,202.034L123.957,200.013L129.796,200.013L129.796,207.716Z" style="fill:white;fill-rule:nonzero;"/>
            </g>
            <g>
                <path d="M135.523,203.201L140.89,203.201L138.308,196.801L138.039,196.801L135.523,203.201ZM139.52,194.376L145.494,207.85L142.912,207.85L141.789,205.381L134.602,205.381L133.501,207.85L130.963,207.85L136.938,194.376L139.52,194.376Z" style="fill:white;fill-rule:nonzero;"/>
            </g>
            <g>
                <path d="M149.222,194.376L153.983,201.046L158.632,194.376L161.214,194.376L161.214,207.851L158.834,207.851L158.834,197.969L158.744,197.969L154.32,204.234L153.444,204.234L148.975,197.969L148.885,197.969L148.885,207.851L146.617,207.851L146.617,194.376L149.222,194.376Z" style="fill:white;fill-rule:nonzero;"/>
            </g>
            <g>
                <path d="M162.898,194.376L173.364,194.376L173.364,196.576L165.324,196.576L165.324,199.698L172.51,199.698L172.51,201.877L165.324,201.877L165.324,205.672L173.678,205.672L173.678,207.851L162.898,207.851L162.898,194.376Z" style="fill:white;fill-rule:nonzero;"/>
            </g>
            <g>
                <path d="M175.272,196.386C175.527,195.93 175.864,195.551 176.283,195.252C176.792,194.863 177.414,194.578 178.147,194.399C178.88,194.219 179.674,194.129 180.527,194.129C181.38,194.129 182.246,194.227 183.122,194.421C183.998,194.615 184.937,194.967 185.94,195.477L185.042,197.385C184.278,197.012 183.537,196.739 182.818,196.566C182.099,196.394 181.38,196.307 180.662,196.307C180.108,196.307 179.581,196.345 179.079,196.42C178.578,196.494 178.162,196.653 177.833,196.891C177.428,197.176 177.226,197.558 177.226,198.037C177.226,198.232 177.271,198.393 177.361,198.52C177.451,198.647 177.578,198.763 177.743,198.867C177.937,199.018 178.169,199.125 178.439,199.194C178.709,199.26 178.962,199.317 179.203,199.362L181.943,199.856C182.616,199.976 183.279,200.156 183.93,200.395C184.582,200.635 185.131,200.971 185.581,201.406C185.88,201.705 186.112,202.053 186.277,202.449C186.441,202.846 186.524,203.323 186.524,203.875C186.524,204.594 186.381,205.209 186.097,205.717C185.812,206.227 185.438,206.638 184.974,206.952C184.376,207.371 183.649,207.668 182.795,207.84C181.943,208.012 181.066,208.098 180.168,208.098C179.599,208.098 179.083,208.075 178.619,208.031C178.154,207.986 177.705,207.914 177.271,207.817C176.836,207.72 176.41,207.592 175.991,207.436C175.572,207.278 175.13,207.095 174.666,206.885L175.407,204.908C177.054,205.568 178.626,205.897 180.124,205.897C180.931,205.897 181.613,205.844 182.168,205.74C182.72,205.635 183.2,205.433 183.604,205.133C183.963,204.85 184.143,204.452 184.143,203.944C184.143,203.689 184.094,203.471 183.998,203.291C183.9,203.112 183.769,202.955 183.604,202.821C183.365,202.656 183.073,202.517 182.728,202.405C182.384,202.293 182.017,202.199 181.628,202.124L178.641,201.608C178.027,201.503 177.469,201.35 176.968,201.147C176.466,200.946 176.043,200.672 175.699,200.327C175.445,200.058 175.246,199.737 175.104,199.362C174.961,198.988 174.89,198.538 174.89,198.014C174.89,197.385 175.017,196.843 175.272,196.386" style="fill:white;fill-rule:nonzero;"/>
            </g>
            <g>
                <path d="M92.9785,90.0839L92.9785,57.1869C92.9785,50.7059 98.2515,45.4449 104.734,45.4449L137.64,45.4449C144.125,45.4449 149.387,50.7059 149.387,57.1869L149.387,90.0839C149.387,96.5799 144.125,101.844 137.64,101.844L104.734,101.844C98.2515,101.844 92.9785,96.5799 92.9785,90.0839" style="fill:white;fill-rule:nonzero;"/>
            </g>
            <g>
                <path d="M61.1875,153.702L61.1875,120.791C61.1875,114.306 66.4505,109.048 72.9345,109.048L105.829,109.048C112.326,109.048 117.585,114.306 117.585,120.791L117.585,153.702C117.585,160.185 112.326,165.445 105.829,165.445L72.9345,165.445C66.4505,165.445 61.1875,160.185 61.1875,153.702" style="fill:white;fill-rule:nonzero;"/>
            </g>
            <g>
                <path d="M124.778,153.702L124.778,120.791C124.778,114.306 130.04,109.048 136.525,109.048L169.433,109.048C175.917,109.048 181.176,114.306 181.176,120.791L181.176,153.702C181.176,160.185 175.917,165.445 169.433,165.445L136.525,165.445C130.04,165.445 124.778,160.185 124.778,153.702" style="fill:white;fill-rule:nonzero;"/>
            </g>
        </g>
    </g>
</svg>
