<?xml version="1.0" standalone="no"?>
<!DOCTYPE svg PUBLIC "-//W3C//DTD SVG 1.1//EN" "http://www.w3.org/Graphics/SVG/1.1/DTD/svg11.dtd">
<svg width="242px" height="242px" version="1.1" xmlns="http://www.w3.org/2000/svg" xmlns:xlink="http://www.w3.org/1999/xlink" xml:space="preserve" style="fill-rule:evenodd;clip-rule:evenodd;stroke-linejoin:round;stroke-miterlimit:1.41421;">
    <g>
        <g id="related books">
            <g>
                <path d="M0,191.79L0,50.452C0,22.604 22.666,0 50.516,0L191.9,0C219.758,0 242.367,22.604 242.367,50.452L242.367,191.79C242.367,219.697 219.758,242.311 191.9,242.311L50.516,242.311C22.666,242.311 0,219.697 0,191.79" style="fill:rgb(255,151,32);fill-rule:nonzero;"/>
            </g>
            <g>
                <path d="M42.2383,202.012L46.5063,202.012C46.8943,202.012 47.2583,201.941 47.5943,201.799C47.9313,201.657 48.2053,201.458 48.4143,201.203C48.6543,200.949 48.8343,200.657 48.9533,200.327C49.0733,199.998 49.1333,199.661 49.1333,199.317C49.1333,198.583 48.9083,197.977 48.4593,197.498C48.2343,197.213 47.9393,196.989 47.5723,196.824C47.2053,196.659 46.8123,196.576 46.3933,196.576L42.2383,196.576L42.2383,202.012ZM50.5923,202.282C50.3533,202.58 50.0843,202.85 49.7843,203.09C49.4843,203.329 49.1403,203.532 48.7523,203.696C49.1553,204.356 49.5783,205.043 50.0203,205.762C50.4623,206.481 50.8843,207.177 51.2893,207.851L48.5493,207.851L46.3713,204.19L42.2383,204.19L42.2383,207.851L39.8123,207.851L39.8123,194.376L46.4613,194.376C47.1643,194.376 47.8263,194.5 48.4483,194.746C49.0693,194.993 49.6193,195.35 50.0983,195.813C50.5483,196.262 50.9033,196.78 51.1663,197.364C51.4273,197.948 51.5583,198.598 51.5583,199.317C51.5583,200.47 51.2363,201.458 50.5923,202.282" style="fill:white;fill-rule:nonzero;"/>
            </g>
            <g>
                <path d="M52.793,194.376L63.259,194.376L63.259,196.576L55.219,196.576L55.219,199.698L62.405,199.698L62.405,201.877L55.219,201.877L55.219,205.672L63.573,205.672L63.573,207.851L52.793,207.851L52.793,194.376Z" style="fill:white;fill-rule:nonzero;"/>
            </g>
            <g>
                <path d="M75.5215,207.851L65.0335,207.851L65.0335,194.375L67.4355,194.375L67.4355,205.716L75.5215,205.716L75.5215,207.851Z" style="fill:white;fill-rule:nonzero;"/>
            </g>
            <g>
                <path d="M80.6406,203.201L86.0086,203.201L83.4256,196.801L83.1566,196.801L80.6406,203.201ZM84.6386,194.376L90.6126,207.85L88.0296,207.85L86.9076,205.381L79.7206,205.381L78.6196,207.85L76.0816,207.85L82.0556,194.376L84.6386,194.376Z" style="fill:white;fill-rule:nonzero;"/>
            </g>
            <g>
                <path d="M89.2422,194.376L101.617,194.376L101.617,196.531L96.6092,196.531L96.6092,207.851L94.2512,207.851L94.2512,196.531L89.2422,196.531L89.2422,194.376Z" style="fill:white;fill-rule:nonzero;"/>
            </g>
            <g>
                <path d="M102.74,194.376L113.205,194.376L113.205,196.576L105.165,196.576L105.165,199.698L112.351,199.698L112.351,201.877L105.165,201.877L105.165,205.672L113.519,205.672L113.519,207.851L102.74,207.851L102.74,194.376Z" style="fill:white;fill-rule:nonzero;"/>
            </g>
            <g>
                <path d="M117.337,196.555L117.337,205.696L120.504,205.696C121.207,205.696 121.836,205.582 122.391,205.358C122.943,205.133 123.416,204.826 123.805,204.438C124.629,203.584 125.04,202.476 125.04,201.114C125.04,199.766 124.636,198.673 123.828,197.834C123.438,197.446 122.967,197.135 122.412,196.903C121.858,196.67 121.223,196.555 120.504,196.555L117.337,196.555ZM120.594,194.376C121.627,194.376 122.57,194.56 123.424,194.926C124.276,195.293 125.018,195.799 125.647,196.442C126.215,197.041 126.653,197.734 126.961,198.52C127.268,199.305 127.421,200.17 127.421,201.114C127.421,202.102 127.244,203.015 126.893,203.854C126.541,204.692 126.051,205.418 125.422,206.032C124.823,206.601 124.111,207.046 123.289,207.368C122.465,207.69 121.566,207.851 120.594,207.851L114.979,207.851L114.979,194.376L120.594,194.376Z" style="fill:white;fill-rule:nonzero;"/>
            </g>
            <g>
                <path d="M143.882,202.371C143.688,202.161 143.451,201.992 143.174,201.865C142.897,201.738 142.61,201.675 142.31,201.675L137.324,201.675L137.324,205.762L142.197,205.762C142.496,205.762 142.785,205.702 143.063,205.582C143.339,205.463 143.582,205.306 143.792,205.111C143.957,204.946 144.084,204.74 144.174,204.493C144.264,204.246 144.309,203.98 144.309,203.695C144.309,203.142 144.166,202.7 143.882,202.371M143.073,196.914C142.744,196.614 142.31,196.465 141.771,196.465L137.324,196.465L137.324,199.586L142.13,199.586C142.34,199.586 142.53,199.541 142.703,199.451C142.875,199.361 143.021,199.249 143.141,199.114C143.395,198.814 143.523,198.455 143.523,198.037C143.523,197.558 143.373,197.183 143.073,196.914M134.944,207.85L134.944,194.376L141.905,194.376C142.489,194.376 143.047,194.473 143.578,194.668C144.11,194.862 144.57,195.154 144.96,195.543C145.259,195.844 145.487,196.191 145.645,196.588C145.802,196.984 145.881,197.43 145.881,197.924C145.881,198.179 145.855,198.43 145.802,198.676C145.749,198.924 145.663,199.159 145.544,199.384C145.32,199.743 145.012,200.051 144.623,200.305L144.623,200.417C145.162,200.656 145.611,201.016 145.971,201.495C146.42,202.124 146.645,202.865 146.645,203.719C146.645,204.303 146.535,204.842 146.319,205.336C146.102,205.83 145.798,206.256 145.409,206.615C144.989,207.005 144.507,207.309 143.96,207.525C143.414,207.742 142.819,207.85 142.175,207.85L134.944,207.85Z" style="fill:white;fill-rule:nonzero;"/>
            </g>
            <g>
                <path d="M150.383,202.976C150.615,203.546 150.926,204.041 151.316,204.459C151.735,204.923 152.24,205.287 152.831,205.548C153.423,205.81 154.063,205.941 154.752,205.941C155.425,205.941 156.058,205.815 156.65,205.56C157.24,205.305 157.753,204.947 158.188,204.482C158.576,204.062 158.884,203.568 159.109,203C159.333,202.43 159.446,201.803 159.446,201.113C159.446,200.411 159.329,199.769 159.097,199.193C158.865,198.618 158.555,198.126 158.165,197.722C157.731,197.274 157.218,196.921 156.627,196.666C156.035,196.412 155.41,196.286 154.752,196.286C154.078,196.286 153.446,196.412 152.854,196.666C152.262,196.921 151.75,197.281 151.316,197.744C150.926,198.163 150.615,198.659 150.383,199.226C150.152,199.796 150.035,200.424 150.035,201.113C150.035,201.787 150.152,202.409 150.383,202.976M157.615,194.645C158.476,194.99 159.221,195.476 159.85,196.106C160.493,196.763 160.987,197.519 161.332,198.373C161.676,199.226 161.848,200.14 161.848,201.113C161.848,202.085 161.684,202.988 161.354,203.82C161.025,204.65 160.553,205.38 159.94,206.008C159.295,206.667 158.539,207.18 157.671,207.546C156.803,207.914 155.829,208.097 154.752,208.097C153.674,208.097 152.686,207.892 151.787,207.481C150.889,207.068 150.125,206.525 149.496,205.851C148.927,205.238 148.475,204.519 148.138,203.695C147.801,202.873 147.633,202.012 147.633,201.113C147.633,200.169 147.797,199.287 148.126,198.462C148.455,197.64 148.92,196.913 149.519,196.286C150.148,195.611 150.907,195.082 151.798,194.702C152.689,194.32 153.674,194.128 154.752,194.128C155.799,194.128 156.754,194.3 157.615,194.645" style="fill:white;fill-rule:nonzero;"/>
            </g>
            <g>
                <path d="M165.385,202.976C165.617,203.546 165.928,204.041 166.318,204.459C166.737,204.923 167.241,205.287 167.833,205.548C168.424,205.81 169.065,205.941 169.753,205.941C170.427,205.941 171.059,205.815 171.651,205.56C172.242,205.305 172.755,204.947 173.19,204.482C173.578,204.062 173.886,203.568 174.11,203C174.334,202.43 174.448,201.803 174.448,201.113C174.448,200.411 174.33,199.769 174.099,199.193C173.866,198.618 173.556,198.126 173.167,197.722C172.733,197.274 172.22,196.921 171.629,196.666C171.037,196.412 170.412,196.286 169.753,196.286C169.079,196.286 168.448,196.412 167.856,196.666C167.264,196.921 166.751,197.281 166.318,197.744C165.928,198.163 165.617,198.659 165.385,199.226C165.153,199.796 165.037,200.424 165.037,201.113C165.037,201.787 165.153,202.409 165.385,202.976M172.616,194.645C173.478,194.99 174.223,195.476 174.852,196.106C175.494,196.763 175.989,197.519 176.333,198.373C176.678,199.226 176.85,200.14 176.85,201.113C176.85,202.085 176.685,202.988 176.356,203.82C176.027,204.65 175.555,205.38 174.942,206.008C174.297,206.667 173.541,207.18 172.673,207.546C171.805,207.914 170.831,208.097 169.753,208.097C168.675,208.097 167.688,207.892 166.789,207.481C165.891,207.068 165.127,206.525 164.498,205.851C163.929,205.238 163.477,204.519 163.139,203.695C162.803,202.873 162.634,202.012 162.634,201.113C162.634,200.169 162.799,199.287 163.128,198.462C163.457,197.64 163.922,196.913 164.521,196.286C165.15,195.611 165.909,195.082 166.8,194.702C167.691,194.32 168.675,194.128 169.753,194.128C170.801,194.128 171.756,194.3 172.616,194.645" style="fill:white;fill-rule:nonzero;"/>
            </g>
            <g>
                <path d="M180.51,194.376L180.51,199.586L183.295,199.586L186.979,194.376L189.785,194.376L185.362,200.552L190.122,207.851L187.36,207.851L183.34,201.72L180.51,201.72L180.51,207.851L178.108,207.851L178.108,194.376L180.51,194.376Z" style="fill:white;fill-rule:nonzero;"/>
            </g>
            <g>
                <path d="M191.043,196.386C191.297,195.93 191.635,195.551 192.054,195.252C192.563,194.863 193.184,194.578 193.918,194.399C194.651,194.219 195.445,194.129 196.298,194.129C197.151,194.129 198.017,194.227 198.893,194.421C199.768,194.615 200.707,194.967 201.711,195.477L200.813,197.385C200.049,197.012 199.308,196.739 198.589,196.566C197.87,196.394 197.151,196.307 196.433,196.307C195.879,196.307 195.352,196.345 194.85,196.42C194.348,196.494 193.933,196.653 193.604,196.891C193.199,197.176 192.997,197.558 192.997,198.037C192.997,198.232 193.042,198.393 193.132,198.52C193.222,198.647 193.349,198.763 193.514,198.867C193.708,199.018 193.94,199.125 194.21,199.194C194.479,199.26 194.733,199.317 194.973,199.362L197.713,199.856C198.387,199.976 199.049,200.156 199.701,200.395C200.352,200.635 200.902,200.971 201.352,201.406C201.65,201.705 201.883,202.053 202.047,202.449C202.212,202.846 202.295,203.323 202.295,203.875C202.295,204.594 202.152,205.209 201.867,205.717C201.583,206.227 201.209,206.638 200.745,206.952C200.147,207.371 199.42,207.668 198.566,207.84C197.713,208.012 196.837,208.098 195.939,208.098C195.369,208.098 194.854,208.075 194.389,208.031C193.925,207.986 193.476,207.914 193.042,207.817C192.607,207.72 192.181,207.592 191.762,207.436C191.342,207.278 190.9,207.095 190.437,206.885L191.178,204.908C192.824,205.568 194.397,205.897 195.895,205.897C196.702,205.897 197.384,205.844 197.938,205.74C198.491,205.635 198.971,205.433 199.375,205.133C199.734,204.85 199.914,204.452 199.914,203.944C199.914,203.689 199.865,203.471 199.768,203.291C199.67,203.112 199.539,202.955 199.375,202.821C199.135,202.656 198.844,202.517 198.499,202.405C198.154,202.293 197.788,202.199 197.398,202.124L194.412,201.608C193.798,201.503 193.24,201.35 192.738,201.147C192.236,200.946 191.814,200.672 191.47,200.327C191.215,200.058 191.017,199.737 190.875,199.362C190.732,198.988 190.661,198.538 190.661,198.014C190.661,197.385 190.788,196.843 191.043,196.386" style="fill:white;fill-rule:nonzero;"/>
            </g>
            <g>
                <path d="M157.875,58.0483L83.09,58.2563C74.142,58.2733 66.912,65.5503 66.933,74.4913L67.133,149.266C67.16,158.228 74.437,165.468 83.383,165.445L158.16,165.234C167.1,165.207 174.346,157.931 174.325,148.993L174.23,113.222C168.513,119.263 159.168,123.08 148.701,122.831C146.375,122.784 144.117,122.523 141.945,122.097L129.697,134.43L132.023,118.599C123.67,114.159 118.275,106.694 118.474,98.3563C118.779,85.2413 132.809,74.9383 149.818,75.3333C159.846,75.5853 168.666,79.4743 174.155,85.3303L174.121,74.2093C174.098,65.2533 166.813,58.0253 157.875,58.0483" style="fill:white;fill-rule:nonzero;"/>
            </g>
            <g>
                <path d="M77.0195,129.417C77.2475,130.013 77.5465,130.504 77.9215,130.892C78.3605,131.365 78.8715,131.723 79.4435,131.981C80.0115,132.233 80.6075,132.353 81.2245,132.353C81.9865,132.353 82.6995,132.195 83.3495,131.89C83.9895,131.59 84.6425,131.12 85.2875,130.504L86.9235,132.424C86.0625,133.351 85.1975,134.011 84.3195,134.402C83.4445,134.811 82.4125,135.012 81.2245,135.012C80.1405,135.012 79.1705,134.828 78.2895,134.453C77.4065,134.093 76.6445,133.575 75.9995,132.911C75.3355,132.233 74.8295,131.427 74.4605,130.489C74.1035,129.554 73.9155,128.532 73.9155,127.411C73.9155,126.335 74.1035,125.352 74.4475,124.449C74.8025,123.554 75.3065,122.75 75.9565,122.052C76.5955,121.371 77.3765,120.829 78.2655,120.444C79.1575,120.057 80.1405,119.865 81.2245,119.865C82.4125,119.865 83.4445,120.057 84.3195,120.444C85.1975,120.829 86.0625,121.47 86.9235,122.345L85.2875,124.316C84.6425,123.683 83.9895,123.223 83.3495,122.931C82.6995,122.641 81.9865,122.491 81.2245,122.491C80.6075,122.491 80.0215,122.617 79.4805,122.858C78.9255,123.104 78.4495,123.435 78.0405,123.856C77.6285,124.278 77.3045,124.8 77.0485,125.431C76.7965,126.05 76.6675,126.714 76.6675,127.411C76.6675,128.161 76.7875,128.828 77.0195,129.417" style="fill:rgb(255,151,32);fill-rule:nonzero;"/>
            </g>
            <g>
                <path d="M99.9043,131.141C99.5713,131.944 99.1153,132.653 98.5293,133.255C97.9883,133.803 97.3753,134.236 96.6663,134.532C95.9683,134.829 95.1783,134.978 94.3023,134.978C93.3573,134.978 92.5333,134.822 91.8103,134.498C91.0863,134.167 90.4553,133.732 89.9343,133.184C89.3763,132.578 88.9433,131.88 88.6333,131.073C88.3383,130.276 88.1813,129.353 88.1813,128.338L88.1813,120.128L90.9803,120.128L90.9803,128.481C90.9803,129.134 91.0643,129.69 91.2383,130.136C91.4203,130.585 91.6543,130.964 91.9433,131.256C92.5603,131.951 93.3463,132.306 94.3023,132.306C94.7633,132.306 95.2023,132.206 95.6073,132.016C96.0123,131.822 96.3703,131.556 96.6793,131.233C96.9593,130.96 97.1833,130.599 97.3513,130.143C97.5173,129.703 97.6033,129.149 97.6033,128.481L97.6033,120.128L100.395,120.128L100.395,128.338C100.395,129.387 100.238,130.324 99.9043,131.141" style="fill:rgb(255,151,32);fill-rule:nonzero;"/>
            </g>
            <g>
                <path d="M111.441,129.458C111.37,129.227 111.275,129.039 111.156,128.872C110.978,128.672 110.771,128.515 110.525,128.386C110.281,128.246 109.899,128.188 109.391,128.188L104.855,128.188L104.855,132.186L109.14,132.186C109.503,132.186 109.851,132.142 110.171,132.066C110.481,131.981 110.75,131.839 110.964,131.647C111.349,131.32 111.541,130.823 111.541,130.166C111.541,129.921 111.505,129.689 111.441,129.458M110.337,123.104C110.08,122.831 109.606,122.682 108.928,122.682L104.855,122.682L104.855,125.661L109.255,125.661C109.698,125.661 110.069,125.519 110.362,125.243C110.625,125.001 110.753,124.64 110.753,124.173C110.753,123.7 110.614,123.343 110.337,123.104M102.138,134.739L102.138,120.128L108.839,120.128C109.545,120.128 110.212,120.22 110.836,120.387C111.455,120.557 111.996,120.854 112.439,121.269C112.75,121.578 113.002,121.953 113.185,122.389C113.365,122.818 113.457,123.339 113.457,123.959C113.457,124.422 113.362,124.889 113.154,125.368C112.939,125.849 112.632,126.247 112.228,126.533L112.228,126.68C112.879,126.989 113.365,127.436 113.689,128.021C114.056,128.651 114.24,129.373 114.24,130.184C114.24,130.834 114.129,131.437 113.896,131.981C113.666,132.52 113.351,132.996 112.953,133.404C112.736,133.612 112.498,133.8 112.249,133.977C111.996,134.144 111.714,134.286 111.404,134.396C111.097,134.508 110.743,134.597 110.348,134.654C109.961,134.712 109.503,134.739 109,134.739L102.138,134.739Z" style="fill:rgb(255,151,32);fill-rule:nonzero;"/>
            </g>
            <g>
                <path d="M115.75,120.128L126.608,120.128L126.608,122.808L118.541,122.808L118.541,125.777L125.758,125.777L125.758,128.433L118.541,128.433L118.541,132.087L126.932,132.087L126.932,134.739L115.75,134.739L115.75,120.128Z" style="fill:rgb(255,151,32);fill-rule:nonzero;"/>
            </g>
            <g>
                <path d="M85.9473,147.152C85.9473,146.484 85.7693,145.933 85.4123,145.494C85.1773,145.228 84.8783,145.02 84.5273,144.864C84.1663,144.711 83.7373,144.632 83.2433,144.632L77.6663,144.632L77.6663,149.744L83.1243,149.744C83.6183,149.744 84.0413,149.672 84.3813,149.519C84.7243,149.372 85.0243,149.168 85.2973,148.91C85.5013,148.685 85.6543,148.432 85.7733,148.13C85.8923,147.84 85.9473,147.509 85.9473,147.152M85.1093,141.019C85.1093,140.733 85.0623,140.468 84.9593,140.209C84.8573,139.95 84.7113,139.736 84.5273,139.569C84.3333,139.398 84.1053,139.258 83.8223,139.143C83.5503,139.035 83.1583,138.99 82.6613,138.99L77.6663,138.99L77.6663,143.025L83.0323,143.025C83.4203,143.025 83.7443,142.964 84.0003,142.848C84.2553,142.728 84.4553,142.583 84.5923,142.391C84.9353,141.99 85.1093,141.53 85.1093,141.019M75.7723,151.35L75.7723,137.352L82.9913,137.352C83.5743,137.352 84.1423,137.444 84.6873,137.644C85.2353,137.836 85.6883,138.134 86.0623,138.544C86.6723,139.143 86.9723,139.925 86.9723,140.873C86.9723,141.464 86.8533,141.99 86.6033,142.439C86.3493,142.892 85.9983,143.256 85.5253,143.536L85.5253,143.652C85.8883,143.791 86.1953,143.975 86.4583,144.2C86.7233,144.424 86.9653,144.683 87.1623,144.983C87.5983,145.599 87.8123,146.332 87.8123,147.175C87.8123,147.785 87.7073,148.337 87.4823,148.827C87.2673,149.328 86.9723,149.754 86.5803,150.119C86.1613,150.523 85.6723,150.83 85.1093,151.037C84.5473,151.252 83.9413,151.35 83.2873,151.35L75.7723,151.35Z" style="fill:rgb(255,151,32);fill-rule:nonzero;"/>
            </g>
            <g>
                <path d="M91.3379,144.353C91.3379,145.146 91.4709,145.869 91.7329,146.511C92.0019,147.162 92.3589,147.724 92.8089,148.231C93.3059,148.777 93.9019,149.202 94.5999,149.495C95.2869,149.8 96.0369,149.951 96.8479,149.951C97.6479,149.951 98.3829,149.808 99.0649,149.511C99.7519,149.215 100.338,148.79 100.834,148.249C101.291,147.758 101.649,147.175 101.904,146.525C102.176,145.872 102.306,145.146 102.306,144.353C102.306,143.542 102.173,142.807 101.901,142.153C101.628,141.482 101.264,140.914 100.817,140.427C100.314,139.902 99.7249,139.494 99.0399,139.191C98.3559,138.902 97.6229,138.748 96.8479,138.748C96.0509,138.748 95.3049,138.902 94.6089,139.211C93.9019,139.51 93.3059,139.925 92.8089,140.451C92.3589,140.955 92.0019,141.53 91.7329,142.181C91.4709,142.834 91.3379,143.566 91.3379,144.353M96.8479,137.097C97.9239,137.097 98.9069,137.273 99.8099,137.644C100.715,138.005 101.484,138.52 102.146,139.173C102.813,139.841 103.327,140.614 103.686,141.505C104.046,142.391 104.216,143.345 104.216,144.353C104.216,145.347 104.049,146.277 103.705,147.142C103.371,148.006 102.871,148.759 102.217,149.416C101.567,150.104 100.777,150.632 99.8709,151.031C98.9589,151.416 97.9499,151.613 96.8479,151.613C95.7129,151.613 94.6749,151.402 93.7449,150.983C92.8089,150.56 92.0159,150.001 91.3579,149.3C90.7749,148.647 90.3029,147.898 89.9619,147.049C89.6169,146.202 89.4469,145.299 89.4469,144.353C89.4469,143.375 89.6169,142.457 89.9619,141.594C90.3029,140.747 90.7889,139.984 91.4059,139.333C92.0629,138.639 92.8539,138.083 93.7789,137.693C94.7089,137.29 95.7309,137.097 96.8479,137.097" style="fill:rgb(255,151,32);fill-rule:nonzero;"/>
            </g>
            <g>
                <path d="M107.529,144.353C107.529,145.146 107.669,145.869 107.927,146.511C108.189,147.162 108.557,147.724 109,148.231C109.504,148.777 110.093,149.202 110.791,149.495C111.482,149.8 112.228,149.951 113.042,149.951C113.839,149.951 114.574,149.808 115.261,149.511C115.943,149.215 116.533,148.79 117.029,148.249C117.482,147.758 117.84,147.175 118.105,146.525C118.364,145.872 118.497,145.146 118.497,144.353C118.497,143.542 118.364,142.807 118.092,142.153C117.82,141.482 117.462,140.914 117.006,140.427C116.511,139.902 115.92,139.494 115.228,139.191C114.55,138.902 113.815,138.748 113.042,138.748C112.249,138.748 111.5,138.902 110.801,139.211C110.099,139.51 109.504,139.925 109,140.451C108.557,140.955 108.189,141.53 107.927,142.181C107.669,142.834 107.529,143.566 107.529,144.353M113.042,137.097C114.115,137.097 115.101,137.273 116.005,137.644C116.904,138.005 117.683,138.52 118.341,139.173C119.011,139.841 119.521,140.614 119.88,141.505C120.23,142.391 120.418,143.345 120.418,144.353C120.418,145.347 120.24,146.277 119.904,147.142C119.562,148.006 119.062,148.759 118.408,149.416C117.755,150.104 116.971,150.632 116.062,151.031C115.156,151.416 114.138,151.613 113.042,151.613C111.904,151.613 110.869,151.402 109.933,150.983C109,150.56 108.213,150.001 107.56,149.3C106.966,148.647 106.498,147.898 106.16,147.049C105.816,146.202 105.638,145.299 105.638,144.353C105.638,143.375 105.816,142.457 106.16,141.594C106.498,140.747 106.98,139.984 107.6,139.333C108.258,138.639 109.048,138.083 109.974,137.693C110.9,137.29 111.918,137.097 113.042,137.097" style="fill:rgb(255,151,32);fill-rule:nonzero;"/>
            </g>
            <g>
                <path d="M124.215,137.352L124.215,143.025L127.719,143.025L131.988,137.352L134.182,137.352L129.373,143.747L134.672,151.35L132.428,151.35L127.834,144.679L124.215,144.679L124.215,151.35L122.305,151.35L122.305,137.352L124.215,137.352Z" style="fill:rgb(255,151,32);fill-rule:nonzero;"/>
            </g>
            <g>
                <path d="M135.772,140.968C135.772,140.318 135.918,139.766 136.218,139.296C136.511,138.843 136.899,138.454 137.386,138.145C137.938,137.767 138.585,137.505 139.313,137.338C140.049,137.174 140.795,137.097 141.534,137.097C142.453,137.097 143.356,137.181 144.235,137.368C145.106,137.542 146.022,137.859 146.975,138.302L146.293,139.807C144.817,139.118 143.274,138.775 141.676,138.775C141.149,138.775 140.598,138.829 140.035,138.925C139.463,139.03 138.966,139.214 138.544,139.476C138.268,139.65 138.05,139.851 137.891,140.082C137.733,140.318 137.662,140.611 137.662,140.968C137.662,141.24 137.719,141.475 137.833,141.69C137.959,141.907 138.112,142.081 138.316,142.207C138.544,142.377 138.823,142.503 139.151,142.593C139.487,142.677 139.777,142.748 140.04,142.786L143.049,143.327C143.668,143.447 144.289,143.6 144.881,143.784C145.481,143.961 145.991,144.21 146.41,144.539C146.863,144.864 147.194,145.269 147.405,145.752C147.612,146.236 147.717,146.77 147.717,147.363C147.717,148.003 147.575,148.585 147.313,149.113C147.037,149.641 146.649,150.083 146.159,150.441C145.576,150.847 144.871,151.15 144.034,151.329C143.192,151.521 142.232,151.613 141.139,151.613C140.131,151.613 139.17,151.521 138.279,151.34C137.386,151.163 136.498,150.877 135.606,150.464L136.143,148.922C136.989,149.232 137.833,149.471 138.698,149.641C139.562,149.8 140.369,149.886 141.108,149.886C141.861,149.886 142.579,149.839 143.267,149.743C143.965,149.648 144.554,149.416 145.032,149.041C145.272,148.874 145.457,148.65 145.592,148.384C145.733,148.105 145.807,147.791 145.807,147.435C145.807,146.797 145.617,146.314 145.246,145.987C144.977,145.752 144.639,145.572 144.235,145.446C143.812,145.326 143.345,145.218 142.825,145.122L139.552,144.564C138.977,144.468 138.432,144.328 137.938,144.138C137.441,143.957 137.012,143.689 136.657,143.345C136.372,143.089 136.164,142.759 136.004,142.37C135.854,141.976 135.772,141.513 135.772,140.968" style="fill:rgb(255,151,32);fill-rule:nonzero;"/>
            </g>
        </g>
    </g>
</svg>
