<?xml version="1.0" standalone="no"?>
<!DOCTYPE svg PUBLIC "-//W3C//DTD SVG 1.1//EN" "http://www.w3.org/Graphics/SVG/1.1/DTD/svg11.dtd">
<svg width="240px" height="55px" version="1.1" xmlns="http://www.w3.org/2000/svg" xmlns:xlink="http://www.w3.org/1999/xlink" xml:space="preserve" style="fill-rule:evenodd;clip-rule:evenodd;stroke-miterlimit:10;">
    <g>
        <g id="title">
            <g>
                <path d="M90.3827,41.6124C88.5157,42.3814 84.6167,43.5904 79.5647,43.5904C74.6767,43.5904 70.2287,42.3814 66.4937,38.7574C63.4187,35.7914 61.3877,30.7944 61.3877,24.8074C61.3877,14.5394 68.1427,5.8064 80.7177,5.8064C84.6717,5.8064 87.9117,6.7404 89.3397,7.4544L88.4607,9.5964C86.5387,8.6634 84.1227,8.0044 80.5527,8.0044C70.3937,8.0044 64.1327,14.6484 64.1327,24.6984C64.1327,35.1334 70.2287,41.3924 80.0037,41.3924C83.9037,41.3924 86.3737,40.8434 87.7467,40.0754L87.7467,27.0054L79.1807,27.0054L79.1807,24.8634L90.3827,24.8634L90.3827,41.6124Z" style="fill:rgb(255,129,0);fill-rule:nonzero;"/>
            </g>
            <g>
                <rect x="98.0719" y="4.1597" width="2.636" height="39.046" style="fill:rgb(255,129,0);fill-rule:nonzero;"/>
            </g>
            <g>
                <path d="M119.764,41.6124C125.255,41.6124 129.594,36.6704 129.594,29.9154C129.594,25.0834 126.903,18.4374 119.929,18.4374C113.174,18.4374 110.154,24.4244 110.154,30.0804C110.154,36.6704 114.327,41.6124 119.709,41.6124L119.764,41.6124ZM119.599,43.8094C112.789,43.8094 107.518,38.4824 107.518,30.2454C107.518,21.2384 113.449,16.2414 119.984,16.2414C127.287,16.2414 132.23,21.7324 132.23,29.8054C132.23,39.5814 125.475,43.8094 119.654,43.8094L119.599,43.8094Z" style="fill:rgb(255,129,0);fill-rule:nonzero;"/>
            </g>
            <g>
                <path d="M137.831,39.7452C139.259,40.6242 141.401,41.5582 143.763,41.5582C147.935,41.5582 149.913,39.3062 149.913,36.5602C149.913,33.6492 148.155,32.1122 144.366,30.5742C140.028,28.9272 137.667,26.5652 137.667,23.3802C137.667,19.5362 140.686,16.2412 145.794,16.2412C148.211,16.2412 150.297,16.9552 151.615,17.8892L150.627,20.0302C149.693,19.3712 147.991,18.4372 145.354,18.4372C142.005,18.4372 140.248,20.5792 140.248,22.9962C140.248,25.7412 142.115,26.8942 145.685,28.3782C149.968,30.0802 152.494,32.2222 152.494,36.2302C152.494,40.7332 148.979,43.7542 143.598,43.7542C141.071,43.7542 138.655,43.0402 136.897,41.9422L137.831,39.7452Z" style="fill:rgb(255,129,0);fill-rule:nonzero;"/>
            </g>
            <g>
                <path d="M158.314,39.7452C159.742,40.6242 161.884,41.5582 164.246,41.5582C168.418,41.5582 170.396,39.3062 170.396,36.5602C170.396,33.6492 168.638,32.1122 164.849,30.5742C160.511,28.9272 158.15,26.5652 158.15,23.3802C158.15,19.5362 161.169,16.2412 166.277,16.2412C168.694,16.2412 170.781,16.9552 172.098,17.8892L171.11,20.0302C170.176,19.3712 168.474,18.4372 165.837,18.4372C162.488,18.4372 160.731,20.5792 160.731,22.9962C160.731,25.7412 162.598,26.8942 166.168,28.3782C170.451,30.0802 172.977,32.2222 172.977,36.2302C172.977,40.7332 169.462,43.7542 164.081,43.7542C161.554,43.7542 159.138,43.0402 157.38,41.9422L158.314,39.7452Z" style="fill:rgb(255,129,0);fill-rule:nonzero;"/>
            </g>
            <g>
                <path d="M193.68,29.0919C187.913,28.9269 180.335,29.8059 180.335,36.1209C180.335,39.9099 182.862,41.6129 185.607,41.6129C190,41.6129 192.527,38.9219 193.406,36.3409C193.625,35.7909 193.68,35.1879 193.68,34.7479L193.68,29.0919ZM196.316,36.9449C196.316,39.0309 196.37,41.1729 196.701,43.2049L194.284,43.2049L193.9,39.4159L193.789,39.4159C192.472,41.4469 189.561,43.8099 185.332,43.8099C180.005,43.8099 177.589,40.0749 177.589,36.5609C177.589,30.4649 182.916,26.7849 193.68,26.8949L193.68,26.1809C193.68,23.5999 193.186,18.3829 186.925,18.4379C184.618,18.4379 182.202,19.0419 180.281,20.4149L179.456,18.4929C181.872,16.9009 184.838,16.2409 187.2,16.2409C194.833,16.2409 196.316,21.9519 196.316,26.6199L196.316,36.9449Z" style="fill:rgb(255,129,0);fill-rule:nonzero;"/>
            </g>
            <g>
                <path d="M204.774,24.753C204.774,22.117 204.719,19.427 204.554,16.846L206.97,16.846L207.081,22.172L207.245,22.172C208.398,18.822 211.144,16.241 214.713,16.241C215.098,16.241 215.482,16.296 215.812,16.351L215.812,18.822C215.427,18.768 215.044,18.768 214.548,18.768C210.924,18.768 208.343,21.898 207.629,26.126C207.464,26.895 207.41,27.774 207.41,28.652L207.41,43.205L204.774,43.205L204.774,24.753Z" style="fill:rgb(255,129,0);fill-rule:nonzero;"/>
            </g>
            <g>
                <path d="M219.986,16.8458L226.905,34.0888C227.619,35.9558 228.333,38.0978 228.827,39.7448L228.937,39.7448C229.486,38.1528 230.145,36.0668 230.968,33.9238L237.394,16.8458L240.195,16.8458L232.287,36.5048C229.101,44.6878 226.85,49.5748 223.39,52.5958C221.303,54.3538 219.382,55.1218 218.777,55.3418L217.954,53.1448C219.271,52.6508 220.974,51.7168 222.567,50.2348C223.884,48.9158 225.642,46.7198 226.96,43.5898C227.179,43.0398 227.29,42.7108 227.29,42.4368C227.29,42.2168 227.179,41.8318 226.96,41.2838L217.185,16.8458L219.986,16.8458Z" style="fill:rgb(255,129,0);fill-rule:nonzero;"/>
            </g>
            <g>
                <path d="M45.596,37.084C45.551,35.171 44.068,33.614 42.203,33.582C40.624,33.553 39.286,34.627 38.84,36.115C37.888,36.642 36.746,37.213 35.542,37.568C35.85,37.086 36.036,36.523 36.036,35.914C36.036,34.81 35.45,33.84 34.564,33.273C34.402,32.48 33.795,31.481 33.837,30.47C33.902,28.914 32.348,27.635 33.533,26.59C36.684,23.818 39.61,19.727 39.61,15.133C39.61,6.785 32.085,0 23.951,0C15.82,0 8.218,6.785 8.218,15.133C8.218,19.196 10.586,23.313 13.127,26.027C14.117,27.086 15.374,28.498 15.171,30.071C15.043,31.049 14.378,31.995 14.594,33.021C14.616,33.125 14.663,33.22 14.703,33.317C13.152,33.565 11.964,34.858 11.964,36.43C11.964,37.824 12.903,38.995 14.197,39.417C11.936,41.051 9.278,40.384 7.073,39.325C7.025,37.384 5.465,35.824 3.541,35.824C1.585,35.824 0,37.432 0,39.416C0,40.211 0.263,40.939 0.696,41.535C0.526,41.968 0.428,42.438 0.428,42.935C0.428,44.923 1.937,46.531 3.833,46.638C4.125,47.024 4.503,47.367 5.008,47.619C7.763,48.996 9.757,48.562 12.48,48.1C15.105,49.663 18.01,48.629 19.65,47.777C22.1,46.502 23.252,43.436 23.59,42.48C23.889,41.635 24.2,39.994 24.46,38.211C24.722,40.028 25.039,41.709 25.345,42.568C25.683,43.521 27.01,47.273 29.572,48.308C31.948,49.267 34.728,49.16 36.128,48.376C37.525,47.846 38.528,46.499 38.601,44.887C40.389,44.952 42.661,44.575 44.028,43.712C45.734,43.419 47.037,41.897 47.037,40.049C47.037,38.833 46.467,37.764 45.596,37.084Z" style="fill:white;fill-rule:nonzero;stroke-width:1.5px;stroke:rgb(255,129,0);"/>
            </g>
            <g>
                <path d="M26.9417,33.4356C29.7747,35.7576 34.1047,35.1656 36.6087,32.1136C39.1127,29.0576 38.8467,24.6996 36.0157,22.3746C33.1787,20.0506 28.8527,20.6426 26.3467,23.6986C23.8407,26.7516 24.1077,31.1126 26.9417,33.4356" style="fill:white;fill-rule:nonzero;stroke-width:1px;stroke:rgb(255,129,0);"/>
            </g>
            <g>
                <path d="M15.285,18.9219C15.731,15.3859 17.961,12.0039 21.91,12.2849C25.283,12.5269 27.476,15.6469 27.137,18.8869C26.98,20.3699 24.658,20.2539 24.814,18.7619C25.028,16.7339 23.932,14.8499 21.785,14.6079C19.192,14.3159 17.885,16.8439 17.607,19.0459C17.422,20.5259 15.099,20.4139 15.285,18.9219" style="fill:rgb(255,129,0);fill-rule:nonzero;"/>
            </g>
            <g>
                <path d="M31.701,18.1915C32.024,14.7275 33.323,11.3765 35.473,11.5605C37.314,11.7155 38.44,14.7125 38.181,17.8825C38.061,19.3365 36.795,19.2755 36.913,17.8145C37.076,15.8305 36.828,13.9405 35.66,13.7515C34.248,13.5245 33.477,16.0235 33.273,18.1805C33.139,19.6295 31.564,19.6485 31.701,18.1915" style="fill:rgb(255,129,0);fill-rule:nonzero;"/>
            </g>
            <g>
                <path d="M28.5204,25.7325C26.6914,28.1935 26.9124,31.4535 29.0124,33.0115C31.1144,34.5745 34.2994,33.8405 36.1254,31.3785C37.9554,28.9165 37.7324,25.6565 35.6324,24.0975C33.5324,22.5385 30.3494,23.2675 28.5204,25.7325" style="fill:none;stroke-width:1px;stroke:rgb(255,129,0);"/>
            </g>
        </g>
    </g>
</svg>
