<?xml version="1.0" standalone="no"?>
<!DOCTYPE svg PUBLIC "-//W3C//DTD SVG 1.1//EN" "http://www.w3.org/Graphics/SVG/1.1/DTD/svg11.dtd">
<svg width="340px" height="106px" version="1.1" xmlns="http://www.w3.org/2000/svg" xmlns:xlink="http://www.w3.org/1999/xlink" xml:space="preserve" style="fill-rule:evenodd;clip-rule:evenodd;stroke-linejoin:round;stroke-miterlimit:1.41421;">
    <g id="svg2">
        <g id="dot">
            <g>
                <rect id="path52" x="267.463" y="17.3259" width="72.9375" height="69.2113" style="fill:white;"/>
                <g id="path56">
                    <path d="M321.863,0.0137356L18.45,0.0749856C8.24876,0.0874856 -0.0124858,8.23874 1.41665e-05,18.2637L0.0637642,88.3387C0.0750142,98.375 8.33751,106.512 18.5375,106.5L321.963,106.437C332.15,106.425 340.413,98.2875 340.4,88.2512L340.376,61.9625C333.85,68.7125 323.2,72.975 311.274,72.6875C308.613,72.6137 306.038,72.3262 303.574,71.8375L289.888,85.2387L292.263,67.9C282.788,62.8875 276.638,54.5137 276.888,45.15C277.263,30.4387 293.274,18.9125 312.649,19.3887C324.075,19.6862 334.111,24.0762 340.349,30.6637L340.336,18.175C340.336,8.13874 332.05,-0.00126438 321.863,0.0137356" style="fill:rgb(255,129,0);fill-rule:nonzero;"/>
                </g>
                <g id="path60">
                    <path d="M306.662,47.7261C306.662,45.3111 308.637,43.3761 311.086,43.3761C313.537,43.3761 315.525,45.3111 315.525,47.7261C315.525,50.1261 313.537,52.0624 311.086,52.0624C308.637,52.0624 306.662,50.1261 306.662,47.7261" style="fill:rgb(255,129,0);"/>
                </g>
            </g>
        </g>
    </g>
</svg>
