<?xml version="1.0" standalone="no"?>
<!DOCTYPE svg PUBLIC "-//W3C//DTD SVG 1.1//EN" "http://www.w3.org/Graphics/SVG/1.1/DTD/svg11.dtd">
<svg width="340px" height="106px" version="1.1" xmlns="http://www.w3.org/2000/svg" xmlns:xlink="http://www.w3.org/1999/xlink" xml:space="preserve" style="fill-rule:evenodd;clip-rule:evenodd;stroke-linejoin:round;stroke-miterlimit:1.41421;">
    <g id="svg2">
        <g id="dot">
            <g>
                <rect id="path52" x="267.463" y="17.3259" width="72.9375" height="69.2113" style="fill:white;"/>
                <g id="path56">
                    <path d="M321.863,0.0137356L18.45,0.0749856C8.24876,0.0874856 -0.0124858,8.23874 1.41665e-05,18.2637L0.0637642,88.3387C0.0750142,98.375 8.33751,106.512 18.5375,106.5L321.963,106.437C332.15,106.425 340.413,98.2875 340.4,88.2512L340.376,61.9625C333.85,68.7125 323.2,72.975 311.274,72.6875C308.613,72.6137 306.038,72.3262 303.574,71.8375L289.888,85.2387L292.263,67.9C282.788,62.8875 276.638,54.5137 276.888,45.15C277.263,30.4387 293.274,18.9125 312.649,19.3887C324.075,19.6862 334.111,24.0762 340.349,30.6637L340.336,18.175C340.336,8.13874 332.05,-0.00126438 321.863,0.0137356" style="fill:rgb(255,129,0);fill-rule:nonzero;"/>
                </g>
                <g id="path60">
                    <path d="M306.662,47.7261C306.662,45.3111 308.637,43.3761 311.086,43.3761C313.537,43.3761 315.525,45.3111 315.525,47.7261C315.525,50.1261 313.537,52.0624 311.086,52.0624C308.637,52.0624 306.662,50.1261 306.662,47.7261" style="fill:rgb(255,129,0);"/>
                </g>
            </g>
            <g id="Layer1">
                <g>
                    <path d="M133.578,49.328C133.578,49.9989 133.686,50.5977 133.904,51.127C134.122,51.655 134.416,52.1109 134.789,52.496C135.186,52.906 135.659,53.2303 136.206,53.4651C136.752,53.7011 137.343,53.8192 137.977,53.8192C138.722,53.8192 139.365,53.6912 139.906,53.4365C140.447,53.1818 140.952,52.8489 141.426,52.4389L142.32,53.4464C141.724,54.0304 141.084,54.4614 140.401,54.741C139.716,55.0218 138.91,55.1609 137.978,55.1609C137.121,55.1609 136.338,55.0118 135.63,54.7136C134.922,54.4167 134.301,54.0067 133.766,53.485C133.22,52.9619 132.8,52.3482 132.508,51.6401C132.216,50.9319 132.069,50.1616 132.069,49.3293C132.069,48.523 132.215,47.7701 132.508,47.0756C132.799,46.3787 133.207,45.7712 133.728,45.2481C134.25,44.7263 134.871,44.3164 135.591,44.0194C136.312,43.7213 137.107,43.5722 137.977,43.5722C138.909,43.5722 139.712,43.7113 140.389,43.9921C141.067,44.2716 141.71,44.6915 142.319,45.2494L141.387,46.2569C140.915,45.8345 140.412,45.5053 139.878,45.2692C139.342,45.0332 138.71,44.9152 137.977,44.9152C137.356,44.9152 136.78,45.0245 136.252,45.2419C135.724,45.4593 135.261,45.7662 134.865,46.1637C134.467,46.5613 134.153,47.0272 133.923,47.5614C133.693,48.0956 133.578,48.682 133.578,49.328Z" style="fill:white;fill-rule:nonzero;"/>
                    <path d="M148.691,43.5697C149.547,43.5697 150.337,43.7163 151.058,44.0082C151.777,44.3002 152.399,44.7077 152.921,45.2282C153.455,45.7625 153.865,46.3836 154.15,47.0918C154.436,47.7999 154.58,48.5578 154.58,49.3653C154.58,50.1604 154.443,50.9021 154.17,51.5928C153.895,52.2824 153.499,52.8874 152.977,53.4092C152.455,53.9558 151.83,54.3844 151.104,54.695C150.377,55.0056 149.573,55.1609 148.691,55.1609C147.784,55.1609 146.957,54.9932 146.212,54.6577C145.467,54.3223 144.833,53.8751 144.312,53.316C143.839,52.7942 143.467,52.1954 143.195,51.5183C142.92,50.8412 142.785,50.1244 142.785,49.3665C142.785,48.5839 142.92,47.8509 143.195,47.1676C143.468,46.483 143.852,45.8817 144.35,45.3599C144.872,44.8009 145.503,44.3623 146.241,44.0455C146.979,43.7287 147.796,43.5697 148.691,43.5697ZM144.293,49.3653C144.293,49.9989 144.399,50.5741 144.61,51.0897C144.821,51.6053 145.107,52.0612 145.467,52.46C145.863,52.8948 146.339,53.2328 146.892,53.475C147.444,53.7173 148.044,53.8378 148.69,53.8378C149.323,53.8378 149.912,53.7198 150.46,53.485C151.007,53.2489 151.479,52.9135 151.876,52.4774C152.237,52.0811 152.524,51.6214 152.734,51.0984C152.945,50.5766 153.05,49.9989 153.05,49.3653C153.05,48.7193 152.941,48.1329 152.724,47.6036C152.506,47.0756 152.218,46.6197 151.858,46.2346C151.46,45.8122 150.988,45.4829 150.441,45.2456C149.895,45.0108 149.311,44.8928 148.69,44.8928C148.056,44.8928 147.46,45.0133 146.901,45.2556C146.343,45.4978 145.863,45.8308 145.467,46.2532C145.107,46.6507 144.82,47.1092 144.61,47.6322C144.399,48.154 144.293,48.7317 144.293,49.3653Z" style="fill:white;fill-rule:nonzero;"/>
                    <path d="M166.19,43.7747L166.19,54.9559L164.699,54.9559L157.3,45.9923L157.3,54.9559L155.81,54.9559L155.81,43.7747L157.319,43.7747L164.736,52.7383L164.736,43.7747Z" style="fill:white;fill-rule:nonzero;"/>
                    <path d="M167.308,43.7747L177.632,43.7747L177.632,45.0978L173.215,45.0978L173.215,54.9559L171.724,54.9559L171.724,45.0978L167.308,45.0978Z" style="fill:white;fill-rule:nonzero;"/>
                    <path d="M178.75,43.7747L187.285,43.7747L187.285,45.1537L180.278,45.1537L180.278,48.3776L186.538,48.3776L186.538,49.738L180.278,49.738L180.278,53.5955L187.563,53.5955L187.563,54.9559L178.749,54.9559L178.749,43.7747Z" style="fill:white;fill-rule:nonzero;"/>
                    <path d="M199.342,43.7747L199.342,54.9559L197.851,54.9559L190.453,45.9923L190.453,54.9559L188.962,54.9559L188.962,43.7747L190.471,43.7747L197.888,52.7383L197.888,43.7747Z" style="fill:white;fill-rule:nonzero;"/>
                    <path d="M200.459,43.7747L210.783,43.7747L210.783,45.0978L206.366,45.0978L206.366,54.9559L204.875,54.9559L204.875,45.0978L200.459,45.0978Z" style="fill:white;fill-rule:nonzero;"/>
                    <path d="M211.286,46.6632C211.286,46.1414 211.405,45.6979 211.64,45.3314C211.876,44.9649 212.187,44.6568 212.572,44.4083C213.019,44.1101 213.535,43.8964 214.118,43.7647C214.702,43.6355 215.292,43.5697 215.889,43.5697C216.622,43.5697 217.34,43.6418 218.041,43.7846C218.743,43.9275 219.472,44.1784 220.231,44.5387L219.69,45.7314C218.51,45.1848 217.28,44.9114 215.999,44.9114C215.577,44.9114 215.14,44.9512 214.686,45.0332C214.233,45.1139 213.838,45.2605 213.502,45.4717C213.279,45.6084 213.105,45.7699 212.98,45.9563C212.856,46.1426 212.794,46.3787 212.794,46.6644C212.794,46.8756 212.841,47.0682 212.934,47.2421C213.026,47.416 213.154,47.5527 213.317,47.6521C213.502,47.7887 213.726,47.8906 213.988,47.9589C214.249,48.0285 214.484,48.0807 214.695,48.118L217.1,48.5466C217.596,48.646 218.084,48.7677 218.562,48.9106C219.041,49.0535 219.448,49.2547 219.782,49.5156C220.143,49.7765 220.407,50.0995 220.575,50.4847C220.744,50.8698 220.827,51.2972 220.827,51.7693C220.827,52.2786 220.718,52.7445 220.5,53.1669C220.283,53.5906 219.975,53.9446 219.579,54.2291C219.119,54.5521 218.554,54.7882 217.883,54.9373C217.212,55.0864 216.442,55.1609 215.572,55.1609C214.764,55.1609 214.003,55.0888 213.29,54.946C212.575,54.8043 211.864,54.5708 211.155,54.2465L211.584,53.0178C212.255,53.2663 212.936,53.4564 213.625,53.5856C214.315,53.716 214.957,53.7806 215.555,53.7806C216.15,53.7806 216.725,53.7446 217.279,53.6688C217.831,53.5943 218.3,53.4079 218.685,53.1098C218.872,52.9743 219.022,52.7967 219.133,52.5793C219.243,52.3619 219.3,52.1097 219.3,51.8252C219.3,51.3158 219.151,50.9294 218.853,50.6685C218.642,50.4834 218.372,50.3393 218.043,50.2399C217.714,50.1405 217.339,50.0536 216.916,49.979L214.307,49.5318C213.848,49.4572 213.418,49.3467 213.021,49.1963C212.624,49.0473 212.281,48.8361 211.997,48.5627C211.773,48.3515 211.599,48.0894 211.475,47.7788C211.348,47.4719 211.286,47.098 211.286,46.6632Z" style="fill:white;fill-rule:nonzero;"/>
                    <path d="M137.845,61.7889L142.002,71.1066L140.362,71.1066L139.598,69.3548L134.306,69.3548L133.542,71.1066L131.976,71.1066L136.113,61.7889ZM134.863,68.0317L139.019,68.0317L137.062,63.3356L136.839,63.3356Z" style="fill:white;fill-rule:nonzero;"/>
                    <path d="M151.859,61.7889L151.859,71.1066L150.441,71.1066L144.571,64.0251L144.571,71.1066L143.118,71.1066L143.118,61.7889L144.553,61.7889L150.423,68.8517L150.423,61.7889Z" style="fill:white;fill-rule:nonzero;"/>
                    <path d="M157.151,61.7889C157.946,61.7889 158.638,61.9069 159.229,62.143C159.82,62.3778 160.326,62.7082 160.748,63.1306C161.158,63.5406 161.478,64.0289 161.707,64.5941C161.938,65.1594 162.051,65.7768 162.051,66.4477C162.051,67.1186 161.937,67.7398 161.707,68.3113C161.477,68.8827 161.158,69.3735 160.748,69.7835C160.326,70.2071 159.82,70.5326 159.229,70.7624C158.638,70.9923 157.946,71.1066 157.151,71.1066L153.443,71.1066L153.443,61.7889ZM154.934,63.112L154.934,69.8021L157.077,69.8021C157.71,69.8021 158.24,69.7151 158.661,69.5412C159.083,69.366 159.437,69.1188 159.722,68.7945C160.281,68.1994 160.562,67.4168 160.562,66.4465C160.562,65.962 160.486,65.5147 160.337,65.1047C160.188,64.6948 159.97,64.3481 159.686,64.0612C159.4,63.763 159.045,63.5294 158.624,63.3617C158.202,63.194 157.686,63.1107 157.077,63.1107L154.934,63.1107Z" style="fill:white;fill-rule:nonzero;"/>
                    <path d="M178.786,71.0134L177.891,71.1811L177.612,70.3065C177.14,70.6295 176.639,70.878 176.111,71.0519C175.583,71.2258 174.978,71.3128 174.295,71.3128C173.437,71.3128 172.651,71.1699 171.938,70.8842C171.224,70.5984 170.605,70.2009 170.083,69.6915C169.549,69.1697 169.133,68.5486 168.834,67.828C168.536,67.1074 168.388,66.3247 168.388,65.4787C168.388,64.6724 168.534,63.917 168.827,63.2151C169.118,62.5144 169.538,61.9007 170.084,61.3789C170.62,60.8571 171.247,60.4509 171.968,60.1589C172.687,59.8682 173.477,59.7204 174.333,59.7204C175.265,59.7204 176.079,59.8533 176.776,60.1204C177.471,60.3887 178.13,60.8074 178.751,61.3789L177.819,62.3479C177.322,61.9119 176.804,61.5938 176.263,61.3888C175.722,61.1839 175.08,61.0807 174.333,61.0807C173.7,61.0807 173.111,61.1963 172.563,61.4249C172.017,61.6559 171.538,61.9814 171.129,62.4038C170.755,62.7766 170.464,63.2263 170.253,63.7543C170.041,64.2835 169.935,64.8575 169.935,65.4787C169.935,66.1632 170.051,66.7769 170.281,67.3236C170.51,67.8702 170.824,68.3423 171.221,68.7399C171.619,69.1262 172.078,69.4244 172.6,69.6356C173.122,69.8468 173.687,69.9524 174.296,69.9524C174.917,69.9524 175.469,69.8692 175.954,69.7002C176.439,69.5325 176.886,69.3064 177.296,69.0206L177.296,66.1135L174.296,65.9831L174.296,64.7718L178.786,64.7718Z" style="fill:white;fill-rule:nonzero;"/>
                    <path d="M189.054,71.1066L180.37,71.1066L180.37,59.9253L181.879,59.9253L181.879,69.7835L189.054,69.7835Z" style="fill:white;fill-rule:nonzero;"/>
                    <path d="M194.776,59.7204C195.632,59.7204 196.422,59.867 197.143,60.1589C197.862,60.4509 198.485,60.8584 199.006,61.3789C199.541,61.9131 199.951,62.5343 200.235,63.2424C200.521,63.9506 200.665,64.7084 200.665,65.516C200.665,66.3111 200.528,67.0528 200.255,67.7435C199.98,68.433 199.584,69.038 199.062,69.5598C198.541,70.1065 197.916,70.5351 197.189,70.8457C196.462,71.1563 195.658,71.3116 194.776,71.3116C193.869,71.3116 193.042,71.1438 192.298,70.8084C191.552,70.473 190.919,70.0257 190.397,69.4667C189.925,68.9449 189.552,68.346 189.28,67.669C189.005,66.9919 188.87,66.275 188.87,65.5172C188.87,64.7345 189.005,64.0015 189.28,63.3182C189.553,62.6337 189.937,62.0324 190.435,61.5106C190.957,60.9515 191.588,60.513 192.326,60.1962C193.064,59.8794 193.882,59.7204 194.776,59.7204ZM190.378,65.516C190.378,66.1496 190.484,66.7248 190.695,67.2403C190.906,67.7559 191.192,68.2119 191.552,68.6107C191.949,69.0455 192.424,69.3834 192.977,69.6257C193.529,69.8679 194.129,69.9884 194.775,69.9884C195.409,69.9884 195.997,69.8704 196.545,69.6356C197.092,69.3996 197.564,69.0641 197.962,68.6281C198.322,68.2317 198.609,67.7721 198.819,67.249C199.03,66.7273 199.136,66.1496 199.136,65.516C199.136,64.8699 199.026,64.2835 198.809,63.7543C198.591,63.2263 198.303,62.7703 197.943,62.3852C197.545,61.9628 197.073,61.6336 196.527,61.3963C195.98,61.1615 195.396,61.0435 194.775,61.0435C194.141,61.0435 193.545,61.164 192.986,61.4062C192.428,61.6485 191.949,61.9814 191.552,62.4038C191.192,62.8014 190.905,63.2598 190.695,63.7829C190.484,64.3047 190.378,64.8824 190.378,65.516Z" style="fill:white;fill-rule:nonzero;"/>
                    <path d="M201.465,62.8138C201.465,62.292 201.584,61.8485 201.819,61.482C202.055,61.1155 202.366,60.8074 202.751,60.5589C203.198,60.2608 203.714,60.0471 204.298,59.9154C204.882,59.7862 205.472,59.7204 206.068,59.7204C206.801,59.7204 207.519,59.7924 208.22,59.9353C208.922,60.0782 209.651,60.3291 210.41,60.6894L209.87,61.8821C208.689,61.3354 207.459,61.0621 206.179,61.0621C205.756,61.0621 205.319,61.1019 204.865,61.1839C204.412,61.2646 204.017,61.4112 203.681,61.6224C203.458,61.7591 203.284,61.9206 203.16,62.1069C203.035,62.2933 202.973,62.5293 202.973,62.8151C202.973,63.0263 203.02,63.2188 203.114,63.3928C203.206,63.5667 203.334,63.7034 203.496,63.8027C203.681,63.9394 203.905,64.0413 204.167,64.1096C204.428,64.1792 204.663,64.2314 204.874,64.2686L207.279,64.6972C207.775,64.7966 208.263,64.9184 208.742,65.0613C209.22,65.2041 209.627,65.4054 209.962,65.6663C210.322,65.9272 210.586,66.2502 210.754,66.6353C210.923,67.0204 211.006,67.4478 211.006,67.9199C211.006,68.4293 210.897,68.8952 210.68,69.3176C210.462,69.7412 210.154,70.0953 209.758,70.3798C209.298,70.7028 208.733,70.9388 208.062,71.0879C207.391,71.237 206.621,71.3116 205.751,71.3116C204.944,71.3116 204.182,71.2395 203.469,71.0966C202.755,70.955 202.043,70.7214 201.335,70.3972L201.763,69.1685C202.434,69.417 203.115,69.607 203.804,69.7362C204.494,69.8667 205.136,69.9313 205.734,69.9313C206.329,69.9313 206.904,69.8953 207.458,69.8195C208.01,69.7449 208.479,69.5586 208.865,69.2604C209.051,69.125 209.201,68.9473 209.312,68.7299C209.422,68.5125 209.479,68.2603 209.479,67.9758C209.479,67.4665 209.33,67.0801 209.032,66.8192C208.821,66.6341 208.551,66.49 208.222,66.3906C207.893,66.2912 207.518,66.2042 207.095,66.1297L204.486,65.6824C204.027,65.6079 203.597,65.4973 203.201,65.347C202.803,65.1979 202.46,64.9867 202.176,64.7134C201.952,64.5022 201.778,64.2401 201.654,63.9295C201.527,63.6226 201.465,63.2486 201.465,62.8138Z" style="fill:white;fill-rule:nonzero;"/>
                    <path d="M211.975,62.8138C211.975,62.292 212.095,61.8485 212.329,61.482C212.566,61.1155 212.876,60.8074 213.261,60.5589C213.708,60.2608 214.224,60.0471 214.808,59.9154C215.392,59.7862 215.982,59.7204 216.578,59.7204C217.311,59.7204 218.029,59.7924 218.73,59.9353C219.432,60.0782 220.161,60.3291 220.92,60.6894L220.38,61.8821C219.2,61.3354 217.97,61.0621 216.689,61.0621C216.266,61.0621 215.829,61.1019 215.376,61.1839C214.922,61.2646 214.527,61.4112 214.192,61.6224C213.968,61.7591 213.794,61.9206 213.67,62.1069C213.546,62.2933 213.484,62.5293 213.484,62.8151C213.484,63.0263 213.531,63.2188 213.624,63.3928C213.716,63.5667 213.844,63.7034 214.007,63.8027C214.192,63.9394 214.415,64.0413 214.678,64.1096C214.938,64.1792 215.173,64.2314 215.384,64.2686L217.79,64.6972C218.285,64.7966 218.774,64.9184 219.252,65.0613C219.73,65.2041 220.138,65.4054 220.472,65.6663C220.832,65.9272 221.097,66.2502 221.265,66.6353C221.433,67.0204 221.517,67.4478 221.517,67.9199C221.517,68.4293 221.407,68.8952 221.19,69.3176C220.973,69.7412 220.664,70.0953 220.268,70.3798C219.808,70.7028 219.243,70.9388 218.572,71.0879C217.901,71.237 217.131,71.3116 216.262,71.3116C215.454,71.3116 214.692,71.2395 213.979,71.0966C213.265,70.955 212.553,70.7214 211.845,70.3972L212.274,69.1685C212.944,69.417 213.625,69.607 214.315,69.7362C215.004,69.8667 215.647,69.9313 216.244,69.9313C216.839,69.9313 217.414,69.8953 217.969,69.8195C218.52,69.7449 218.99,69.5586 219.375,69.2604C219.561,69.125 219.712,68.9473 219.822,68.7299C219.933,68.5125 219.99,68.2603 219.99,67.9758C219.99,67.4665 219.841,67.0801 219.543,66.8192C219.331,66.6341 219.062,66.49 218.733,66.3906C218.403,66.2912 218.028,66.2042 217.606,66.1297L214.997,65.6824C214.537,65.6079 214.107,65.4973 213.711,65.347C213.313,65.1979 212.971,64.9867 212.686,64.7134C212.462,64.5022 212.288,64.2401 212.164,63.9295C212.036,63.6226 211.975,63.2486 211.975,62.8138Z" style="fill:white;fill-rule:nonzero;"/>
                    <path d="M228.729,59.9253L233.704,71.1066L232.066,71.1066L231.097,68.9635L224.444,68.9635L223.493,71.1066L221.891,71.1066L226.848,59.9253ZM225.002,67.6031L230.536,67.6031L227.927,61.3789L227.591,61.3789Z" style="fill:white;fill-rule:nonzero;"/>
                    <path d="M244.457,63.9506C244.457,64.3854 244.391,64.8016 244.262,65.1992C244.131,65.5967 243.941,65.957 243.693,66.28C243.482,66.5645 243.221,66.8254 242.91,67.0627C242.6,67.3 242.252,67.4913 241.867,67.6404L243.991,71.1066L242.295,71.1066L240.413,67.9199L236.35,67.9199L236.35,71.1066L234.822,71.1066L234.822,59.9253L240.133,59.9253C240.791,59.9253 241.382,60.0272 241.904,60.2322C242.426,60.4372 242.885,60.7254 243.282,61.0994C243.642,61.4597 243.929,61.8783 244.139,62.3566C244.351,62.8362 244.457,63.3667 244.457,63.9506ZM236.352,66.5782L240.171,66.5782C240.643,66.5782 241.05,66.5061 241.391,66.3632C241.732,66.2204 242.016,66.0303 242.239,65.7942C242.464,65.547 242.633,65.26 242.752,64.9383C242.87,64.6152 242.93,64.286 242.93,63.9506C242.93,63.6139 242.874,63.2921 242.761,62.9815C242.649,62.671 242.494,62.3976 242.295,62.1616C242.06,61.9007 241.757,61.6895 241.391,61.528C241.024,61.3665 240.581,61.2857 240.059,61.2857L236.352,61.2857Z" style="fill:white;fill-rule:nonzero;"/>
                    <path d="M249.488,71.1066L249.488,68.5349L244.625,59.9253L246.375,59.9253L250.178,66.9136L250.307,66.9136L254.147,59.9253L255.806,59.9253L250.978,68.4976L250.978,71.1066Z" style="fill:white;fill-rule:nonzero;"/>
                </g>
                <g>
                    <path d="M60.0052,34.944C60.5704,34.944 60.9021,35.1328 60.9021,35.5105L60.9021,75.8685C60.9021,76.2474 60.5704,76.4363 60.0052,76.4363L58.164,76.4363C57.6447,76.4363 57.4099,76.2474 57.4099,75.8685L57.4099,73.6509L33.2895,73.6509L33.2895,75.8685C33.2895,76.2474 32.9578,76.4363 32.344,76.4363L30.5041,76.4363C29.9848,76.4363 29.75,76.2474 29.75,75.8685L29.75,35.6981C29.75,35.226 29.9848,34.9428 30.5041,34.9428L60.0052,34.9428ZM57.4099,46.9328L57.4099,38.2474L33.2895,38.2474L33.2895,46.9328ZM57.4099,58.7339L57.4099,50.0486L33.2895,50.0486L33.2895,58.7339ZM57.4099,70.345L57.4099,61.8498L33.2895,61.8498L33.2895,70.345Z" style="fill:white;fill-rule:nonzero;"/>
                    <path d="M83.6124,36.2174C83.6124,36.5007 83.4721,36.6423 83.282,36.6423C82.7627,36.7367 82.4322,36.8784 82.3378,37.1616L82.2906,37.256C83.3764,38.9556 84.2734,40.183 85.0287,40.8912C86.1605,42.1658 87.5308,43.2989 89.1347,44.3362C89.1347,44.6667 89.0416,44.9027 88.8515,44.9972C88.3794,45.4221 87.8129,45.9414 87.1047,46.5551C87.0115,46.5551 86.9171,46.5079 86.8215,46.4135C85.8773,45.8469 84.9331,45.0444 84.0833,44.1002C83.0919,42.9672 82.0073,41.5049 80.8271,39.6637C79.5996,41.5993 78.3722,43.1088 77.1919,44.1946C76.2477,45.186 74.6426,46.6023 72.3778,48.395C72.0933,48.395 71.8113,48.3018 71.6224,48.0173C71.2448,47.7328 70.8199,47.4036 70.4434,47.0259C70.2546,46.9315 70.1589,46.7427 70.1589,46.5538C71.292,45.6096 72.471,44.6182 73.6997,43.5796C75.2576,42.2106 76.6254,40.6539 77.7597,38.9543C78.7511,37.4908 79.5524,36.0273 80.1189,34.5638C80.1189,34.4694 80.2134,34.375 80.3078,34.375C82.4807,35.4149 83.6124,36.0286 83.6124,36.2174ZM86.3991,46.7439C86.5867,46.7439 86.7295,46.9328 86.7295,47.3104L86.7295,48.7739C86.7295,49.2932 86.5879,49.5293 86.3991,49.5293L81.7725,49.5293L81.7725,55.4292L87.8613,55.4292C88.0961,55.4292 88.239,55.6181 88.239,55.9486L88.239,57.4593C88.239,57.9314 88.0974,58.1662 87.8613,58.1662L81.7725,58.1662L81.7725,71.288C83.7081,70.7686 85.5493,70.2493 87.2476,69.6841C87.2948,69.6369 87.3892,69.5896 87.4836,69.5896C87.7184,69.5896 87.8613,69.73 87.8613,69.9673C87.8613,71.3376 87.7669,72.0918 87.6725,72.1862C83.236,73.4136 78.7511,74.4982 74.2202,75.4908C73.7953,76.245 73.4661,76.6226 73.276,76.6226C73.04,76.6226 72.5679,75.5368 71.8125,73.4596C73.7009,73.1291 75.967,72.657 78.6095,72.0905L78.6095,58.1662L72.1902,58.1662C71.9069,58.1662 71.8125,57.9314 71.8125,57.4593L71.8125,55.9486C71.8125,55.6181 71.9069,55.4292 72.1902,55.4292L78.6095,55.4292L78.6095,49.5293L74.7395,49.5293C74.5035,49.5293 74.4091,49.2932 74.4091,48.7739L74.4091,47.3104C74.4091,46.9328 74.5022,46.7439 74.7395,46.7439ZM76.4391,65.8601C76.7695,66.8987 77.0516,68.0317 77.3361,69.2592C77.3361,69.3536 76.3919,69.6841 74.5979,70.1562C74.4575,69.4008 74.2202,68.5038 73.9382,67.372C73.5593,66.0974 73.1356,64.8215 72.5679,63.5008C72.5679,63.3133 73.3232,62.8399 74.9284,62.0374C75.4936,63.4536 76.0129,64.7271 76.4391,65.8601ZM88.239,62.6983C88.4278,62.8871 88.5707,63.0288 88.5707,63.1704C88.5707,63.358 88.4763,63.4536 88.3346,63.4536C88.0514,63.5008 87.8626,63.6425 87.8153,63.8326C87.3905,65.2476 86.7295,66.8999 85.8325,68.8815C85.4549,68.8815 85.2188,68.8355 85.2188,68.6939L83.4261,67.5609C83.9454,66.6167 84.3703,65.6725 84.6995,64.6823C85.0772,63.5965 85.3604,62.5579 85.5505,61.5665C85.5965,61.4249 85.6909,61.3317 85.8338,61.3317ZM99.0487,35.0372C99.4264,35.1316 99.6612,35.3204 99.6612,35.6981C99.6612,36.1702 99.4264,36.359 98.9543,36.359C98.6698,36.4535 98.5294,36.5951 98.4822,36.7839L107.78,36.7839C108.206,36.7839 108.488,36.8784 108.631,36.9728C109.291,37.4449 109.622,37.8225 109.622,38.0586L105.658,49.7169L113.116,49.7169C113.351,49.7169 113.494,49.9057 113.494,50.2362L113.494,51.6997C113.494,52.219 113.352,52.455 113.116,52.455L103.156,52.455L103.156,58.8743C103.391,59.4408 103.628,59.9601 103.863,60.4322C104.099,60.2918 104.288,60.149 104.477,59.9601C105.374,59.3476 106.222,58.591 106.979,57.7413C107.64,56.9387 108.252,56.0902 108.771,55.1447C108.866,54.9572 108.96,54.8615 109.056,54.8615L111.793,56.7511C112.172,56.9859 112.359,57.2704 112.359,57.6009C112.359,57.8841 112.172,57.9786 111.84,57.9786C111.368,57.9786 111.086,58.1202 110.943,58.3562C108.866,60.4335 106.979,62.0386 105.185,63.1716C105.61,64.0214 106.035,64.7283 106.411,65.2961C107.45,67.136 108.677,68.7883 110.141,70.299C111.367,71.5725 112.595,72.5166 113.869,73.1304C113.869,73.3192 113.728,73.4608 113.444,73.5553C112.783,74.1218 112.264,74.6411 111.839,75.2076C111.651,75.3964 111.556,75.4921 111.461,75.4921C109.573,74.0746 108.016,72.6123 106.882,71.0544C105.513,69.3561 104.38,67.5609 103.437,65.6265C103.342,65.4377 103.248,65.2961 103.153,65.1072L103.153,73.4621C103.153,75.8226 101.217,77.0028 97.4411,77.0028L96.3081,76.814C96.1205,76.814 96.0248,76.4835 96.0248,75.9182C95.9304,75.2101 95.6931,74.4063 95.2223,73.4621L95.2223,73.3217C95.8832,73.6522 96.5926,73.841 97.2523,73.841C98.9518,73.841 99.8488,73.2732 99.8488,72.1887L99.8488,52.455L89.5124,52.455C89.2279,52.455 89.1335,52.219 89.1335,51.6997L89.1335,50.2362C89.1335,49.9057 89.2279,49.7169 89.5124,49.7169L102.445,49.7169L103.626,46.3662L94.7986,46.3662C94.5154,47.0272 94.2321,47.6397 93.9489,48.2074C92.863,48.0658 92.0133,47.9229 91.3523,47.8285C91.0691,47.7825 90.9747,47.5937 90.9747,47.3092C92.5326,44.0517 94.1365,39.8513 95.7888,34.7539C95.8832,34.5179 96.0248,34.3762 96.3081,34.3762ZM97.6797,63.2636C98.2462,64.5854 98.5307,65.2948 98.5307,65.3892C98.5307,65.5296 98.4363,65.6725 98.3418,65.7657C97.1156,67.9373 95.9342,69.73 94.8968,71.1948C94.2831,72.0445 93.5277,72.9403 92.6779,73.9789C92.4903,74.2149 92.4431,74.5454 92.4431,74.9715C92.4431,75.1591 92.3959,75.302 92.3015,75.302C92.1139,75.302 91.3101,74.4994 89.9423,72.9887C89.8006,72.8956 89.7062,72.7527 89.7062,72.5639C89.7062,72.4222 89.7534,72.2806 89.8478,72.1862C90.602,71.6669 91.3113,71.0059 92.0667,70.2034C93.0581,69.1176 94.0495,67.8913 95.0409,66.4738C95.8435,65.2948 96.5516,64.2078 97.2113,63.1704C97.2585,63.076 97.3529,62.9815 97.4473,62.9815C97.5418,62.9815 97.5852,63.076 97.6797,63.2636ZM95.3664,57.5537C96.2162,58.4979 96.9715,59.2992 97.6325,60.0086C97.6325,60.0558 97.538,60.1502 97.3964,60.339C96.5938,61.4721 96.169,62.0386 96.169,62.0386C95.1316,60.9056 94.093,59.8682 93.0072,58.8755C92.1102,58.1214 91.3548,57.6021 90.7883,57.2717C90.7883,57.13 91.2132,56.5635 92.1102,55.5249C92.2034,55.3361 92.345,55.2404 92.4406,55.2404C93.6196,56.0902 94.6123,56.8927 95.3664,57.5537ZM106.035,39.5693L97.4908,39.5693C96.9243,41.08 96.405,42.4019 95.9329,43.6293L104.618,43.6293Z" style="fill:white;fill-rule:nonzero;"/>
                </g>
            </g>
        </g>
    </g>
</svg>
