<?xml version="1.0" standalone="no"?>
<!DOCTYPE svg PUBLIC "-//W3C//DTD SVG 1.1//EN" "http://www.w3.org/Graphics/SVG/1.1/DTD/svg11.dtd">
<svg width="340px" height="106px" version="1.1" xmlns="http://www.w3.org/2000/svg" xmlns:xlink="http://www.w3.org/1999/xlink" xml:space="preserve" style="fill-rule:evenodd;clip-rule:evenodd;stroke-miterlimit:1.41421;">
    <g id="svg2">
        <g id="dot dot">
            <g>
                <rect id="path12" x="267.462" y="18.2083" width="72.9375" height="69.2113" style="fill:white;"/>
                <g id="path24">
                    <path d="M321.863,1.43817e-05L18.45,0.0612644C8.24876,0.0762644 -0.0124858,8.22501 1.41665e-05,18.25L0.0637642,88.325C0.0750142,98.3613 8.33751,106.499 18.5375,106.486L321.963,106.426C332.15,106.411 340.413,98.2738 340.399,88.2375L340.376,61.9513C333.85,68.6988 323.2,72.9613 311.274,72.6763C308.611,72.6 306.038,72.3125 303.574,71.8238L289.888,85.225L292.263,67.8888C282.788,62.8738 276.638,54.5 276.888,45.1363C277.263,30.425 293.275,18.8988 312.65,19.375C324.075,19.675 334.113,24.0625 340.349,30.65L340.336,18.1613C340.336,8.12501 332.05,-0.0124856 321.863,1.43817e-05" style="fill:rgb(255,109,52);fill-rule:nonzero;"/>
                </g>
                <g id="path28">
                    <path d="M297.912,48.6084C297.912,46.1934 299.887,44.2584 302.337,44.2584C304.787,44.2584 306.775,46.1934 306.775,48.6084C306.775,51.0084 304.787,52.9446 302.337,52.9446C299.887,52.9446 297.912,51.0084 297.912,48.6084" style="fill:rgb(255,105,60);"/>
                </g>
                <g id="path32">
                    <path d="M314.126,48.6084C314.126,46.1934 316.098,44.2584 318.55,44.2584C321.001,44.2584 322.987,46.1934 322.987,48.6084C322.987,51.0084 321.001,52.9446 318.55,52.9446C316.098,52.9446 314.126,51.0084 314.126,48.6084" style="fill:rgb(255,105,60);"/>
                </g>
            </g>
            <g id="Layer2">
                <g>
                    <path d="M37.5901,35.0661L37.5901,47.2377L23.3086,47.2377L23.3086,74.482L21.375,74.482L21.375,35.0661ZM23.3086,40.207L35.6565,40.207L35.6565,36.911L23.3086,36.911ZM23.3086,45.4804L35.6565,45.4804L35.6565,41.9644L23.3086,41.9644ZM32.448,47.9414C34.2941,49.4651 35.8315,51.1637 37.0614,53.0386L35.7865,53.9173L42.246,53.9173L41.1036,53.0386C42.9497,51.3399 44.3996,49.5226 45.4533,47.5902L47.0794,48.4252C45.9957,50.3875 44.6333,52.2186 42.9922,53.9185L48.1331,53.9185L48.1331,62.5316L42.8597,62.5316L42.8597,67.1013C42.8597,68.1262 42.9472,68.7425 43.1235,68.9474C43.2697,69.2112 44.4121,69.3424 46.5507,69.3424C48.2793,69.3424 49.2755,69.1662 49.5392,68.815C49.9205,68.4925 50.2129,66.9251 50.4179,64.1128L52.3515,65.299C52.0291,68.5212 51.5454,70.2936 50.9016,70.6161C50.5504,71.056 49.1005,71.2748 46.552,71.2748C43.6522,71.2748 42.011,71.0398 41.6298,70.5711C41.1611,70.3361 40.9261,69.2824 40.9261,67.4076L40.9261,62.5304L37.1476,62.5304C36.8839,65.4602 35.9902,67.5988 34.4666,68.9462C33.0017,70.4111 30.5856,71.5535 27.2158,72.3734L25.9859,70.6161C29.062,69.9124 31.2593,68.9462 32.5767,67.7163C33.9241,66.6614 34.744,64.9327 35.0378,62.5316L29.8531,62.5316L29.8531,53.9185L35.0828,53.9185C34.0278,52.1899 32.6217,50.535 30.8643,48.9526ZM31.7893,60.7718L46.202,60.7718L46.202,55.6746L31.7893,55.6746ZM46.202,35.0661L57.2749,35.0661L57.2749,70.9673C57.2749,72.7247 56.22,73.6034 54.1114,73.6034C52.939,73.6034 51.5916,73.4721 50.0692,73.2084L50.0692,71.2748C51.5041,71.656 52.8528,71.846 54.1114,71.846C54.9314,71.846 55.3413,71.3185 55.3413,70.2636L55.3413,47.2377L40.7536,47.2377L40.7536,35.0661ZM42.8622,40.207L55.3413,40.207L55.3413,36.911L42.8622,36.911ZM55.3426,45.4804L55.3426,41.9644L42.8635,41.9644L42.8635,45.4804Z" style="fill:rgb(248,248,248);fill-rule:nonzero;stroke-width:0.62px;stroke:white;"/>
                    <path d="M63.6032,40.3832L77.841,40.3832L77.841,42.1406L63.6032,42.1406ZM65.5369,46.1828L76.7861,46.1828L76.7861,47.9402L65.5369,47.9402ZM65.5369,52.2911L76.7861,52.2911L76.7861,54.0485L65.5369,54.0485ZM76.2586,58.6632L76.2586,72.3734L74.325,72.3734L74.325,70.2636L67.9529,70.2636L67.9529,73.9546L66.0193,73.9546L66.0193,58.6632ZM69.2278,33C70.8977,34.6699 72.2889,36.5447 73.4025,38.6246L71.6452,39.8545C70.649,37.8034 69.3016,35.856 67.603,34.0099ZM67.9542,68.5062L74.3262,68.5062L74.3262,60.5968L67.9542,60.5968ZM87.684,69.0337L88.6952,70.4398C85.3554,71.9922 81.6057,73.2809 77.446,74.3071L76.6111,72.7247C80.3021,71.8747 83.993,70.6448 87.684,69.0337ZM76.9623,36.1648L89.4414,36.1648L89.4414,33.0012L91.375,33.0012L91.375,36.1648L105.085,36.1648L105.085,37.9221L91.375,37.9221L91.375,40.5582L102.273,40.5582L102.273,42.3156L79.3784,42.3156L79.3784,40.5582L89.4414,40.5582L89.4414,37.9221L76.9623,37.9221ZM78.3684,44.2492L103.503,44.2492L103.503,51.8074L78.3684,51.8074ZM80.3021,50.1825L85.9267,50.1825L85.9267,45.8328L80.3021,45.8328ZM80.3021,53.741L101.394,53.741L101.394,68.5062L80.3021,68.5062ZM82.2344,58.092L99.4594,58.092L99.4594,55.4996L82.2344,55.4996ZM82.2344,62.5291L99.4594,62.5291L99.4594,59.6731L82.2344,59.6731ZM82.2344,66.7476L99.4594,66.7476L99.4594,64.1115L82.2344,64.1115ZM87.859,45.8316L87.859,50.1813L93.6599,50.1813L93.6599,45.8316ZM93.4836,68.8574C97.5846,69.8824 101.452,71.1135 105.084,72.5484L104.38,74.482C100.513,72.8122 96.6321,71.4648 92.7362,70.4398ZM95.5935,45.8316L95.5935,50.1813L101.569,50.1813L101.569,45.8316Z" style="fill:rgb(248,248,248);fill-rule:nonzero;stroke-width:0.62px;stroke:white;"/>
                </g>
                <g>
                    <path d="M148.737,54.076C148.737,54.5422 148.666,54.9884 148.527,55.4159C148.386,55.8434 148.183,56.2283 147.917,56.5758C147.69,56.8833 147.41,57.162 147.077,57.4158C146.742,57.6695 146.37,57.8745 145.957,58.0357L148.237,61.7567L146.416,61.7567L144.397,58.3369L140.038,58.3369L140.038,61.7567L138.397,61.7567L138.397,49.7551L144.098,49.7551C144.802,49.7551 145.437,49.865 145.997,50.0875C146.559,50.3075 147.052,50.6175 147.48,51.0175C147.866,51.4037 148.171,51.8524 148.397,52.3649C148.622,52.8798 148.737,53.4485 148.737,54.076ZM140.037,56.8958L144.135,56.8958C144.642,56.8958 145.08,56.8196 145.446,56.6658C145.812,56.5121 146.115,56.3096 146.357,56.0559C146.596,55.7896 146.78,55.4821 146.906,55.1359C147.032,54.7897 147.096,54.4347 147.096,54.076C147.096,53.7148 147.035,53.3685 146.915,53.0361C146.795,52.7011 146.629,52.4086 146.415,52.1549C146.164,51.8762 145.839,51.6499 145.446,51.4762C145.054,51.3024 144.577,51.215 144.015,51.215L140.035,51.215L140.035,56.8958Z" style="fill:white;fill-rule:nonzero;"/>
                    <path d="M150.336,49.7551L159.495,49.7551L159.495,51.2375L151.976,51.2375L151.976,54.6972L158.694,54.6972L158.694,56.1571L151.976,56.1571L151.976,60.2981L159.795,60.2981L159.795,61.758L150.336,61.758Z" style="fill:white;fill-rule:nonzero;"/>
                    <path d="M168.435,49.7551L173.773,61.7567L172.013,61.7567L170.973,59.4569L163.832,59.4569L162.815,61.7567L161.094,61.7567L166.413,49.7551ZM164.434,57.997L170.373,57.997L167.573,51.3149L167.215,51.3149Z" style="fill:white;fill-rule:nonzero;"/>
                    <path d="M180.214,49.7551C181.134,49.7551 181.974,49.9163 182.734,50.2363C183.493,50.5563 184.155,51.0025 184.713,51.5762C185.218,52.1086 185.61,52.7286 185.883,53.436C186.157,54.141 186.293,54.9159 186.293,55.7546C186.293,56.6333 186.137,57.4508 185.825,58.2057C185.51,58.9582 185.072,59.6019 184.513,60.1343C183.981,60.6418 183.351,61.038 182.624,61.323C181.896,61.6105 181.092,61.7555 180.214,61.7555L175.273,61.7555L175.273,49.7538L180.214,49.7538ZM176.894,51.2362L176.894,60.2956L180.134,60.2956C180.839,60.2956 181.466,60.1856 182.014,59.9631C182.561,59.7431 183.027,59.4406 183.412,59.0544C184.24,58.227 184.652,57.1283 184.652,55.7534C184.652,54.406 184.255,53.3198 183.453,52.4949C183.065,52.1061 182.596,51.8012 182.042,51.5749C181.491,51.3474 180.854,51.2362 180.134,51.2362Z" style="fill:white;fill-rule:nonzero;"/>
                    <path d="M193.491,49.7551L204.569,49.7551L204.569,51.1762L199.829,51.1762L199.829,61.7567L198.23,61.7567L198.23,51.1762L193.491,51.1762Z" style="fill:white;fill-rule:nonzero;"/>
                    <path d="M211.21,49.5351C212.13,49.5351 212.975,49.6938 213.749,50.0063C214.522,50.3188 215.189,50.7562 215.749,51.3149C216.322,51.8887 216.762,52.5549 217.07,53.3173C217.377,54.076 217.531,54.8897 217.531,55.7559C217.531,56.6108 217.382,57.4058 217.089,58.1457C216.795,58.8857 216.369,59.5344 215.81,60.0968C215.251,60.683 214.58,61.1417 213.801,61.4767C213.02,61.8092 212.159,61.9767 211.211,61.9767C210.238,61.9767 209.352,61.7954 208.55,61.4367C207.752,61.0755 207.071,60.5943 206.512,59.9968C206.004,59.4356 205.603,58.7932 205.311,58.0657C205.018,57.3408 204.871,56.5696 204.871,55.7559C204.871,54.9159 205.017,54.1297 205.311,53.3948C205.603,52.6624 206.018,52.0149 206.551,51.4562C207.112,50.8562 207.788,50.385 208.582,50.045C209.372,49.7063 210.25,49.5351 211.21,49.5351ZM206.492,55.7559C206.492,56.4371 206.604,57.052 206.831,57.6057C207.058,58.157 207.363,58.6482 207.75,59.0756C208.175,59.5419 208.685,59.9056 209.279,60.1643C209.873,60.4255 210.517,60.5555 211.21,60.5555C211.889,60.5555 212.524,60.428 213.11,60.1743C213.696,59.9231 214.204,59.5619 214.631,59.0956C215.017,58.6682 215.325,58.1757 215.551,57.6157C215.776,57.057 215.89,56.4371 215.89,55.7559C215.89,55.0622 215.772,54.4322 215.539,53.866C215.306,53.2998 214.996,52.8086 214.611,52.3961C214.184,51.9424 213.676,51.5887 213.09,51.3362C212.504,51.0825 211.876,50.955 211.21,50.955C210.529,50.955 209.889,51.085 209.289,51.3462C208.69,51.6049 208.175,51.9612 207.752,52.4149C207.363,52.8423 207.058,53.3348 206.832,53.8948C206.603,54.4572 206.492,55.0747 206.492,55.7559Z" style="fill:white;fill-rule:nonzero;"/>
                    <path d="M227.108,49.7551L231.708,56.1946L236.228,49.7551L238.167,49.7551L238.167,61.7567L236.548,61.7567L236.548,51.9362L236.428,51.9362L231.869,58.3957L231.369,58.3957L226.789,51.9362L226.669,51.9362L226.669,61.7567L225.148,61.7567L225.148,49.7551Z" style="fill:white;fill-rule:nonzero;"/>
                    <path d="M240.166,49.7551L249.325,49.7551L249.325,51.2375L241.806,51.2375L241.806,54.6972L248.526,54.6972L248.526,56.1571L241.806,56.1571L241.806,60.2981L249.625,60.2981L249.625,61.758L240.166,61.758Z" style="fill:white;fill-rule:nonzero;"/>
                </g>
            </g>
        </g>
    </g>
</svg>
