<?xml version="1.0" standalone="no"?>
<!DOCTYPE svg PUBLIC "-//W3C//DTD SVG 1.1//EN" "http://www.w3.org/Graphics/SVG/1.1/DTD/svg11.dtd">
<svg width="340px" height="106px" version="1.1" xmlns="http://www.w3.org/2000/svg" xmlns:xlink="http://www.w3.org/1999/xlink" xml:space="preserve" style="fill-rule:evenodd;clip-rule:evenodd;stroke-linejoin:round;stroke-miterlimit:1.41421;">
    <g id="svg2">
        <g id="dot dot">
            <g>
                <rect id="path12" x="267.462" y="18.2083" width="72.9375" height="69.2113" style="fill:white;"/>
                <g id="path24">
                    <path d="M321.863,1.43817e-05L18.45,0.0612644C8.24876,0.0762644 -0.0124858,8.22501 1.41665e-05,18.25L0.0637642,88.325C0.0750142,98.3613 8.33751,106.499 18.5375,106.486L321.963,106.426C332.15,106.411 340.413,98.2738 340.399,88.2375L340.376,61.9513C333.85,68.6988 323.2,72.9613 311.274,72.6763C308.611,72.6 306.038,72.3125 303.574,71.8238L289.888,85.225L292.263,67.8888C282.788,62.8738 276.638,54.5 276.888,45.1363C277.263,30.425 293.275,18.8988 312.65,19.375C324.075,19.675 334.113,24.0625 340.349,30.65L340.336,18.1613C340.336,8.12501 332.05,-0.0124856 321.863,1.43817e-05" style="fill:rgb(255,109,52);fill-rule:nonzero;"/>
                </g>
                <g id="path28">
                    <path d="M297.912,48.6084C297.912,46.1934 299.887,44.2584 302.337,44.2584C304.787,44.2584 306.775,46.1934 306.775,48.6084C306.775,51.0084 304.787,52.9446 302.337,52.9446C299.887,52.9446 297.912,51.0084 297.912,48.6084" style="fill:rgb(255,105,60);"/>
                </g>
                <g id="path32">
                    <path d="M314.126,48.6084C314.126,46.1934 316.098,44.2584 318.55,44.2584C321.001,44.2584 322.987,46.1934 322.987,48.6084C322.987,51.0084 321.001,52.9446 318.55,52.9446C316.098,52.9446 314.126,51.0084 314.126,48.6084" style="fill:rgb(255,105,60);"/>
                </g>
            </g>
        </g>
    </g>
</svg>
