<?xml version="1.0" standalone="no"?>
<!DOCTYPE svg PUBLIC "-//W3C//DTD SVG 1.1//EN" "http://www.w3.org/Graphics/SVG/1.1/DTD/svg11.dtd">
<svg width="340px" height="106px" version="1.1" xmlns="http://www.w3.org/2000/svg" xmlns:xlink="http://www.w3.org/1999/xlink" xml:space="preserve" style="fill-rule:evenodd;clip-rule:evenodd;stroke-miterlimit:1.41421;">
    <g id="svg2">
        <g id="dot dot dot">
            <g>
                <rect id="path34" x="267.451" y="15.9333" width="72.9488" height="69.2113" style="fill:white;"/>
                <g id="path38">
                    <path d="M292.5,46.333C292.5,43.933 294.487,41.983 296.939,41.983C299.375,41.983 301.362,43.933 301.362,46.333C301.362,48.733 299.375,50.683 296.939,50.683C294.487,50.683 292.5,48.733 292.5,46.333" style="fill:rgb(230,51,56);"/>
                </g>
                <g id="path42">
                    <path d="M307.363,46.333C307.363,43.933 309.351,41.983 311.787,41.983C314.238,41.983 316.226,43.933 316.226,46.333C316.226,48.733 314.238,50.683 311.787,50.683C309.351,50.683 307.363,48.733 307.363,46.333" style="fill:rgb(230,51,56);"/>
                </g>
                <g id="path46">
                    <path d="M322.226,46.333C322.226,43.933 324.201,41.983 326.65,41.983C329.101,41.983 331.086,43.933 331.086,46.333C331.086,48.733 329.101,50.683 326.65,50.683C324.201,50.683 322.226,48.733 322.226,46.333" style="fill:rgb(230,51,56);"/>
                </g>
                <g id="path50">
                    <path d="M321.863,1.43817e-05L18.45,0.0612644C8.24876,0.0762644 -0.0124858,8.22501 1.41665e-05,18.25L0.0637642,88.325C0.0750142,98.3613 8.33751,106.499 18.5375,106.486L321.963,106.426C332.15,106.411 340.413,98.2738 340.4,88.2375L340.376,61.9513C333.85,68.6988 323.2,72.9613 311.274,72.6763C308.613,72.6 306.038,72.3125 303.574,71.8238L289.888,85.225L292.263,67.8888C282.788,62.8738 276.638,54.5 276.888,45.1363C277.263,30.425 293.276,18.8988 312.651,19.375C324.075,19.675 334.114,24.0625 340.349,30.65L340.336,18.1613C340.336,8.12501 332.05,-0.0124856 321.863,1.43817e-05" style="fill:rgb(252,75,23);fill-rule:nonzero;"/>
                </g>
            </g>
            <g id="Layer3">
                <g>
                    <path d="M27.1091,56.3322L52.2873,56.3322L52.2873,57.9145C48.889,59.9655 44.817,61.7078 40.0725,63.1439C40.2188,63.4663 40.3362,63.7888 40.4237,64.11L59.8451,64.11L59.8451,65.8236L40.9499,65.8236C41.2424,67.2296 41.3899,68.5332 41.3899,69.7343C41.3899,71.6966 41.0674,72.9415 40.4237,73.4689C39.8963,73.9088 39.1489,74.1276 38.1827,74.1276C36.6004,74.1276 34.9169,73.8201 33.1296,73.2052L32.9096,71.0954C34.7257,71.8278 36.3217,72.1941 37.6991,72.1941C38.2265,72.1941 38.6364,72.1203 38.9289,71.9741C39.2801,71.7691 39.4563,71.0217 39.4563,69.7331C39.4563,68.2983 39.3101,66.9947 39.0164,65.8223L19.375,65.8223L19.375,64.1088L38.489,64.1088C38.1378,62.9952 37.6391,61.999 36.9954,61.1204L38.5327,60.4167C38.8252,60.7979 39.0889,61.1779 39.3239,61.5591C42.8397,60.5929 45.9881,59.4356 48.7715,58.0882L27.1091,58.0882ZM32.7334,33.8349L33.832,35.5922C31.2536,36.822 28.4277,37.7157 25.3518,38.2731L25.3955,40.6903L33.832,40.6903L33.832,42.5364L25.3955,42.5364L25.4393,45.8322L34.1395,45.8322L34.1395,47.5895L25.483,47.5895L25.5268,51.6315L53.5172,51.6315L53.7809,47.7645L45.5644,47.7645L45.5644,46.0072L53.8696,46.0072L54.0458,42.5364L46.3118,42.5364L46.3118,40.6903L54.1333,40.6903L54.3533,36.9995L46.488,36.9995L46.488,35.2422L56.3306,35.2422L55.4519,51.6315L58.4403,51.6315L58.4403,57.9145L56.5043,57.9145L56.5043,53.3888L22.7583,53.3888L22.7583,57.9145L20.8248,57.9145L20.8248,51.6315L23.7682,51.6315L23.417,36.5158C26.7566,35.9884 29.8625,35.0947 32.7334,33.8349ZM43.4984,42.1402L44.5532,43.3263C43.7333,44.4986 42.7959,45.5822 41.7411,46.5784C42.8834,47.5158 43.997,48.4969 45.0807,49.5218L43.8058,50.8841C42.7222,49.7705 41.6086,48.7306 40.4662,47.7645C38.9139,48.9656 37.1704,50.0055 35.2368,50.8841L34.3145,49.5218C36.1305,48.7019 37.7415,47.7495 39.1476,46.6659C37.9465,45.6997 36.7017,44.8348 35.4131,44.0737L36.4242,42.7988C37.8015,43.6775 39.1339,44.5999 40.4225,45.5672C41.5648,44.5124 42.5897,43.37 43.4984,42.1402ZM44.157,33L45.2556,34.2299C44.3183,35.5484 43.2496,36.7783 42.0485,37.9207C43.1034,38.7406 44.1133,39.6192 45.0807,40.5566L43.8058,41.9639C42.8097,40.939 41.7998,39.9717 40.7737,39.0643C39.1626,40.2941 37.3753,41.379 35.4131,42.3164L34.4907,40.8666C36.3367,40.0467 37.9765,39.0943 39.4126,38.0106C38.0653,36.9558 36.6742,35.9746 35.2381,35.0673L36.2492,33.8374C37.8015,34.7748 39.3101,35.7997 40.7749,36.9133C42.0623,35.6809 43.1909,34.3773 44.157,33Z" style="fill:rgb(248,248,248);fill-rule:nonzero;stroke-width:0.62px;stroke:white;"/>
                    <path d="M78.6504,45.0836L79.0016,47.0171C74.3734,49.3605 70.2577,51.1178 66.6543,52.2902L65.6432,50.3567C71.0638,48.7169 75.3983,46.9583 78.6504,45.0836ZM66.1269,35.066L82.8686,35.066L82.8686,52.0265L80.9351,52.0265L80.9351,36.9108L66.1269,36.9108ZM69.159,38.6243C72.5274,39.7667 75.3833,41.099 77.7268,42.6226L76.5406,44.4236C74.2847,42.9001 71.5162,41.5527 68.2354,40.3816ZM84.4509,51.4553L86.5607,52.2902C85.4471,53.55 84.1585,54.7361 82.6937,55.8498L98.6442,55.8498L98.6442,74.48L96.5345,74.48L96.5345,71.6679L73.2023,71.6679L73.2023,74.48L71.0926,74.48L71.0926,55.8498L79.969,55.8498C81.6963,54.4724 83.1911,53.0076 84.4509,51.4553ZM73.2023,62.8802L96.5345,62.8802L96.5345,57.6958L73.2023,57.6958ZM73.2023,69.9106L96.5345,69.9106L96.5345,64.6375L73.2023,64.6375ZM84.9771,35.066L101.981,35.066L101.981,52.6864L99.9616,52.6864L99.9616,36.9108L84.9771,36.9108ZM97.9843,45.0836L98.2918,47.0171C93.9561,48.9793 90.104,50.4592 86.7357,51.4553L85.6808,49.5218C90.8364,48.1457 94.9372,46.6659 97.9843,45.0836ZM88.1418,38.6243C91.5401,39.7667 94.396,41.099 96.7095,42.6226L95.5234,44.4236C93.2674,42.9001 90.499,41.5527 87.2181,40.3816Z" style="fill:rgb(248,248,248);fill-rule:nonzero;stroke-width:0.62px;stroke:white;"/>
                </g>
                <g>
                    <path d="M125.425,61.7541L116.106,61.7541L116.106,49.753L117.726,49.753L117.726,60.333L125.425,60.333Z" style="fill:white;fill-rule:nonzero;"/>
                    <path d="M125.923,49.7542L135.082,49.7542L135.082,51.2366L127.563,51.2366L127.563,54.6961L134.282,54.6961L134.282,56.156L127.563,56.156L127.563,60.2967L135.382,60.2967L135.382,61.7566L125.923,61.7566Z" style="fill:white;fill-rule:nonzero;"/>
                    <path d="M143.023,49.7542L148.361,61.7553L146.601,61.7553L145.561,59.4556L138.422,59.4556L137.403,61.7553L135.684,61.7553L141.003,49.7542ZM139.023,57.9958L144.962,57.9958L142.163,51.3141L141.803,51.3141Z" style="fill:white;fill-rule:nonzero;"/>
                    <path d="M159.199,54.075C159.199,54.5412 159.128,54.9874 158.99,55.4148C158.85,55.8423 158.646,56.2272 158.38,56.5747C158.152,56.8821 157.873,57.1609 157.54,57.4146C157.206,57.6683 156.834,57.8733 156.42,58.0345L158.7,61.7553L156.88,61.7553L154.86,58.3357L150.502,58.3357L150.502,61.7553L148.861,61.7553L148.861,49.7542L154.561,49.7542C155.266,49.7542 155.9,49.8642 156.461,50.0867C157.021,50.3067 157.515,50.6166 157.942,51.0166C158.328,51.4028 158.635,51.8515 158.861,52.3639C159.086,52.8789 159.199,53.4475 159.199,54.075ZM150.501,56.8946L154.599,56.8946C155.105,56.8946 155.542,56.8184 155.91,56.6647C156.276,56.5109 156.579,56.3085 156.82,56.0547C157.06,55.7885 157.243,55.4811 157.37,55.1348C157.496,54.7886 157.558,54.4337 157.558,54.075C157.558,53.7138 157.498,53.3676 157.378,53.0351C157.257,52.7001 157.092,52.4077 156.879,52.154C156.626,51.8752 156.302,51.649 155.91,51.4753C155.516,51.3016 155.04,51.2141 154.479,51.2141L150.499,51.2141L150.499,56.8946Z" style="fill:white;fill-rule:nonzero;"/>
                    <path d="M170.938,49.7542L170.938,61.7553L169.338,61.7553L161.399,52.1352L161.399,61.7553L159.799,61.7553L159.799,49.7542L161.419,49.7542L169.378,59.3743L169.378,49.7542Z" style="fill:white;fill-rule:nonzero;"/>
                    <path d="M176.937,61.7541L176.937,49.753L183.117,49.753C183.623,49.753 184.109,49.838 184.576,50.0042C185.043,50.1704 185.436,50.4267 185.756,50.7729C186.276,51.2928 186.536,51.959 186.536,52.7726C186.536,53.2801 186.429,53.7275 186.215,54.1125C186.003,54.5012 185.695,54.8136 185.296,55.0524L185.296,55.1523C185.603,55.2723 185.869,55.4311 186.096,55.6235C186.324,55.816 186.524,56.041 186.696,56.2922C187.069,56.8271 187.255,57.4521 187.255,58.172C187.255,58.6919 187.162,59.1656 186.975,59.5931C186.787,60.0205 186.529,60.3867 186.195,60.6917C185.835,61.0404 185.415,61.3016 184.935,61.4828C184.455,61.6641 183.935,61.7541 183.375,61.7541ZM184.936,52.8951C184.936,52.6539 184.893,52.4239 184.806,52.2039C184.72,51.984 184.596,51.8015 184.436,51.6553C184.276,51.509 184.077,51.3865 183.838,51.2941C183.598,51.2016 183.264,51.1553 182.837,51.1553L178.557,51.1553L178.557,54.6149L183.158,54.6149C183.492,54.6149 183.767,54.5662 183.988,54.4662C184.208,54.3662 184.378,54.2337 184.496,54.075C184.789,53.7275 184.936,53.3351 184.936,52.8951ZM185.656,58.1532C185.656,57.5796 185.503,57.1059 185.196,56.7322C184.996,56.5072 184.743,56.3272 184.436,56.1922C184.13,56.061 183.764,55.9922 183.337,55.9922L178.557,55.9922L178.557,60.3717L183.237,60.3717C183.664,60.3717 184.024,60.3105 184.316,60.1842C184.609,60.058 184.869,59.8793 185.096,59.6518C185.27,59.4668 185.406,59.2469 185.506,58.9931C185.606,58.7394 185.656,58.4619 185.656,58.1532Z" style="fill:white;fill-rule:nonzero;"/>
                    <path d="M192.154,61.7541L192.154,58.9931L186.935,49.753L188.815,49.753L192.895,57.2521L193.034,57.2521L197.154,49.753L198.935,49.753L193.754,58.9531L193.754,61.7528L192.154,61.7528Z" style="fill:white;fill-rule:nonzero;"/>
                    <path d="M206.393,49.7542L210.992,56.1935L215.511,49.7542L217.451,49.7542L217.451,61.7553L215.831,61.7553L215.831,51.9352L215.711,51.9352L211.152,58.3945L210.653,58.3945L206.074,51.9352L205.953,51.9352L205.953,61.7553L204.433,61.7553L204.433,49.7542Z" style="fill:white;fill-rule:nonzero;"/>
                    <path d="M223.151,61.7541L223.151,58.9931L217.931,49.753L219.811,49.753L223.892,57.2521L224.03,57.2521L228.15,49.753L229.931,49.753L224.75,58.9531L224.75,61.7528L223.151,61.7528Z" style="fill:white;fill-rule:nonzero;"/>
                    <path d="M229.77,52.8539C229.77,52.2952 229.897,51.819 230.151,51.4228C230.403,51.0303 230.737,50.7004 231.151,50.4342C231.631,50.1142 232.183,49.8855 232.811,49.743C233.437,49.6043 234.071,49.533 234.71,49.533C235.497,49.533 236.266,49.6118 237.02,49.7655C237.774,49.9167 238.556,50.1879 239.371,50.5729L238.79,51.854C237.524,51.2653 236.204,50.9728 234.83,50.9728C234.378,50.9728 233.908,51.0166 233.421,51.1028C232.933,51.1903 232.511,51.3466 232.151,51.574C231.911,51.7203 231.723,51.894 231.591,52.094C231.458,52.2939 231.391,52.5477 231.391,52.8526C231.391,53.0801 231.441,53.2876 231.541,53.4725C231.641,53.66 231.777,53.8075 231.951,53.9125C232.151,54.0612 232.392,54.1712 232.671,54.245C232.949,54.3187 233.204,54.3749 233.429,54.4137L236.009,54.8749C236.543,54.9799 237.066,55.1111 237.579,55.2636C238.093,55.4173 238.529,55.6348 238.889,55.9148C239.276,56.1935 239.559,56.5397 239.74,56.9546C239.92,57.3671 240.01,57.8258 240.01,58.3345C240.01,58.8819 239.892,59.3818 239.66,59.833C239.426,60.2867 239.097,60.6679 238.67,60.9729C238.176,61.3191 237.57,61.5728 236.85,61.7316C236.13,61.8928 235.304,61.9728 234.372,61.9728C233.504,61.9728 232.687,61.894 231.921,61.7428C231.155,61.5891 230.391,61.3379 229.632,60.9904L230.091,59.6718C230.811,59.938 231.541,60.1405 232.281,60.2817C233.022,60.4205 233.712,60.4917 234.35,60.4917C234.989,60.4917 235.608,60.4505 236.2,60.3692C236.794,60.2905 237.296,60.0905 237.71,59.7705C237.909,59.6243 238.07,59.4331 238.19,59.1994C238.31,58.9669 238.37,58.6969 238.37,58.3895C238.37,57.842 238.21,57.4296 237.89,57.1496C237.663,56.9521 237.374,56.7984 237.02,56.6909C236.668,56.5834 236.264,56.4909 235.81,56.4097L233.011,55.931C232.517,55.851 232.057,55.731 231.631,55.5698C231.203,55.4111 230.837,55.1836 230.531,54.8911C230.291,54.6637 230.103,54.3837 229.971,54.0512C229.837,53.7213 229.77,53.3201 229.77,52.8539Z" style="fill:white;fill-rule:nonzero;"/>
                    <path d="M240.608,49.7542L249.767,49.7542L249.767,51.2366L242.248,51.2366L242.248,54.6961L248.967,54.6961L248.967,56.156L242.248,56.156L242.248,60.2967L250.067,60.2967L250.067,61.7566L240.608,61.7566Z" style="fill:white;fill-rule:nonzero;"/>
                    <path d="M260.186,61.7541L250.867,61.7541L250.867,49.753L252.487,49.753L252.487,60.333L260.186,60.333Z" style="fill:white;fill-rule:nonzero;"/>
                    <path d="M269.625,49.7542L269.625,51.2366L262.326,51.2366L262.326,55.0149L268.805,55.0149L268.805,56.4747L262.326,56.4747L262.326,61.7553L260.685,61.7553L260.685,49.7542Z" style="fill:white;fill-rule:nonzero;"/>
                </g>
            </g>
        </g>
    </g>
</svg>
