<?xml version="1.0" standalone="no"?>
<!DOCTYPE svg PUBLIC "-//W3C//DTD SVG 1.1//EN" "http://www.w3.org/Graphics/SVG/1.1/DTD/svg11.dtd">
<svg width="340px" height="106px" version="1.1" xmlns="http://www.w3.org/2000/svg" xmlns:xlink="http://www.w3.org/1999/xlink" xml:space="preserve" style="fill-rule:evenodd;clip-rule:evenodd;stroke-linejoin:round;stroke-miterlimit:1.41421;">
    <g id="svg2">
        <g id="dot dot dot">
            <g>
                <rect id="path34" x="267.451" y="15.9333" width="72.9488" height="69.2113" style="fill:white;"/>
                <g id="path38">
                    <path d="M292.5,46.333C292.5,43.933 294.487,41.983 296.939,41.983C299.375,41.983 301.362,43.933 301.362,46.333C301.362,48.733 299.375,50.683 296.939,50.683C294.487,50.683 292.5,48.733 292.5,46.333" style="fill:rgb(230,51,56);"/>
                </g>
                <g id="path42">
                    <path d="M307.363,46.333C307.363,43.933 309.351,41.983 311.787,41.983C314.238,41.983 316.226,43.933 316.226,46.333C316.226,48.733 314.238,50.683 311.787,50.683C309.351,50.683 307.363,48.733 307.363,46.333" style="fill:rgb(230,51,56);"/>
                </g>
                <g id="path46">
                    <path d="M322.226,46.333C322.226,43.933 324.201,41.983 326.65,41.983C329.101,41.983 331.086,43.933 331.086,46.333C331.086,48.733 329.101,50.683 326.65,50.683C324.201,50.683 322.226,48.733 322.226,46.333" style="fill:rgb(230,51,56);"/>
                </g>
                <g id="path50">
                    <path d="M321.863,1.43817e-05L18.45,0.0612644C8.24876,0.0762644 -0.0124858,8.22501 1.41665e-05,18.25L0.0637642,88.325C0.0750142,98.3613 8.33751,106.499 18.5375,106.486L321.963,106.426C332.15,106.411 340.413,98.2738 340.4,88.2375L340.376,61.9513C333.85,68.6988 323.2,72.9613 311.274,72.6763C308.613,72.6 306.038,72.3125 303.574,71.8238L289.888,85.225L292.263,67.8888C282.788,62.8738 276.638,54.5 276.888,45.1363C277.263,30.425 293.276,18.8988 312.651,19.375C324.075,19.675 334.114,24.0625 340.349,30.65L340.336,18.1613C340.336,8.12501 332.05,-0.0124856 321.863,1.43817e-05" style="fill:rgb(252,75,23);fill-rule:nonzero;"/>
                </g>
            </g>
        </g>
    </g>
</svg>
